%TF.GenerationSoftware,KiCad,Pcbnew,6.0.2+dfsg-1*%
%TF.CreationDate,2022-07-02T11:43:59+03:00*%
%TF.ProjectId,GDBluePill,4744426c-7565-4506-996c-6c2e6b696361,rev?*%
%TF.SameCoordinates,Original*%
%TF.FileFunction,Legend,Bot*%
%TF.FilePolarity,Positive*%
%FSLAX46Y46*%
G04 Gerber Fmt 4.6, Leading zero omitted, Abs format (unit mm)*
G04 Created by KiCad (PCBNEW 6.0.2+dfsg-1) date 2022-07-02 11:43:59*
%MOMM*%
%LPD*%
G01*
G04 APERTURE LIST*
%ADD10C,0.120000*%
%ADD11C,0.050000*%
G04 APERTURE END LIST*
D10*
X35256428Y-16665171D02*
X35363571Y-16629457D01*
X35399285Y-16593742D01*
X35435000Y-16522314D01*
X35435000Y-16415171D01*
X35399285Y-16343742D01*
X35363571Y-16308028D01*
X35292142Y-16272314D01*
X35006428Y-16272314D01*
X35006428Y-17022314D01*
X35256428Y-17022314D01*
X35327857Y-16986600D01*
X35363571Y-16950885D01*
X35399285Y-16879457D01*
X35399285Y-16808028D01*
X35363571Y-16736600D01*
X35327857Y-16700885D01*
X35256428Y-16665171D01*
X35006428Y-16665171D01*
X35899285Y-17022314D02*
X35970714Y-17022314D01*
X36042142Y-16986600D01*
X36077857Y-16950885D01*
X36113571Y-16879457D01*
X36149285Y-16736600D01*
X36149285Y-16558028D01*
X36113571Y-16415171D01*
X36077857Y-16343742D01*
X36042142Y-16308028D01*
X35970714Y-16272314D01*
X35899285Y-16272314D01*
X35827857Y-16308028D01*
X35792142Y-16343742D01*
X35756428Y-16415171D01*
X35720714Y-16558028D01*
X35720714Y-16736600D01*
X35756428Y-16879457D01*
X35792142Y-16950885D01*
X35827857Y-16986600D01*
X35899285Y-17022314D01*
X40104286Y-16486600D02*
X40461429Y-16486600D01*
X40032858Y-16272314D02*
X40282858Y-17022314D01*
X40532858Y-16272314D01*
X41104286Y-17022314D02*
X40961429Y-17022314D01*
X40890001Y-16986600D01*
X40854286Y-16950885D01*
X40782858Y-16843742D01*
X40747143Y-16700885D01*
X40747143Y-16415171D01*
X40782858Y-16343742D01*
X40818572Y-16308028D01*
X40890001Y-16272314D01*
X41032858Y-16272314D01*
X41104286Y-16308028D01*
X41140001Y-16343742D01*
X41175715Y-16415171D01*
X41175715Y-16593742D01*
X41140001Y-16665171D01*
X41104286Y-16700885D01*
X41032858Y-16736600D01*
X40890001Y-16736600D01*
X40818572Y-16700885D01*
X40782858Y-16665171D01*
X40747143Y-16593742D01*
X57937858Y-16343742D02*
X57902143Y-16308028D01*
X57795001Y-16272314D01*
X57723572Y-16272314D01*
X57616429Y-16308028D01*
X57545001Y-16379457D01*
X57509286Y-16450885D01*
X57473572Y-16593742D01*
X57473572Y-16700885D01*
X57509286Y-16843742D01*
X57545001Y-16915171D01*
X57616429Y-16986600D01*
X57723572Y-17022314D01*
X57795001Y-17022314D01*
X57902143Y-16986600D01*
X57937858Y-16950885D01*
X58652143Y-16272314D02*
X58223572Y-16272314D01*
X58437858Y-16272314D02*
X58437858Y-17022314D01*
X58366429Y-16915171D01*
X58295001Y-16843742D01*
X58223572Y-16808028D01*
X59330715Y-17022314D02*
X58973572Y-17022314D01*
X58937858Y-16665171D01*
X58973572Y-16700885D01*
X59045001Y-16736600D01*
X59223572Y-16736600D01*
X59295001Y-16700885D01*
X59330715Y-16665171D01*
X59366429Y-16593742D01*
X59366429Y-16415171D01*
X59330715Y-16343742D01*
X59295001Y-16308028D01*
X59223572Y-16272314D01*
X59045001Y-16272314D01*
X58973572Y-16308028D01*
X58937858Y-16343742D01*
X60477858Y-16343742D02*
X60442143Y-16308028D01*
X60335001Y-16272314D01*
X60263572Y-16272314D01*
X60156429Y-16308028D01*
X60085001Y-16379457D01*
X60049286Y-16450885D01*
X60013572Y-16593742D01*
X60013572Y-16700885D01*
X60049286Y-16843742D01*
X60085001Y-16915171D01*
X60156429Y-16986600D01*
X60263572Y-17022314D01*
X60335001Y-17022314D01*
X60442143Y-16986600D01*
X60477858Y-16950885D01*
X61192143Y-16272314D02*
X60763572Y-16272314D01*
X60977858Y-16272314D02*
X60977858Y-17022314D01*
X60906429Y-16915171D01*
X60835001Y-16843742D01*
X60763572Y-16808028D01*
X61835001Y-16772314D02*
X61835001Y-16272314D01*
X61656429Y-17058028D02*
X61477858Y-16522314D01*
X61942143Y-16522314D01*
X63017858Y-16343742D02*
X62982143Y-16308028D01*
X62875001Y-16272314D01*
X62803572Y-16272314D01*
X62696429Y-16308028D01*
X62625001Y-16379457D01*
X62589286Y-16450885D01*
X62553572Y-16593742D01*
X62553572Y-16700885D01*
X62589286Y-16843742D01*
X62625001Y-16915171D01*
X62696429Y-16986600D01*
X62803572Y-17022314D01*
X62875001Y-17022314D01*
X62982143Y-16986600D01*
X63017858Y-16950885D01*
X63732143Y-16272314D02*
X63303572Y-16272314D01*
X63517858Y-16272314D02*
X63517858Y-17022314D01*
X63446429Y-16915171D01*
X63375001Y-16843742D01*
X63303572Y-16808028D01*
X63982143Y-17022314D02*
X64446429Y-17022314D01*
X64196429Y-16736600D01*
X64303572Y-16736600D01*
X64375001Y-16700885D01*
X64410715Y-16665171D01*
X64446429Y-16593742D01*
X64446429Y-16415171D01*
X64410715Y-16343742D01*
X64375001Y-16308028D01*
X64303572Y-16272314D01*
X64089286Y-16272314D01*
X64017858Y-16308028D01*
X63982143Y-16343742D01*
X24989285Y-16272314D02*
X24739285Y-16629457D01*
X24560714Y-16272314D02*
X24560714Y-17022314D01*
X24846428Y-17022314D01*
X24917857Y-16986600D01*
X24953571Y-16950885D01*
X24989285Y-16879457D01*
X24989285Y-16772314D01*
X24953571Y-16700885D01*
X24917857Y-16665171D01*
X24846428Y-16629457D01*
X24560714Y-16629457D01*
X25275000Y-16308028D02*
X25382142Y-16272314D01*
X25560714Y-16272314D01*
X25632142Y-16308028D01*
X25667857Y-16343742D01*
X25703571Y-16415171D01*
X25703571Y-16486600D01*
X25667857Y-16558028D01*
X25632142Y-16593742D01*
X25560714Y-16629457D01*
X25417857Y-16665171D01*
X25346428Y-16700885D01*
X25310714Y-16736600D01*
X25275000Y-16808028D01*
X25275000Y-16879457D01*
X25310714Y-16950885D01*
X25346428Y-16986600D01*
X25417857Y-17022314D01*
X25596428Y-17022314D01*
X25703571Y-16986600D01*
X25917857Y-17022314D02*
X26346428Y-17022314D01*
X26132142Y-16272314D02*
X26132142Y-17022314D01*
X50264286Y-16486600D02*
X50621429Y-16486600D01*
X50192858Y-16272314D02*
X50442858Y-17022314D01*
X50692858Y-16272314D01*
X50907143Y-16950885D02*
X50942858Y-16986600D01*
X51014286Y-17022314D01*
X51192858Y-17022314D01*
X51264286Y-16986600D01*
X51300001Y-16950885D01*
X51335715Y-16879457D01*
X51335715Y-16808028D01*
X51300001Y-16700885D01*
X50871429Y-16272314D01*
X51335715Y-16272314D01*
X21931429Y-17022314D02*
X22395715Y-17022314D01*
X22145715Y-16736600D01*
X22252858Y-16736600D01*
X22324286Y-16700885D01*
X22360001Y-16665171D01*
X22395715Y-16593742D01*
X22395715Y-16415171D01*
X22360001Y-16343742D01*
X22324286Y-16308028D01*
X22252858Y-16272314D01*
X22038572Y-16272314D01*
X21967143Y-16308028D01*
X21931429Y-16343742D01*
X22610001Y-17022314D02*
X22860001Y-16272314D01*
X23110001Y-17022314D01*
X23288572Y-17022314D02*
X23752858Y-17022314D01*
X23502858Y-16736600D01*
X23610001Y-16736600D01*
X23681429Y-16700885D01*
X23717143Y-16665171D01*
X23752858Y-16593742D01*
X23752858Y-16415171D01*
X23717143Y-16343742D01*
X23681429Y-16308028D01*
X23610001Y-16272314D01*
X23395715Y-16272314D01*
X23324286Y-16308028D01*
X23288572Y-16343742D01*
X64897143Y-17022314D02*
X65147143Y-16272314D01*
X65397143Y-17022314D01*
X65647143Y-16272314D02*
X65647143Y-17022314D01*
X65647143Y-16736600D02*
X65718572Y-16772314D01*
X65861429Y-16772314D01*
X65932858Y-16736600D01*
X65968572Y-16700885D01*
X66004286Y-16629457D01*
X66004286Y-16415171D01*
X65968572Y-16343742D01*
X65932858Y-16308028D01*
X65861429Y-16272314D01*
X65718572Y-16272314D01*
X65647143Y-16308028D01*
X66647143Y-16272314D02*
X66647143Y-16665171D01*
X66611429Y-16736600D01*
X66540001Y-16772314D01*
X66397143Y-16772314D01*
X66325715Y-16736600D01*
X66647143Y-16308028D02*
X66575715Y-16272314D01*
X66397143Y-16272314D01*
X66325715Y-16308028D01*
X66290001Y-16379457D01*
X66290001Y-16450885D01*
X66325715Y-16522314D01*
X66397143Y-16558028D01*
X66575715Y-16558028D01*
X66647143Y-16593742D01*
X66897143Y-16772314D02*
X67182858Y-16772314D01*
X67004286Y-17022314D02*
X67004286Y-16379457D01*
X67040001Y-16308028D01*
X67111429Y-16272314D01*
X67182858Y-16272314D01*
X32716428Y-16665171D02*
X32823571Y-16629457D01*
X32859285Y-16593742D01*
X32895000Y-16522314D01*
X32895000Y-16415171D01*
X32859285Y-16343742D01*
X32823571Y-16308028D01*
X32752142Y-16272314D01*
X32466428Y-16272314D01*
X32466428Y-17022314D01*
X32716428Y-17022314D01*
X32787857Y-16986600D01*
X32823571Y-16950885D01*
X32859285Y-16879457D01*
X32859285Y-16808028D01*
X32823571Y-16736600D01*
X32787857Y-16700885D01*
X32716428Y-16665171D01*
X32466428Y-16665171D01*
X33609285Y-16272314D02*
X33180714Y-16272314D01*
X33395000Y-16272314D02*
X33395000Y-17022314D01*
X33323571Y-16915171D01*
X33252142Y-16843742D01*
X33180714Y-16808028D01*
X27279286Y-16665171D02*
X27386429Y-16629457D01*
X27422143Y-16593742D01*
X27457858Y-16522314D01*
X27457858Y-16415171D01*
X27422143Y-16343742D01*
X27386429Y-16308028D01*
X27315001Y-16272314D01*
X27029286Y-16272314D01*
X27029286Y-17022314D01*
X27279286Y-17022314D01*
X27350715Y-16986600D01*
X27386429Y-16950885D01*
X27422143Y-16879457D01*
X27422143Y-16808028D01*
X27386429Y-16736600D01*
X27350715Y-16700885D01*
X27279286Y-16665171D01*
X27029286Y-16665171D01*
X28172143Y-16272314D02*
X27743572Y-16272314D01*
X27957858Y-16272314D02*
X27957858Y-17022314D01*
X27886429Y-16915171D01*
X27815001Y-16843742D01*
X27743572Y-16808028D01*
X28886429Y-16272314D02*
X28457858Y-16272314D01*
X28672143Y-16272314D02*
X28672143Y-17022314D01*
X28600715Y-16915171D01*
X28529286Y-16843742D01*
X28457858Y-16808028D01*
X17208571Y-16986600D02*
X17137142Y-17022314D01*
X17030000Y-17022314D01*
X16922857Y-16986600D01*
X16851428Y-16915171D01*
X16815714Y-16843742D01*
X16780000Y-16700885D01*
X16780000Y-16593742D01*
X16815714Y-16450885D01*
X16851428Y-16379457D01*
X16922857Y-16308028D01*
X17030000Y-16272314D01*
X17101428Y-16272314D01*
X17208571Y-16308028D01*
X17244285Y-16343742D01*
X17244285Y-16593742D01*
X17101428Y-16593742D01*
X17565714Y-16272314D02*
X17565714Y-17022314D01*
X17994285Y-16272314D01*
X17994285Y-17022314D01*
X18351428Y-16272314D02*
X18351428Y-17022314D01*
X18530000Y-17022314D01*
X18637142Y-16986600D01*
X18708571Y-16915171D01*
X18744285Y-16843742D01*
X18780000Y-16700885D01*
X18780000Y-16593742D01*
X18744285Y-16450885D01*
X18708571Y-16379457D01*
X18637142Y-16308028D01*
X18530000Y-16272314D01*
X18351428Y-16272314D01*
X45184286Y-16486600D02*
X45541429Y-16486600D01*
X45112858Y-16272314D02*
X45362858Y-17022314D01*
X45612858Y-16272314D01*
X46184286Y-16772314D02*
X46184286Y-16272314D01*
X46005715Y-17058028D02*
X45827143Y-16522314D01*
X46291429Y-16522314D01*
X19748571Y-16986600D02*
X19677142Y-17022314D01*
X19570000Y-17022314D01*
X19462857Y-16986600D01*
X19391428Y-16915171D01*
X19355714Y-16843742D01*
X19320000Y-16700885D01*
X19320000Y-16593742D01*
X19355714Y-16450885D01*
X19391428Y-16379457D01*
X19462857Y-16308028D01*
X19570000Y-16272314D01*
X19641428Y-16272314D01*
X19748571Y-16308028D01*
X19784285Y-16343742D01*
X19784285Y-16593742D01*
X19641428Y-16593742D01*
X20105714Y-16272314D02*
X20105714Y-17022314D01*
X20534285Y-16272314D01*
X20534285Y-17022314D01*
X20891428Y-16272314D02*
X20891428Y-17022314D01*
X21070000Y-17022314D01*
X21177142Y-16986600D01*
X21248571Y-16915171D01*
X21284285Y-16843742D01*
X21320000Y-16700885D01*
X21320000Y-16593742D01*
X21284285Y-16450885D01*
X21248571Y-16379457D01*
X21177142Y-16308028D01*
X21070000Y-16272314D01*
X20891428Y-16272314D01*
X52804286Y-16486600D02*
X53161429Y-16486600D01*
X52732858Y-16272314D02*
X52982858Y-17022314D01*
X53232858Y-16272314D01*
X53875715Y-16272314D02*
X53447143Y-16272314D01*
X53661429Y-16272314D02*
X53661429Y-17022314D01*
X53590001Y-16915171D01*
X53518572Y-16843742D01*
X53447143Y-16808028D01*
X29819286Y-16665171D02*
X29926429Y-16629457D01*
X29962143Y-16593742D01*
X29997858Y-16522314D01*
X29997858Y-16415171D01*
X29962143Y-16343742D01*
X29926429Y-16308028D01*
X29855001Y-16272314D01*
X29569286Y-16272314D01*
X29569286Y-17022314D01*
X29819286Y-17022314D01*
X29890715Y-16986600D01*
X29926429Y-16950885D01*
X29962143Y-16879457D01*
X29962143Y-16808028D01*
X29926429Y-16736600D01*
X29890715Y-16700885D01*
X29819286Y-16665171D01*
X29569286Y-16665171D01*
X30712143Y-16272314D02*
X30283572Y-16272314D01*
X30497858Y-16272314D02*
X30497858Y-17022314D01*
X30426429Y-16915171D01*
X30355001Y-16843742D01*
X30283572Y-16808028D01*
X31176429Y-17022314D02*
X31247858Y-17022314D01*
X31319286Y-16986600D01*
X31355001Y-16950885D01*
X31390715Y-16879457D01*
X31426429Y-16736600D01*
X31426429Y-16558028D01*
X31390715Y-16415171D01*
X31355001Y-16343742D01*
X31319286Y-16308028D01*
X31247858Y-16272314D01*
X31176429Y-16272314D01*
X31105001Y-16308028D01*
X31069286Y-16343742D01*
X31033572Y-16415171D01*
X30997858Y-16558028D01*
X30997858Y-16736600D01*
X31033572Y-16879457D01*
X31069286Y-16950885D01*
X31105001Y-16986600D01*
X31176429Y-17022314D01*
X47724286Y-16486600D02*
X48081429Y-16486600D01*
X47652858Y-16272314D02*
X47902858Y-17022314D01*
X48152858Y-16272314D01*
X48331429Y-17022314D02*
X48795715Y-17022314D01*
X48545715Y-16736600D01*
X48652858Y-16736600D01*
X48724286Y-16700885D01*
X48760001Y-16665171D01*
X48795715Y-16593742D01*
X48795715Y-16415171D01*
X48760001Y-16343742D01*
X48724286Y-16308028D01*
X48652858Y-16272314D01*
X48438572Y-16272314D01*
X48367143Y-16308028D01*
X48331429Y-16343742D01*
X55344286Y-16486600D02*
X55701429Y-16486600D01*
X55272858Y-16272314D02*
X55522858Y-17022314D01*
X55772858Y-16272314D01*
X56165715Y-17022314D02*
X56237143Y-17022314D01*
X56308572Y-16986600D01*
X56344286Y-16950885D01*
X56380001Y-16879457D01*
X56415715Y-16736600D01*
X56415715Y-16558028D01*
X56380001Y-16415171D01*
X56344286Y-16343742D01*
X56308572Y-16308028D01*
X56237143Y-16272314D01*
X56165715Y-16272314D01*
X56094286Y-16308028D01*
X56058572Y-16343742D01*
X56022858Y-16415171D01*
X55987143Y-16558028D01*
X55987143Y-16736600D01*
X56022858Y-16879457D01*
X56058572Y-16950885D01*
X56094286Y-16986600D01*
X56165715Y-17022314D01*
X37564286Y-16486600D02*
X37921429Y-16486600D01*
X37492858Y-16272314D02*
X37742858Y-17022314D01*
X37992858Y-16272314D01*
X38171429Y-17022314D02*
X38671429Y-17022314D01*
X38350001Y-16272314D01*
X42644286Y-16486600D02*
X43001429Y-16486600D01*
X42572858Y-16272314D02*
X42822858Y-17022314D01*
X43072858Y-16272314D01*
X43680001Y-17022314D02*
X43322858Y-17022314D01*
X43287143Y-16665171D01*
X43322858Y-16700885D01*
X43394286Y-16736600D01*
X43572858Y-16736600D01*
X43644286Y-16700885D01*
X43680001Y-16665171D01*
X43715715Y-16593742D01*
X43715715Y-16415171D01*
X43680001Y-16343742D01*
X43644286Y-16308028D01*
X43572858Y-16272314D01*
X43394286Y-16272314D01*
X43322858Y-16308028D01*
X43287143Y-16343742D01*
X48563571Y-36598628D02*
X48456428Y-36634342D01*
X48420714Y-36670057D01*
X48385000Y-36741485D01*
X48385000Y-36848628D01*
X48420714Y-36920057D01*
X48456428Y-36955771D01*
X48527857Y-36991485D01*
X48813571Y-36991485D01*
X48813571Y-36241485D01*
X48563571Y-36241485D01*
X48492142Y-36277200D01*
X48456428Y-36312914D01*
X48420714Y-36384342D01*
X48420714Y-36455771D01*
X48456428Y-36527200D01*
X48492142Y-36562914D01*
X48563571Y-36598628D01*
X48813571Y-36598628D01*
X47706428Y-36241485D02*
X48063571Y-36241485D01*
X48099285Y-36598628D01*
X48063571Y-36562914D01*
X47992142Y-36527200D01*
X47813571Y-36527200D01*
X47742142Y-36562914D01*
X47706428Y-36598628D01*
X47670714Y-36670057D01*
X47670714Y-36848628D01*
X47706428Y-36920057D01*
X47742142Y-36955771D01*
X47813571Y-36991485D01*
X47992142Y-36991485D01*
X48063571Y-36955771D01*
X48099285Y-36920057D01*
X26060714Y-36598628D02*
X25953571Y-36634342D01*
X25917857Y-36670057D01*
X25882142Y-36741485D01*
X25882142Y-36848628D01*
X25917857Y-36920057D01*
X25953571Y-36955771D01*
X26025000Y-36991485D01*
X26310714Y-36991485D01*
X26310714Y-36241485D01*
X26060714Y-36241485D01*
X25989285Y-36277200D01*
X25953571Y-36312914D01*
X25917857Y-36384342D01*
X25917857Y-36455771D01*
X25953571Y-36527200D01*
X25989285Y-36562914D01*
X26060714Y-36598628D01*
X26310714Y-36598628D01*
X25167857Y-36991485D02*
X25596428Y-36991485D01*
X25382142Y-36991485D02*
X25382142Y-36241485D01*
X25453571Y-36348628D01*
X25525000Y-36420057D01*
X25596428Y-36455771D01*
X24489285Y-36241485D02*
X24846428Y-36241485D01*
X24882142Y-36598628D01*
X24846428Y-36562914D01*
X24775000Y-36527200D01*
X24596428Y-36527200D01*
X24525000Y-36562914D01*
X24489285Y-36598628D01*
X24453571Y-36670057D01*
X24453571Y-36848628D01*
X24489285Y-36920057D01*
X24525000Y-36955771D01*
X24596428Y-36991485D01*
X24775000Y-36991485D01*
X24846428Y-36955771D01*
X24882142Y-36920057D01*
X18440714Y-36598628D02*
X18333571Y-36634342D01*
X18297857Y-36670057D01*
X18262142Y-36741485D01*
X18262142Y-36848628D01*
X18297857Y-36920057D01*
X18333571Y-36955771D01*
X18405000Y-36991485D01*
X18690714Y-36991485D01*
X18690714Y-36241485D01*
X18440714Y-36241485D01*
X18369285Y-36277200D01*
X18333571Y-36312914D01*
X18297857Y-36384342D01*
X18297857Y-36455771D01*
X18333571Y-36527200D01*
X18369285Y-36562914D01*
X18440714Y-36598628D01*
X18690714Y-36598628D01*
X17547857Y-36991485D02*
X17976428Y-36991485D01*
X17762142Y-36991485D02*
X17762142Y-36241485D01*
X17833571Y-36348628D01*
X17905000Y-36420057D01*
X17976428Y-36455771D01*
X17262142Y-36312914D02*
X17226428Y-36277200D01*
X17155000Y-36241485D01*
X16976428Y-36241485D01*
X16905000Y-36277200D01*
X16869285Y-36312914D01*
X16833571Y-36384342D01*
X16833571Y-36455771D01*
X16869285Y-36562914D01*
X17297857Y-36991485D01*
X16833571Y-36991485D01*
X61924285Y-36705771D02*
X61352857Y-36705771D01*
X61638571Y-36991485D02*
X61638571Y-36420057D01*
X60638571Y-36241485D02*
X60995714Y-36241485D01*
X61031428Y-36598628D01*
X60995714Y-36562914D01*
X60924285Y-36527200D01*
X60745714Y-36527200D01*
X60674285Y-36562914D01*
X60638571Y-36598628D01*
X60602857Y-36670057D01*
X60602857Y-36848628D01*
X60638571Y-36920057D01*
X60674285Y-36955771D01*
X60745714Y-36991485D01*
X60924285Y-36991485D01*
X60995714Y-36955771D01*
X61031428Y-36920057D01*
X60388571Y-36241485D02*
X60138571Y-36991485D01*
X59888571Y-36241485D01*
X41532857Y-36777200D02*
X41175714Y-36777200D01*
X41604285Y-36991485D02*
X41354285Y-36241485D01*
X41104285Y-36991485D01*
X40461428Y-36991485D02*
X40890000Y-36991485D01*
X40675714Y-36991485D02*
X40675714Y-36241485D01*
X40747142Y-36348628D01*
X40818571Y-36420057D01*
X40890000Y-36455771D01*
X39782857Y-36241485D02*
X40140000Y-36241485D01*
X40175714Y-36598628D01*
X40140000Y-36562914D01*
X40068571Y-36527200D01*
X39890000Y-36527200D01*
X39818571Y-36562914D01*
X39782857Y-36598628D01*
X39747142Y-36670057D01*
X39747142Y-36848628D01*
X39782857Y-36920057D01*
X39818571Y-36955771D01*
X39890000Y-36991485D01*
X40068571Y-36991485D01*
X40140000Y-36955771D01*
X40175714Y-36920057D01*
X43483571Y-36598628D02*
X43376428Y-36634342D01*
X43340714Y-36670057D01*
X43305000Y-36741485D01*
X43305000Y-36848628D01*
X43340714Y-36920057D01*
X43376428Y-36955771D01*
X43447857Y-36991485D01*
X43733571Y-36991485D01*
X43733571Y-36241485D01*
X43483571Y-36241485D01*
X43412142Y-36277200D01*
X43376428Y-36312914D01*
X43340714Y-36384342D01*
X43340714Y-36455771D01*
X43376428Y-36527200D01*
X43412142Y-36562914D01*
X43483571Y-36598628D01*
X43733571Y-36598628D01*
X43055000Y-36241485D02*
X42590714Y-36241485D01*
X42840714Y-36527200D01*
X42733571Y-36527200D01*
X42662142Y-36562914D01*
X42626428Y-36598628D01*
X42590714Y-36670057D01*
X42590714Y-36848628D01*
X42626428Y-36920057D01*
X42662142Y-36955771D01*
X42733571Y-36991485D01*
X42947857Y-36991485D01*
X43019285Y-36955771D01*
X43055000Y-36920057D01*
X20980714Y-36598628D02*
X20873571Y-36634342D01*
X20837857Y-36670057D01*
X20802142Y-36741485D01*
X20802142Y-36848628D01*
X20837857Y-36920057D01*
X20873571Y-36955771D01*
X20945000Y-36991485D01*
X21230714Y-36991485D01*
X21230714Y-36241485D01*
X20980714Y-36241485D01*
X20909285Y-36277200D01*
X20873571Y-36312914D01*
X20837857Y-36384342D01*
X20837857Y-36455771D01*
X20873571Y-36527200D01*
X20909285Y-36562914D01*
X20980714Y-36598628D01*
X21230714Y-36598628D01*
X20087857Y-36991485D02*
X20516428Y-36991485D01*
X20302142Y-36991485D02*
X20302142Y-36241485D01*
X20373571Y-36348628D01*
X20445000Y-36420057D01*
X20516428Y-36455771D01*
X19837857Y-36241485D02*
X19373571Y-36241485D01*
X19623571Y-36527200D01*
X19516428Y-36527200D01*
X19445000Y-36562914D01*
X19409285Y-36598628D01*
X19373571Y-36670057D01*
X19373571Y-36848628D01*
X19409285Y-36920057D01*
X19445000Y-36955771D01*
X19516428Y-36991485D01*
X19730714Y-36991485D01*
X19802142Y-36955771D01*
X19837857Y-36920057D01*
X38992857Y-36777200D02*
X38635714Y-36777200D01*
X39064285Y-36991485D02*
X38814285Y-36241485D01*
X38564285Y-36991485D01*
X37921428Y-36991485D02*
X38350000Y-36991485D01*
X38135714Y-36991485D02*
X38135714Y-36241485D01*
X38207142Y-36348628D01*
X38278571Y-36420057D01*
X38350000Y-36455771D01*
X37635714Y-36312914D02*
X37600000Y-36277200D01*
X37528571Y-36241485D01*
X37350000Y-36241485D01*
X37278571Y-36277200D01*
X37242857Y-36312914D01*
X37207142Y-36384342D01*
X37207142Y-36455771D01*
X37242857Y-36562914D01*
X37671428Y-36991485D01*
X37207142Y-36991485D01*
X53643571Y-36598628D02*
X53536428Y-36634342D01*
X53500714Y-36670057D01*
X53465000Y-36741485D01*
X53465000Y-36848628D01*
X53500714Y-36920057D01*
X53536428Y-36955771D01*
X53607857Y-36991485D01*
X53893571Y-36991485D01*
X53893571Y-36241485D01*
X53643571Y-36241485D01*
X53572142Y-36277200D01*
X53536428Y-36312914D01*
X53500714Y-36384342D01*
X53500714Y-36455771D01*
X53536428Y-36527200D01*
X53572142Y-36562914D01*
X53643571Y-36598628D01*
X53893571Y-36598628D01*
X53215000Y-36241485D02*
X52715000Y-36241485D01*
X53036428Y-36991485D01*
X46023571Y-36598628D02*
X45916428Y-36634342D01*
X45880714Y-36670057D01*
X45845000Y-36741485D01*
X45845000Y-36848628D01*
X45880714Y-36920057D01*
X45916428Y-36955771D01*
X45987857Y-36991485D01*
X46273571Y-36991485D01*
X46273571Y-36241485D01*
X46023571Y-36241485D01*
X45952142Y-36277200D01*
X45916428Y-36312914D01*
X45880714Y-36384342D01*
X45880714Y-36455771D01*
X45916428Y-36527200D01*
X45952142Y-36562914D01*
X46023571Y-36598628D01*
X46273571Y-36598628D01*
X45202142Y-36491485D02*
X45202142Y-36991485D01*
X45380714Y-36205771D02*
X45559285Y-36741485D01*
X45095000Y-36741485D01*
X58723571Y-36598628D02*
X58616428Y-36634342D01*
X58580714Y-36670057D01*
X58545000Y-36741485D01*
X58545000Y-36848628D01*
X58580714Y-36920057D01*
X58616428Y-36955771D01*
X58687857Y-36991485D01*
X58973571Y-36991485D01*
X58973571Y-36241485D01*
X58723571Y-36241485D01*
X58652142Y-36277200D01*
X58616428Y-36312914D01*
X58580714Y-36384342D01*
X58580714Y-36455771D01*
X58616428Y-36527200D01*
X58652142Y-36562914D01*
X58723571Y-36598628D01*
X58973571Y-36598628D01*
X58187857Y-36991485D02*
X58045000Y-36991485D01*
X57973571Y-36955771D01*
X57937857Y-36920057D01*
X57866428Y-36812914D01*
X57830714Y-36670057D01*
X57830714Y-36384342D01*
X57866428Y-36312914D01*
X57902142Y-36277200D01*
X57973571Y-36241485D01*
X58116428Y-36241485D01*
X58187857Y-36277200D01*
X58223571Y-36312914D01*
X58259285Y-36384342D01*
X58259285Y-36562914D01*
X58223571Y-36634342D01*
X58187857Y-36670057D01*
X58116428Y-36705771D01*
X57973571Y-36705771D01*
X57902142Y-36670057D01*
X57866428Y-36634342D01*
X57830714Y-36562914D01*
X64071428Y-36277200D02*
X64142857Y-36241485D01*
X64250000Y-36241485D01*
X64357142Y-36277200D01*
X64428571Y-36348628D01*
X64464285Y-36420057D01*
X64500000Y-36562914D01*
X64500000Y-36670057D01*
X64464285Y-36812914D01*
X64428571Y-36884342D01*
X64357142Y-36955771D01*
X64250000Y-36991485D01*
X64178571Y-36991485D01*
X64071428Y-36955771D01*
X64035714Y-36920057D01*
X64035714Y-36670057D01*
X64178571Y-36670057D01*
X63714285Y-36991485D02*
X63714285Y-36241485D01*
X63285714Y-36991485D01*
X63285714Y-36241485D01*
X62928571Y-36991485D02*
X62928571Y-36241485D01*
X62750000Y-36241485D01*
X62642857Y-36277200D01*
X62571428Y-36348628D01*
X62535714Y-36420057D01*
X62500000Y-36562914D01*
X62500000Y-36670057D01*
X62535714Y-36812914D01*
X62571428Y-36884342D01*
X62642857Y-36955771D01*
X62750000Y-36991485D01*
X62928571Y-36991485D01*
X23520714Y-36598628D02*
X23413571Y-36634342D01*
X23377857Y-36670057D01*
X23342142Y-36741485D01*
X23342142Y-36848628D01*
X23377857Y-36920057D01*
X23413571Y-36955771D01*
X23485000Y-36991485D01*
X23770714Y-36991485D01*
X23770714Y-36241485D01*
X23520714Y-36241485D01*
X23449285Y-36277200D01*
X23413571Y-36312914D01*
X23377857Y-36384342D01*
X23377857Y-36455771D01*
X23413571Y-36527200D01*
X23449285Y-36562914D01*
X23520714Y-36598628D01*
X23770714Y-36598628D01*
X22627857Y-36991485D02*
X23056428Y-36991485D01*
X22842142Y-36991485D02*
X22842142Y-36241485D01*
X22913571Y-36348628D01*
X22985000Y-36420057D01*
X23056428Y-36455771D01*
X21985000Y-36491485D02*
X21985000Y-36991485D01*
X22163571Y-36205771D02*
X22342142Y-36741485D01*
X21877857Y-36741485D01*
X33912857Y-36777200D02*
X33555714Y-36777200D01*
X33984285Y-36991485D02*
X33734285Y-36241485D01*
X33484285Y-36991485D01*
X32841428Y-36991485D02*
X33270000Y-36991485D01*
X33055714Y-36991485D02*
X33055714Y-36241485D01*
X33127142Y-36348628D01*
X33198571Y-36420057D01*
X33270000Y-36455771D01*
X32377142Y-36241485D02*
X32305714Y-36241485D01*
X32234285Y-36277200D01*
X32198571Y-36312914D01*
X32162857Y-36384342D01*
X32127142Y-36527200D01*
X32127142Y-36705771D01*
X32162857Y-36848628D01*
X32198571Y-36920057D01*
X32234285Y-36955771D01*
X32305714Y-36991485D01*
X32377142Y-36991485D01*
X32448571Y-36955771D01*
X32484285Y-36920057D01*
X32520000Y-36848628D01*
X32555714Y-36705771D01*
X32555714Y-36527200D01*
X32520000Y-36384342D01*
X32484285Y-36312914D01*
X32448571Y-36277200D01*
X32377142Y-36241485D01*
X31015714Y-36777200D02*
X30658571Y-36777200D01*
X31087142Y-36991485D02*
X30837142Y-36241485D01*
X30587142Y-36991485D01*
X30301428Y-36991485D02*
X30158571Y-36991485D01*
X30087142Y-36955771D01*
X30051428Y-36920057D01*
X29980000Y-36812914D01*
X29944285Y-36670057D01*
X29944285Y-36384342D01*
X29980000Y-36312914D01*
X30015714Y-36277200D01*
X30087142Y-36241485D01*
X30230000Y-36241485D01*
X30301428Y-36277200D01*
X30337142Y-36312914D01*
X30372857Y-36384342D01*
X30372857Y-36562914D01*
X30337142Y-36634342D01*
X30301428Y-36670057D01*
X30230000Y-36705771D01*
X30087142Y-36705771D01*
X30015714Y-36670057D01*
X29980000Y-36634342D01*
X29944285Y-36562914D01*
X51103571Y-36598628D02*
X50996428Y-36634342D01*
X50960714Y-36670057D01*
X50925000Y-36741485D01*
X50925000Y-36848628D01*
X50960714Y-36920057D01*
X50996428Y-36955771D01*
X51067857Y-36991485D01*
X51353571Y-36991485D01*
X51353571Y-36241485D01*
X51103571Y-36241485D01*
X51032142Y-36277200D01*
X50996428Y-36312914D01*
X50960714Y-36384342D01*
X50960714Y-36455771D01*
X50996428Y-36527200D01*
X51032142Y-36562914D01*
X51103571Y-36598628D01*
X51353571Y-36598628D01*
X50282142Y-36241485D02*
X50425000Y-36241485D01*
X50496428Y-36277200D01*
X50532142Y-36312914D01*
X50603571Y-36420057D01*
X50639285Y-36562914D01*
X50639285Y-36848628D01*
X50603571Y-36920057D01*
X50567857Y-36955771D01*
X50496428Y-36991485D01*
X50353571Y-36991485D01*
X50282142Y-36955771D01*
X50246428Y-36920057D01*
X50210714Y-36848628D01*
X50210714Y-36670057D01*
X50246428Y-36598628D01*
X50282142Y-36562914D01*
X50353571Y-36527200D01*
X50496428Y-36527200D01*
X50567857Y-36562914D01*
X50603571Y-36598628D01*
X50639285Y-36670057D01*
X66968571Y-36241485D02*
X66504285Y-36241485D01*
X66754285Y-36527200D01*
X66647142Y-36527200D01*
X66575714Y-36562914D01*
X66540000Y-36598628D01*
X66504285Y-36670057D01*
X66504285Y-36848628D01*
X66540000Y-36920057D01*
X66575714Y-36955771D01*
X66647142Y-36991485D01*
X66861428Y-36991485D01*
X66932857Y-36955771D01*
X66968571Y-36920057D01*
X66290000Y-36241485D02*
X66040000Y-36991485D01*
X65790000Y-36241485D01*
X65611428Y-36241485D02*
X65147142Y-36241485D01*
X65397142Y-36527200D01*
X65290000Y-36527200D01*
X65218571Y-36562914D01*
X65182857Y-36598628D01*
X65147142Y-36670057D01*
X65147142Y-36848628D01*
X65182857Y-36920057D01*
X65218571Y-36955771D01*
X65290000Y-36991485D01*
X65504285Y-36991485D01*
X65575714Y-36955771D01*
X65611428Y-36920057D01*
X28475714Y-36777200D02*
X28118571Y-36777200D01*
X28547142Y-36991485D02*
X28297142Y-36241485D01*
X28047142Y-36991485D01*
X27690000Y-36562914D02*
X27761428Y-36527200D01*
X27797142Y-36491485D01*
X27832857Y-36420057D01*
X27832857Y-36384342D01*
X27797142Y-36312914D01*
X27761428Y-36277200D01*
X27690000Y-36241485D01*
X27547142Y-36241485D01*
X27475714Y-36277200D01*
X27440000Y-36312914D01*
X27404285Y-36384342D01*
X27404285Y-36420057D01*
X27440000Y-36491485D01*
X27475714Y-36527200D01*
X27547142Y-36562914D01*
X27690000Y-36562914D01*
X27761428Y-36598628D01*
X27797142Y-36634342D01*
X27832857Y-36705771D01*
X27832857Y-36848628D01*
X27797142Y-36920057D01*
X27761428Y-36955771D01*
X27690000Y-36991485D01*
X27547142Y-36991485D01*
X27475714Y-36955771D01*
X27440000Y-36920057D01*
X27404285Y-36848628D01*
X27404285Y-36705771D01*
X27440000Y-36634342D01*
X27475714Y-36598628D01*
X27547142Y-36562914D01*
X36452857Y-36777200D02*
X36095714Y-36777200D01*
X36524285Y-36991485D02*
X36274285Y-36241485D01*
X36024285Y-36991485D01*
X35381428Y-36991485D02*
X35810000Y-36991485D01*
X35595714Y-36991485D02*
X35595714Y-36241485D01*
X35667142Y-36348628D01*
X35738571Y-36420057D01*
X35810000Y-36455771D01*
X34667142Y-36991485D02*
X35095714Y-36991485D01*
X34881428Y-36991485D02*
X34881428Y-36241485D01*
X34952857Y-36348628D01*
X35024285Y-36420057D01*
X35095714Y-36455771D01*
X56183571Y-36598628D02*
X56076428Y-36634342D01*
X56040714Y-36670057D01*
X56005000Y-36741485D01*
X56005000Y-36848628D01*
X56040714Y-36920057D01*
X56076428Y-36955771D01*
X56147857Y-36991485D01*
X56433571Y-36991485D01*
X56433571Y-36241485D01*
X56183571Y-36241485D01*
X56112142Y-36277200D01*
X56076428Y-36312914D01*
X56040714Y-36384342D01*
X56040714Y-36455771D01*
X56076428Y-36527200D01*
X56112142Y-36562914D01*
X56183571Y-36598628D01*
X56433571Y-36598628D01*
X55576428Y-36562914D02*
X55647857Y-36527200D01*
X55683571Y-36491485D01*
X55719285Y-36420057D01*
X55719285Y-36384342D01*
X55683571Y-36312914D01*
X55647857Y-36277200D01*
X55576428Y-36241485D01*
X55433571Y-36241485D01*
X55362142Y-36277200D01*
X55326428Y-36312914D01*
X55290714Y-36384342D01*
X55290714Y-36420057D01*
X55326428Y-36491485D01*
X55362142Y-36527200D01*
X55433571Y-36562914D01*
X55576428Y-36562914D01*
X55647857Y-36598628D01*
X55683571Y-36634342D01*
X55719285Y-36705771D01*
X55719285Y-36848628D01*
X55683571Y-36920057D01*
X55647857Y-36955771D01*
X55576428Y-36991485D01*
X55433571Y-36991485D01*
X55362142Y-36955771D01*
X55326428Y-36920057D01*
X55290714Y-36848628D01*
X55290714Y-36705771D01*
X55326428Y-36634342D01*
X55362142Y-36598628D01*
X55433571Y-36562914D01*
X62776028Y-30115000D02*
X62847457Y-30079285D01*
X62954600Y-30079285D01*
X63061742Y-30115000D01*
X63133171Y-30186428D01*
X63168885Y-30257857D01*
X63204600Y-30400714D01*
X63204600Y-30507857D01*
X63168885Y-30650714D01*
X63133171Y-30722142D01*
X63061742Y-30793571D01*
X62954600Y-30829285D01*
X62883171Y-30829285D01*
X62776028Y-30793571D01*
X62740314Y-30757857D01*
X62740314Y-30507857D01*
X62883171Y-30507857D01*
X62418885Y-30829285D02*
X62418885Y-30079285D01*
X61990314Y-30829285D01*
X61990314Y-30079285D01*
X61633171Y-30829285D02*
X61633171Y-30079285D01*
X61454600Y-30079285D01*
X61347457Y-30115000D01*
X61276028Y-30186428D01*
X61240314Y-30257857D01*
X61204600Y-30400714D01*
X61204600Y-30507857D01*
X61240314Y-30650714D01*
X61276028Y-30722142D01*
X61347457Y-30793571D01*
X61454600Y-30829285D01*
X61633171Y-30829285D01*
X62651028Y-28217857D02*
X62686742Y-28253571D01*
X62793885Y-28289285D01*
X62865314Y-28289285D01*
X62972457Y-28253571D01*
X63043885Y-28182142D01*
X63079600Y-28110714D01*
X63115314Y-27967857D01*
X63115314Y-27860714D01*
X63079600Y-27717857D01*
X63043885Y-27646428D01*
X62972457Y-27575000D01*
X62865314Y-27539285D01*
X62793885Y-27539285D01*
X62686742Y-27575000D01*
X62651028Y-27610714D01*
X61972457Y-28289285D02*
X62329600Y-28289285D01*
X62329600Y-27539285D01*
X61722457Y-28289285D02*
X61722457Y-27539285D01*
X61293885Y-28289285D02*
X61615314Y-27860714D01*
X61293885Y-27539285D02*
X61722457Y-27967857D01*
X62972457Y-25749285D02*
X62972457Y-24999285D01*
X62793885Y-24999285D01*
X62686742Y-25035000D01*
X62615314Y-25106428D01*
X62579600Y-25177857D01*
X62543885Y-25320714D01*
X62543885Y-25427857D01*
X62579600Y-25570714D01*
X62615314Y-25642142D01*
X62686742Y-25713571D01*
X62793885Y-25749285D01*
X62972457Y-25749285D01*
X62222457Y-25749285D02*
X62222457Y-24999285D01*
X61722457Y-24999285D02*
X61579600Y-24999285D01*
X61508171Y-25035000D01*
X61436742Y-25106428D01*
X61401028Y-25249285D01*
X61401028Y-25499285D01*
X61436742Y-25642142D01*
X61508171Y-25713571D01*
X61579600Y-25749285D01*
X61722457Y-25749285D01*
X61793885Y-25713571D01*
X61865314Y-25642142D01*
X61901028Y-25499285D01*
X61901028Y-25249285D01*
X61865314Y-25106428D01*
X61793885Y-25035000D01*
X61722457Y-24999285D01*
X63133171Y-22459285D02*
X62668885Y-22459285D01*
X62918885Y-22745000D01*
X62811742Y-22745000D01*
X62740314Y-22780714D01*
X62704600Y-22816428D01*
X62668885Y-22887857D01*
X62668885Y-23066428D01*
X62704600Y-23137857D01*
X62740314Y-23173571D01*
X62811742Y-23209285D01*
X63026028Y-23209285D01*
X63097457Y-23173571D01*
X63133171Y-23137857D01*
X62454600Y-22459285D02*
X62204600Y-23209285D01*
X61954600Y-22459285D01*
X61776028Y-22459285D02*
X61311742Y-22459285D01*
X61561742Y-22745000D01*
X61454600Y-22745000D01*
X61383171Y-22780714D01*
X61347457Y-22816428D01*
X61311742Y-22887857D01*
X61311742Y-23066428D01*
X61347457Y-23137857D01*
X61383171Y-23173571D01*
X61454600Y-23209285D01*
X61668885Y-23209285D01*
X61740314Y-23173571D01*
X61776028Y-23137857D01*
%TO.C,R1*%
X30260800Y-21599085D02*
X30510800Y-21241942D01*
X30689371Y-21599085D02*
X30689371Y-20849085D01*
X30403657Y-20849085D01*
X30332228Y-20884800D01*
X30296514Y-20920514D01*
X30260800Y-20991942D01*
X30260800Y-21099085D01*
X30296514Y-21170514D01*
X30332228Y-21206228D01*
X30403657Y-21241942D01*
X30689371Y-21241942D01*
X29546514Y-21599085D02*
X29975085Y-21599085D01*
X29760800Y-21599085D02*
X29760800Y-20849085D01*
X29832228Y-20956228D01*
X29903657Y-21027657D01*
X29975085Y-21063371D01*
%TO.C,C7*%
X47318200Y-28792057D02*
X47353914Y-28827771D01*
X47461057Y-28863485D01*
X47532485Y-28863485D01*
X47639628Y-28827771D01*
X47711057Y-28756342D01*
X47746771Y-28684914D01*
X47782485Y-28542057D01*
X47782485Y-28434914D01*
X47746771Y-28292057D01*
X47711057Y-28220628D01*
X47639628Y-28149200D01*
X47532485Y-28113485D01*
X47461057Y-28113485D01*
X47353914Y-28149200D01*
X47318200Y-28184914D01*
X47068200Y-28113485D02*
X46568200Y-28113485D01*
X46889628Y-28863485D01*
%TO.C,C9*%
X43101800Y-29096857D02*
X43137514Y-29132571D01*
X43244657Y-29168285D01*
X43316085Y-29168285D01*
X43423228Y-29132571D01*
X43494657Y-29061142D01*
X43530371Y-28989714D01*
X43566085Y-28846857D01*
X43566085Y-28739714D01*
X43530371Y-28596857D01*
X43494657Y-28525428D01*
X43423228Y-28454000D01*
X43316085Y-28418285D01*
X43244657Y-28418285D01*
X43137514Y-28454000D01*
X43101800Y-28489714D01*
X42744657Y-29168285D02*
X42601800Y-29168285D01*
X42530371Y-29132571D01*
X42494657Y-29096857D01*
X42423228Y-28989714D01*
X42387514Y-28846857D01*
X42387514Y-28561142D01*
X42423228Y-28489714D01*
X42458942Y-28454000D01*
X42530371Y-28418285D01*
X42673228Y-28418285D01*
X42744657Y-28454000D01*
X42780371Y-28489714D01*
X42816085Y-28561142D01*
X42816085Y-28739714D01*
X42780371Y-28811142D01*
X42744657Y-28846857D01*
X42673228Y-28882571D01*
X42530371Y-28882571D01*
X42458942Y-28846857D01*
X42423228Y-28811142D01*
X42387514Y-28739714D01*
%TO.C,C5*%
X26845800Y-26125057D02*
X26881514Y-26160771D01*
X26988657Y-26196485D01*
X27060085Y-26196485D01*
X27167228Y-26160771D01*
X27238657Y-26089342D01*
X27274371Y-26017914D01*
X27310085Y-25875057D01*
X27310085Y-25767914D01*
X27274371Y-25625057D01*
X27238657Y-25553628D01*
X27167228Y-25482200D01*
X27060085Y-25446485D01*
X26988657Y-25446485D01*
X26881514Y-25482200D01*
X26845800Y-25517914D01*
X26167228Y-25446485D02*
X26524371Y-25446485D01*
X26560085Y-25803628D01*
X26524371Y-25767914D01*
X26452942Y-25732200D01*
X26274371Y-25732200D01*
X26202942Y-25767914D01*
X26167228Y-25803628D01*
X26131514Y-25875057D01*
X26131514Y-26053628D01*
X26167228Y-26125057D01*
X26202942Y-26160771D01*
X26274371Y-26196485D01*
X26452942Y-26196485D01*
X26524371Y-26160771D01*
X26560085Y-26125057D01*
%TO.C,C6*%
X51255200Y-30620857D02*
X51290914Y-30656571D01*
X51398057Y-30692285D01*
X51469485Y-30692285D01*
X51576628Y-30656571D01*
X51648057Y-30585142D01*
X51683771Y-30513714D01*
X51719485Y-30370857D01*
X51719485Y-30263714D01*
X51683771Y-30120857D01*
X51648057Y-30049428D01*
X51576628Y-29978000D01*
X51469485Y-29942285D01*
X51398057Y-29942285D01*
X51290914Y-29978000D01*
X51255200Y-30013714D01*
X50612342Y-29942285D02*
X50755200Y-29942285D01*
X50826628Y-29978000D01*
X50862342Y-30013714D01*
X50933771Y-30120857D01*
X50969485Y-30263714D01*
X50969485Y-30549428D01*
X50933771Y-30620857D01*
X50898057Y-30656571D01*
X50826628Y-30692285D01*
X50683771Y-30692285D01*
X50612342Y-30656571D01*
X50576628Y-30620857D01*
X50540914Y-30549428D01*
X50540914Y-30370857D01*
X50576628Y-30299428D01*
X50612342Y-30263714D01*
X50683771Y-30228000D01*
X50826628Y-30228000D01*
X50898057Y-30263714D01*
X50933771Y-30299428D01*
X50969485Y-30370857D01*
%TO.C,C12*%
X47776942Y-24829657D02*
X47812657Y-24865371D01*
X47919800Y-24901085D01*
X47991228Y-24901085D01*
X48098371Y-24865371D01*
X48169800Y-24793942D01*
X48205514Y-24722514D01*
X48241228Y-24579657D01*
X48241228Y-24472514D01*
X48205514Y-24329657D01*
X48169800Y-24258228D01*
X48098371Y-24186800D01*
X47991228Y-24151085D01*
X47919800Y-24151085D01*
X47812657Y-24186800D01*
X47776942Y-24222514D01*
X47062657Y-24901085D02*
X47491228Y-24901085D01*
X47276942Y-24901085D02*
X47276942Y-24151085D01*
X47348371Y-24258228D01*
X47419800Y-24329657D01*
X47491228Y-24365371D01*
X46776942Y-24222514D02*
X46741228Y-24186800D01*
X46669800Y-24151085D01*
X46491228Y-24151085D01*
X46419800Y-24186800D01*
X46384085Y-24222514D01*
X46348371Y-24293942D01*
X46348371Y-24365371D01*
X46384085Y-24472514D01*
X46812657Y-24901085D01*
X46348371Y-24901085D01*
%TO.C,R2*%
X37525200Y-25485285D02*
X37775200Y-25128142D01*
X37953771Y-25485285D02*
X37953771Y-24735285D01*
X37668057Y-24735285D01*
X37596628Y-24771000D01*
X37560914Y-24806714D01*
X37525200Y-24878142D01*
X37525200Y-24985285D01*
X37560914Y-25056714D01*
X37596628Y-25092428D01*
X37668057Y-25128142D01*
X37953771Y-25128142D01*
X37239485Y-24806714D02*
X37203771Y-24771000D01*
X37132342Y-24735285D01*
X36953771Y-24735285D01*
X36882342Y-24771000D01*
X36846628Y-24806714D01*
X36810914Y-24878142D01*
X36810914Y-24949571D01*
X36846628Y-25056714D01*
X37275200Y-25485285D01*
X36810914Y-25485285D01*
%TO.C,C1*%
X26820400Y-29630257D02*
X26856114Y-29665971D01*
X26963257Y-29701685D01*
X27034685Y-29701685D01*
X27141828Y-29665971D01*
X27213257Y-29594542D01*
X27248971Y-29523114D01*
X27284685Y-29380257D01*
X27284685Y-29273114D01*
X27248971Y-29130257D01*
X27213257Y-29058828D01*
X27141828Y-28987400D01*
X27034685Y-28951685D01*
X26963257Y-28951685D01*
X26856114Y-28987400D01*
X26820400Y-29023114D01*
X26106114Y-29701685D02*
X26534685Y-29701685D01*
X26320400Y-29701685D02*
X26320400Y-28951685D01*
X26391828Y-29058828D01*
X26463257Y-29130257D01*
X26534685Y-29165971D01*
%TO.C,C8*%
X59915000Y-27191857D02*
X59950714Y-27227571D01*
X60057857Y-27263285D01*
X60129285Y-27263285D01*
X60236428Y-27227571D01*
X60307857Y-27156142D01*
X60343571Y-27084714D01*
X60379285Y-26941857D01*
X60379285Y-26834714D01*
X60343571Y-26691857D01*
X60307857Y-26620428D01*
X60236428Y-26549000D01*
X60129285Y-26513285D01*
X60057857Y-26513285D01*
X59950714Y-26549000D01*
X59915000Y-26584714D01*
X59486428Y-26834714D02*
X59557857Y-26799000D01*
X59593571Y-26763285D01*
X59629285Y-26691857D01*
X59629285Y-26656142D01*
X59593571Y-26584714D01*
X59557857Y-26549000D01*
X59486428Y-26513285D01*
X59343571Y-26513285D01*
X59272142Y-26549000D01*
X59236428Y-26584714D01*
X59200714Y-26656142D01*
X59200714Y-26691857D01*
X59236428Y-26763285D01*
X59272142Y-26799000D01*
X59343571Y-26834714D01*
X59486428Y-26834714D01*
X59557857Y-26870428D01*
X59593571Y-26906142D01*
X59629285Y-26977571D01*
X59629285Y-27120428D01*
X59593571Y-27191857D01*
X59557857Y-27227571D01*
X59486428Y-27263285D01*
X59343571Y-27263285D01*
X59272142Y-27227571D01*
X59236428Y-27191857D01*
X59200714Y-27120428D01*
X59200714Y-26977571D01*
X59236428Y-26906142D01*
X59272142Y-26870428D01*
X59343571Y-26834714D01*
%TO.C,C3*%
X51407600Y-25896457D02*
X51443314Y-25932171D01*
X51550457Y-25967885D01*
X51621885Y-25967885D01*
X51729028Y-25932171D01*
X51800457Y-25860742D01*
X51836171Y-25789314D01*
X51871885Y-25646457D01*
X51871885Y-25539314D01*
X51836171Y-25396457D01*
X51800457Y-25325028D01*
X51729028Y-25253600D01*
X51621885Y-25217885D01*
X51550457Y-25217885D01*
X51443314Y-25253600D01*
X51407600Y-25289314D01*
X51157600Y-25217885D02*
X50693314Y-25217885D01*
X50943314Y-25503600D01*
X50836171Y-25503600D01*
X50764742Y-25539314D01*
X50729028Y-25575028D01*
X50693314Y-25646457D01*
X50693314Y-25825028D01*
X50729028Y-25896457D01*
X50764742Y-25932171D01*
X50836171Y-25967885D01*
X51050457Y-25967885D01*
X51121885Y-25932171D01*
X51157600Y-25896457D01*
%TO.C,C4*%
X42924000Y-24347057D02*
X42959714Y-24382771D01*
X43066857Y-24418485D01*
X43138285Y-24418485D01*
X43245428Y-24382771D01*
X43316857Y-24311342D01*
X43352571Y-24239914D01*
X43388285Y-24097057D01*
X43388285Y-23989914D01*
X43352571Y-23847057D01*
X43316857Y-23775628D01*
X43245428Y-23704200D01*
X43138285Y-23668485D01*
X43066857Y-23668485D01*
X42959714Y-23704200D01*
X42924000Y-23739914D01*
X42281142Y-23918485D02*
X42281142Y-24418485D01*
X42459714Y-23632771D02*
X42638285Y-24168485D01*
X42174000Y-24168485D01*
%TO.C,U1*%
X20739028Y-21001485D02*
X20739028Y-21608628D01*
X20703314Y-21680057D01*
X20667600Y-21715771D01*
X20596171Y-21751485D01*
X20453314Y-21751485D01*
X20381885Y-21715771D01*
X20346171Y-21680057D01*
X20310457Y-21608628D01*
X20310457Y-21001485D01*
X19560457Y-21751485D02*
X19989028Y-21751485D01*
X19774742Y-21751485D02*
X19774742Y-21001485D01*
X19846171Y-21108628D01*
X19917600Y-21180057D01*
X19989028Y-21215771D01*
%TO.C,C10*%
X58362142Y-27191857D02*
X58397857Y-27227571D01*
X58505000Y-27263285D01*
X58576428Y-27263285D01*
X58683571Y-27227571D01*
X58755000Y-27156142D01*
X58790714Y-27084714D01*
X58826428Y-26941857D01*
X58826428Y-26834714D01*
X58790714Y-26691857D01*
X58755000Y-26620428D01*
X58683571Y-26549000D01*
X58576428Y-26513285D01*
X58505000Y-26513285D01*
X58397857Y-26549000D01*
X58362142Y-26584714D01*
X57647857Y-27263285D02*
X58076428Y-27263285D01*
X57862142Y-27263285D02*
X57862142Y-26513285D01*
X57933571Y-26620428D01*
X58005000Y-26691857D01*
X58076428Y-26727571D01*
X57183571Y-26513285D02*
X57112142Y-26513285D01*
X57040714Y-26549000D01*
X57005000Y-26584714D01*
X56969285Y-26656142D01*
X56933571Y-26799000D01*
X56933571Y-26977571D01*
X56969285Y-27120428D01*
X57005000Y-27191857D01*
X57040714Y-27227571D01*
X57112142Y-27263285D01*
X57183571Y-27263285D01*
X57255000Y-27227571D01*
X57290714Y-27191857D01*
X57326428Y-27120428D01*
X57362142Y-26977571D01*
X57362142Y-26799000D01*
X57326428Y-26656142D01*
X57290714Y-26584714D01*
X57255000Y-26549000D01*
X57183571Y-26513285D01*
%TO.C,G\u002A\u002A\u002A*%
G36*
X41117017Y-32481771D02*
G01*
X41117244Y-32523751D01*
X41117119Y-32570904D01*
X41116675Y-32621072D01*
X41115945Y-32672097D01*
X41114961Y-32721821D01*
X41113758Y-32768086D01*
X41112368Y-32808733D01*
X41110824Y-32841606D01*
X41109160Y-32864545D01*
X41107409Y-32875392D01*
X41101300Y-32884201D01*
X41086662Y-32895105D01*
X41086182Y-32895299D01*
X41072162Y-32897570D01*
X41046728Y-32898865D01*
X41012499Y-32899269D01*
X40972090Y-32898865D01*
X40928120Y-32897737D01*
X40883203Y-32895970D01*
X40839958Y-32893648D01*
X40801000Y-32890854D01*
X40768947Y-32887672D01*
X40746416Y-32884186D01*
X40695632Y-32869718D01*
X40639229Y-32842206D01*
X40592495Y-32804339D01*
X40554992Y-32755742D01*
X40526280Y-32696039D01*
X40525822Y-32694806D01*
X40513472Y-32645621D01*
X40513505Y-32626254D01*
X40622371Y-32626254D01*
X40631875Y-32662052D01*
X40654886Y-32700980D01*
X40654960Y-32701082D01*
X40687900Y-32734441D01*
X40732300Y-32759823D01*
X40787601Y-32776909D01*
X40806470Y-32780068D01*
X40841265Y-32783815D01*
X40880991Y-32786400D01*
X40920219Y-32787393D01*
X41003936Y-32787517D01*
X41003936Y-32443968D01*
X40923782Y-32448901D01*
X40908474Y-32449900D01*
X40845770Y-32455635D01*
X40794662Y-32463719D01*
X40753036Y-32474840D01*
X40718776Y-32489685D01*
X40689769Y-32508939D01*
X40663900Y-32533290D01*
X40644246Y-32557401D01*
X40626465Y-32591925D01*
X40622371Y-32626254D01*
X40513505Y-32626254D01*
X40513557Y-32596449D01*
X40526072Y-32543794D01*
X40550459Y-32489912D01*
X40586665Y-32441850D01*
X40633173Y-32403511D01*
X40663232Y-32386572D01*
X40708138Y-32368639D01*
X40760872Y-32355168D01*
X40822940Y-32345876D01*
X40895848Y-32340484D01*
X40981104Y-32338712D01*
X41018854Y-32338816D01*
X41046150Y-32339459D01*
X41064496Y-32341045D01*
X41076578Y-32343980D01*
X41085080Y-32348667D01*
X41092688Y-32355509D01*
X41095443Y-32358471D01*
X41107561Y-32380125D01*
X41114530Y-32412270D01*
X41115371Y-32421964D01*
X41116274Y-32443968D01*
X41116403Y-32447123D01*
X41117017Y-32481771D01*
G37*
G36*
X39965232Y-32338163D02*
G01*
X40014289Y-32338431D01*
X40063652Y-32338991D01*
X40107594Y-32339785D01*
X40143906Y-32340764D01*
X40170383Y-32341879D01*
X40184817Y-32343080D01*
X40196720Y-32345008D01*
X40208165Y-32347704D01*
X40217274Y-32352202D01*
X40224313Y-32359887D01*
X40229549Y-32372140D01*
X40233247Y-32390345D01*
X40235675Y-32415885D01*
X40237100Y-32450142D01*
X40237787Y-32494500D01*
X40238004Y-32550342D01*
X40238017Y-32619051D01*
X40238012Y-32644498D01*
X40237882Y-32709279D01*
X40237439Y-32761637D01*
X40236499Y-32802933D01*
X40234879Y-32834525D01*
X40232396Y-32857772D01*
X40228866Y-32874034D01*
X40224106Y-32884670D01*
X40217933Y-32891038D01*
X40210164Y-32894499D01*
X40200615Y-32896411D01*
X40198923Y-32896604D01*
X40183762Y-32897393D01*
X40156818Y-32898160D01*
X40120073Y-32898873D01*
X40075506Y-32899497D01*
X40025100Y-32899998D01*
X39970836Y-32900342D01*
X39938446Y-32900472D01*
X39879813Y-32900502D01*
X39833226Y-32900028D01*
X39797189Y-32898840D01*
X39770207Y-32896728D01*
X39750783Y-32893482D01*
X39737425Y-32888891D01*
X39728635Y-32882747D01*
X39722919Y-32874840D01*
X39718781Y-32864958D01*
X39718301Y-32863551D01*
X39715169Y-32837152D01*
X39723746Y-32816031D01*
X39743025Y-32802771D01*
X39753038Y-32800893D01*
X39776242Y-32798538D01*
X39809683Y-32796166D01*
X39851188Y-32793907D01*
X39898581Y-32791895D01*
X39949688Y-32790261D01*
X40134707Y-32785295D01*
X40134707Y-32675301D01*
X40112442Y-32670848D01*
X40099737Y-32669300D01*
X40074724Y-32667720D01*
X40042631Y-32666590D01*
X40007351Y-32666085D01*
X39985621Y-32665847D01*
X39936562Y-32663885D01*
X39897968Y-32660097D01*
X39871077Y-32654636D01*
X39857130Y-32647654D01*
X39851373Y-32637401D01*
X39846837Y-32616219D01*
X39847046Y-32593773D01*
X39852474Y-32577227D01*
X39855316Y-32573974D01*
X39861741Y-32569827D01*
X39872346Y-32566598D01*
X39889142Y-32564007D01*
X39914142Y-32561777D01*
X39949359Y-32559629D01*
X39996806Y-32557286D01*
X39998624Y-32557201D01*
X40040543Y-32555170D01*
X40077131Y-32553268D01*
X40106164Y-32551623D01*
X40125413Y-32550358D01*
X40132654Y-32549601D01*
X40132740Y-32542994D01*
X40131469Y-32525897D01*
X40129092Y-32502202D01*
X40124020Y-32456213D01*
X39953024Y-32450693D01*
X39894488Y-32448714D01*
X39843519Y-32446661D01*
X39803875Y-32444482D01*
X39774037Y-32441953D01*
X39752489Y-32438850D01*
X39737712Y-32434952D01*
X39728189Y-32430034D01*
X39722402Y-32423873D01*
X39718833Y-32416246D01*
X39718104Y-32414079D01*
X39715267Y-32386494D01*
X39725331Y-32364057D01*
X39747615Y-32348375D01*
X39757411Y-32345210D01*
X39771881Y-32342581D01*
X39792171Y-32340639D01*
X39819966Y-32339305D01*
X39856950Y-32338501D01*
X39904811Y-32338147D01*
X39965232Y-32338163D01*
G37*
G36*
X39183800Y-32339904D02*
G01*
X39234910Y-32341661D01*
X39281556Y-32344928D01*
X39320496Y-32349638D01*
X39348490Y-32355725D01*
X39385017Y-32369906D01*
X39428390Y-32396605D01*
X39460163Y-32430011D01*
X39479695Y-32469390D01*
X39486348Y-32514006D01*
X39486238Y-32525252D01*
X39484541Y-32541317D01*
X39478977Y-32554113D01*
X39467268Y-32567866D01*
X39447138Y-32586804D01*
X39444007Y-32589640D01*
X39423675Y-32606473D01*
X39402630Y-32620331D01*
X39378637Y-32632023D01*
X39349461Y-32642361D01*
X39312866Y-32652154D01*
X39266617Y-32662214D01*
X39208480Y-32673350D01*
X39204798Y-32674030D01*
X39145992Y-32685239D01*
X39099834Y-32694915D01*
X39064940Y-32703492D01*
X39039926Y-32711404D01*
X39023407Y-32719084D01*
X39014000Y-32726968D01*
X39010319Y-32735489D01*
X39010994Y-32744833D01*
X39019438Y-32755498D01*
X39038819Y-32767551D01*
X39047512Y-32772002D01*
X39056883Y-32775854D01*
X39067876Y-32778775D01*
X39082295Y-32780893D01*
X39101944Y-32782338D01*
X39128626Y-32783238D01*
X39164145Y-32783722D01*
X39210307Y-32783918D01*
X39268914Y-32783955D01*
X39468282Y-32783955D01*
X39477538Y-32803201D01*
X39478136Y-32804482D01*
X39483277Y-32829874D01*
X39476427Y-32852684D01*
X39458704Y-32869010D01*
X39454179Y-32871082D01*
X39431374Y-32878462D01*
X39400081Y-32885839D01*
X39364693Y-32892266D01*
X39329602Y-32896798D01*
X39302475Y-32898645D01*
X39263942Y-32899869D01*
X39220399Y-32900250D01*
X39175695Y-32899827D01*
X39133680Y-32898641D01*
X39098201Y-32896732D01*
X39073108Y-32894139D01*
X39030786Y-32884134D01*
X38984403Y-32865730D01*
X38943809Y-32841841D01*
X38913204Y-32814558D01*
X38902389Y-32800523D01*
X38884874Y-32764250D01*
X38881505Y-32727524D01*
X38892263Y-32691092D01*
X38917130Y-32655700D01*
X38932318Y-32640542D01*
X38951933Y-32625208D01*
X38974976Y-32612341D01*
X39003595Y-32601124D01*
X39039934Y-32590739D01*
X39086139Y-32580371D01*
X39144357Y-32569201D01*
X39186992Y-32561302D01*
X39240317Y-32550869D01*
X39281884Y-32541851D01*
X39313099Y-32533874D01*
X39335371Y-32526566D01*
X39350108Y-32519555D01*
X39358719Y-32512467D01*
X39362202Y-32505475D01*
X39358365Y-32492437D01*
X39343069Y-32479796D01*
X39318053Y-32468777D01*
X39285056Y-32460605D01*
X39259534Y-32457240D01*
X39214812Y-32454175D01*
X39162936Y-32452974D01*
X39107958Y-32453637D01*
X39053931Y-32456166D01*
X39004906Y-32460560D01*
X38988445Y-32462411D01*
X38952712Y-32465210D01*
X38927550Y-32464376D01*
X38910490Y-32459344D01*
X38899061Y-32449548D01*
X38890792Y-32434422D01*
X38885598Y-32417570D01*
X38886642Y-32398356D01*
X38897911Y-32382624D01*
X38920409Y-32369610D01*
X38955141Y-32358544D01*
X39003112Y-32348660D01*
X39036108Y-32344356D01*
X39081158Y-32341185D01*
X39131469Y-32339724D01*
X39183800Y-32339904D01*
G37*
G36*
X38573630Y-32349729D02*
G01*
X38596426Y-32360513D01*
X38617120Y-32375248D01*
X38616669Y-32543977D01*
X38616587Y-32562983D01*
X38616057Y-32616681D01*
X38615143Y-32669492D01*
X38613924Y-32718075D01*
X38612477Y-32759089D01*
X38610883Y-32789195D01*
X38608712Y-32817446D01*
X38605746Y-32843789D01*
X38601919Y-32861489D01*
X38596490Y-32873706D01*
X38588718Y-32883599D01*
X38587366Y-32885006D01*
X38566209Y-32899572D01*
X38545973Y-32900899D01*
X38528228Y-32889922D01*
X38514546Y-32867572D01*
X38506496Y-32834782D01*
X38506213Y-32832119D01*
X38505097Y-32812052D01*
X38504261Y-32780426D01*
X38503726Y-32739443D01*
X38503511Y-32691303D01*
X38503639Y-32638208D01*
X38504129Y-32582359D01*
X38504189Y-32577374D01*
X38505100Y-32514315D01*
X38506168Y-32464059D01*
X38507468Y-32425255D01*
X38509073Y-32396554D01*
X38511058Y-32376605D01*
X38513497Y-32364057D01*
X38516463Y-32357560D01*
X38527296Y-32349990D01*
X38548887Y-32346158D01*
X38573630Y-32349729D01*
G37*
G36*
X37861975Y-32340640D02*
G01*
X37924124Y-32346161D01*
X37984868Y-32356702D01*
X38041160Y-32372084D01*
X38089953Y-32392125D01*
X38094498Y-32394498D01*
X38140202Y-32426608D01*
X38180290Y-32470018D01*
X38212533Y-32522362D01*
X38220360Y-32538876D01*
X38230147Y-32564722D01*
X38234776Y-32589431D01*
X38235941Y-32620084D01*
X38235640Y-32637804D01*
X38232829Y-32664289D01*
X38225662Y-32688665D01*
X38212452Y-32717971D01*
X38211952Y-32718982D01*
X38177286Y-32773146D01*
X38131835Y-32818356D01*
X38076190Y-32854228D01*
X38010947Y-32880379D01*
X37936699Y-32896423D01*
X37908997Y-32899137D01*
X37859219Y-32900209D01*
X37805686Y-32897729D01*
X37752864Y-32892086D01*
X37705220Y-32883672D01*
X37667219Y-32872876D01*
X37653132Y-32867399D01*
X37632597Y-32857586D01*
X37617568Y-32846049D01*
X37607247Y-32830704D01*
X37600837Y-32809467D01*
X37597541Y-32780252D01*
X37596561Y-32740975D01*
X37597100Y-32689551D01*
X37597310Y-32678432D01*
X37598643Y-32647056D01*
X37602434Y-32624577D01*
X37610646Y-32609584D01*
X37625244Y-32600666D01*
X37648192Y-32596414D01*
X37681455Y-32595415D01*
X37726996Y-32596260D01*
X37761184Y-32597219D01*
X37791104Y-32598584D01*
X37811515Y-32600572D01*
X37824998Y-32603589D01*
X37834137Y-32608044D01*
X37841513Y-32614344D01*
X37845085Y-32618402D01*
X37855129Y-32639967D01*
X37856314Y-32663800D01*
X37848055Y-32683706D01*
X37841389Y-32689617D01*
X37818363Y-32699929D01*
X37785626Y-32706668D01*
X37746110Y-32709104D01*
X37705142Y-32709144D01*
X37705142Y-32736500D01*
X37705947Y-32751111D01*
X37711419Y-32764212D01*
X37724735Y-32772979D01*
X37736565Y-32776915D01*
X37764619Y-32781752D01*
X37800853Y-32784796D01*
X37841600Y-32785975D01*
X37883200Y-32785214D01*
X37921986Y-32782441D01*
X37954297Y-32777582D01*
X37996500Y-32765495D01*
X38041893Y-32743708D01*
X38077814Y-32715914D01*
X38103496Y-32683494D01*
X38118174Y-32647831D01*
X38121083Y-32610306D01*
X38111458Y-32572302D01*
X38088532Y-32535200D01*
X38076196Y-32522135D01*
X38038458Y-32495397D01*
X37990089Y-32474808D01*
X37932809Y-32460718D01*
X37868340Y-32453480D01*
X37798406Y-32453444D01*
X37724727Y-32460962D01*
X37703915Y-32464036D01*
X37683543Y-32466180D01*
X37670637Y-32465291D01*
X37661315Y-32460925D01*
X37651697Y-32452642D01*
X37650969Y-32451949D01*
X37635712Y-32429599D01*
X37633979Y-32406627D01*
X37645335Y-32385139D01*
X37669345Y-32367241D01*
X37697563Y-32356000D01*
X37745647Y-32345379D01*
X37801467Y-32340319D01*
X37861975Y-32340640D01*
G37*
G36*
X37293986Y-32348501D02*
G01*
X37310650Y-32368961D01*
X37311027Y-32369706D01*
X37315173Y-32380653D01*
X37318426Y-32396085D01*
X37320962Y-32417954D01*
X37322951Y-32448215D01*
X37324569Y-32488820D01*
X37325989Y-32541721D01*
X37326805Y-32592642D01*
X37327013Y-32645847D01*
X37326628Y-32696688D01*
X37325681Y-32741208D01*
X37324202Y-32775447D01*
X37323738Y-32782774D01*
X37321176Y-32817423D01*
X37318317Y-32841440D01*
X37314489Y-32857901D01*
X37309019Y-32869879D01*
X37301234Y-32880452D01*
X37297923Y-32884181D01*
X37276947Y-32898829D01*
X37254957Y-32899266D01*
X37232059Y-32885483D01*
X37230939Y-32884476D01*
X37225441Y-32878979D01*
X37221187Y-32872468D01*
X37217909Y-32863056D01*
X37215344Y-32848853D01*
X37213226Y-32827970D01*
X37211289Y-32798517D01*
X37209268Y-32758607D01*
X37206898Y-32706349D01*
X37205697Y-32680079D01*
X37203536Y-32635941D01*
X37201491Y-32597919D01*
X37199681Y-32568045D01*
X37198224Y-32548348D01*
X37197239Y-32540858D01*
X37197215Y-32540837D01*
X37190685Y-32544740D01*
X37173810Y-32558198D01*
X37146712Y-32581106D01*
X37109516Y-32613357D01*
X37062344Y-32654843D01*
X37005320Y-32705458D01*
X36938566Y-32765096D01*
X36934090Y-32769104D01*
X36886481Y-32811353D01*
X36847888Y-32844526D01*
X36817071Y-32869280D01*
X36792794Y-32886272D01*
X36773819Y-32896157D01*
X36758909Y-32899593D01*
X36746827Y-32897237D01*
X36736334Y-32889743D01*
X36726193Y-32877770D01*
X36722652Y-32872679D01*
X36719346Y-32866265D01*
X36716761Y-32857765D01*
X36714812Y-32845659D01*
X36713420Y-32828427D01*
X36712503Y-32804548D01*
X36711978Y-32772502D01*
X36711765Y-32730767D01*
X36711782Y-32677824D01*
X36711947Y-32612152D01*
X36712077Y-32571487D01*
X36712348Y-32513502D01*
X36712753Y-32467443D01*
X36713375Y-32431852D01*
X36714294Y-32405270D01*
X36715592Y-32386240D01*
X36717350Y-32373303D01*
X36719649Y-32365002D01*
X36722571Y-32359878D01*
X36726197Y-32356473D01*
X36733890Y-32352017D01*
X36757944Y-32346752D01*
X36783978Y-32349215D01*
X36805069Y-32359169D01*
X36808145Y-32361921D01*
X36812585Y-32367550D01*
X36815978Y-32375828D01*
X36818564Y-32388686D01*
X36820585Y-32408059D01*
X36822280Y-32435877D01*
X36823891Y-32474075D01*
X36825658Y-32524584D01*
X36826194Y-32539930D01*
X36827993Y-32584592D01*
X36829934Y-32624172D01*
X36831883Y-32656380D01*
X36833707Y-32678925D01*
X36835272Y-32689516D01*
X36837425Y-32691651D01*
X36843749Y-32690313D01*
X36855027Y-32683446D01*
X36872347Y-32670207D01*
X36896795Y-32649750D01*
X36929460Y-32621233D01*
X36971430Y-32583809D01*
X37010567Y-32548800D01*
X37068580Y-32497363D01*
X37120121Y-32452248D01*
X37164399Y-32414134D01*
X37200624Y-32383700D01*
X37228005Y-32361623D01*
X37245751Y-32348581D01*
X37250114Y-32345987D01*
X37273000Y-32340589D01*
X37293986Y-32348501D01*
G37*
G36*
X36385268Y-32355015D02*
G01*
X36388963Y-32360682D01*
X36392590Y-32367628D01*
X36395425Y-32376217D01*
X36397567Y-32388025D01*
X36399113Y-32404627D01*
X36400159Y-32427601D01*
X36400804Y-32458521D01*
X36401144Y-32498963D01*
X36401277Y-32550503D01*
X36401299Y-32614717D01*
X36401276Y-32635960D01*
X36400929Y-32696724D01*
X36400199Y-32750727D01*
X36399127Y-32796472D01*
X36397756Y-32832460D01*
X36396126Y-32857196D01*
X36394278Y-32869180D01*
X36385881Y-32882767D01*
X36371122Y-32894515D01*
X36370487Y-32894743D01*
X36357386Y-32896531D01*
X36331667Y-32897973D01*
X36294787Y-32899039D01*
X36248203Y-32899698D01*
X36193376Y-32899918D01*
X36131761Y-32899668D01*
X36120352Y-32899579D01*
X36060190Y-32899059D01*
X36012486Y-32898478D01*
X35975704Y-32897734D01*
X35948310Y-32896725D01*
X35928768Y-32895348D01*
X35915543Y-32893502D01*
X35907101Y-32891084D01*
X35901906Y-32887991D01*
X35898423Y-32884122D01*
X35894162Y-32876750D01*
X35888770Y-32853342D01*
X35891269Y-32828907D01*
X35901394Y-32810059D01*
X35903829Y-32807876D01*
X35911157Y-32803677D01*
X35922526Y-32800444D01*
X35939977Y-32797933D01*
X35965551Y-32795896D01*
X36001290Y-32794089D01*
X36049234Y-32792267D01*
X36087209Y-32791013D01*
X36134626Y-32789632D01*
X36178803Y-32788533D01*
X36216074Y-32787804D01*
X36242772Y-32787537D01*
X36301552Y-32787517D01*
X36301552Y-32730519D01*
X36301534Y-32722578D01*
X36301222Y-32697448D01*
X36300599Y-32679706D01*
X36299770Y-32672783D01*
X36293018Y-32672308D01*
X36274188Y-32671366D01*
X36245564Y-32670068D01*
X36209419Y-32668518D01*
X36168024Y-32666819D01*
X36160036Y-32666494D01*
X36114663Y-32664438D01*
X36081135Y-32662364D01*
X36057367Y-32660010D01*
X36041271Y-32657114D01*
X36030759Y-32653411D01*
X36023746Y-32648640D01*
X36019912Y-32644536D01*
X36010850Y-32623560D01*
X36010971Y-32598603D01*
X36020525Y-32575358D01*
X36021899Y-32573460D01*
X36029393Y-32566083D01*
X36040368Y-32561870D01*
X36058410Y-32559967D01*
X36087103Y-32559523D01*
X36101817Y-32559398D01*
X36138677Y-32558487D01*
X36180028Y-32556885D01*
X36219392Y-32554823D01*
X36296195Y-32550124D01*
X36292537Y-32504551D01*
X36290460Y-32482349D01*
X36288159Y-32464380D01*
X36286309Y-32456603D01*
X36279727Y-32455808D01*
X36260655Y-32454607D01*
X36231007Y-32453132D01*
X36192684Y-32451469D01*
X36147585Y-32449706D01*
X36097609Y-32447931D01*
X36093675Y-32447798D01*
X36032978Y-32445516D01*
X35985252Y-32443224D01*
X35949289Y-32440826D01*
X35923880Y-32438224D01*
X35907819Y-32435321D01*
X35899895Y-32432019D01*
X35891491Y-32417490D01*
X35888312Y-32391468D01*
X35888312Y-32391083D01*
X35888588Y-32378732D01*
X35890267Y-32368577D01*
X35894633Y-32360371D01*
X35902970Y-32353866D01*
X35916564Y-32348815D01*
X35936698Y-32344971D01*
X35964657Y-32342085D01*
X36001725Y-32339911D01*
X36049187Y-32338202D01*
X36108327Y-32336709D01*
X36180430Y-32335185D01*
X36369237Y-32331309D01*
X36385268Y-32355015D01*
G37*
G36*
X35617424Y-32581681D02*
G01*
X35617083Y-32656568D01*
X35616121Y-32718501D01*
X35614429Y-32768747D01*
X35611902Y-32808571D01*
X35608431Y-32839239D01*
X35603910Y-32862017D01*
X35598231Y-32878172D01*
X35591287Y-32888969D01*
X35588630Y-32891798D01*
X35583262Y-32895919D01*
X35575543Y-32898797D01*
X35563492Y-32900555D01*
X35545125Y-32901316D01*
X35518463Y-32901203D01*
X35481522Y-32900341D01*
X35432323Y-32898851D01*
X35393711Y-32897548D01*
X35342317Y-32895303D01*
X35301333Y-32892525D01*
X35268398Y-32888843D01*
X35241155Y-32883888D01*
X35217242Y-32877289D01*
X35194302Y-32868676D01*
X35169974Y-32857679D01*
X35123921Y-32830213D01*
X35081445Y-32792728D01*
X35047344Y-32749048D01*
X35022670Y-32701245D01*
X35008472Y-32651388D01*
X35007709Y-32637140D01*
X35120389Y-32637140D01*
X35132348Y-32672023D01*
X35133013Y-32673313D01*
X35158332Y-32710972D01*
X35191508Y-32740020D01*
X35234384Y-32761695D01*
X35288801Y-32777236D01*
X35305033Y-32780016D01*
X35338854Y-32783781D01*
X35377802Y-32786388D01*
X35416292Y-32787393D01*
X35496446Y-32787517D01*
X35496446Y-32444572D01*
X35419855Y-32449303D01*
X35408962Y-32450012D01*
X35337710Y-32456888D01*
X35278917Y-32467181D01*
X35231266Y-32481378D01*
X35193440Y-32499970D01*
X35164119Y-32523443D01*
X35141986Y-32552286D01*
X35134811Y-32565134D01*
X35121147Y-32602301D01*
X35120389Y-32637140D01*
X35007709Y-32637140D01*
X35005802Y-32601548D01*
X35015711Y-32553794D01*
X35022222Y-32537598D01*
X35047381Y-32491712D01*
X35079680Y-32449325D01*
X35115245Y-32415805D01*
X35135351Y-32402310D01*
X35185913Y-32378498D01*
X35247989Y-32360096D01*
X35320356Y-32347353D01*
X35401796Y-32340514D01*
X35491089Y-32339827D01*
X35517230Y-32340591D01*
X35547054Y-32341950D01*
X35567327Y-32344004D01*
X35580886Y-32347268D01*
X35590566Y-32352258D01*
X35599204Y-32359488D01*
X35617568Y-32376761D01*
X35617520Y-32444572D01*
X35617425Y-32580358D01*
X35617424Y-32581681D01*
G37*
G36*
X33369649Y-32347922D02*
G01*
X33388172Y-32368934D01*
X33394083Y-32377910D01*
X33407833Y-32401696D01*
X33425711Y-32434914D01*
X33446611Y-32475374D01*
X33469426Y-32520886D01*
X33493048Y-32569261D01*
X33516370Y-32618309D01*
X33538285Y-32665840D01*
X33539192Y-32667852D01*
X33546863Y-32685036D01*
X33553038Y-32696646D01*
X33558926Y-32701704D01*
X33565735Y-32699229D01*
X33574674Y-32688241D01*
X33586949Y-32667760D01*
X33603770Y-32636805D01*
X33626344Y-32594397D01*
X33639137Y-32570945D01*
X33666519Y-32525118D01*
X33690004Y-32492638D01*
X33709753Y-32473300D01*
X33725927Y-32466900D01*
X33735928Y-32469501D01*
X33753678Y-32483369D01*
X33774981Y-32509555D01*
X33800149Y-32548462D01*
X33829493Y-32600490D01*
X33838536Y-32617123D01*
X33855895Y-32647864D01*
X33870697Y-32672532D01*
X33881600Y-32688939D01*
X33887265Y-32694894D01*
X33890059Y-32691957D01*
X33898649Y-32677993D01*
X33911763Y-32654120D01*
X33928468Y-32622099D01*
X33947832Y-32583693D01*
X33968922Y-32540663D01*
X33973498Y-32531202D01*
X33999381Y-32477930D01*
X34020158Y-32435965D01*
X34036715Y-32403962D01*
X34049934Y-32380575D01*
X34060699Y-32364459D01*
X34069895Y-32354267D01*
X34078405Y-32348654D01*
X34087113Y-32346273D01*
X34096904Y-32345778D01*
X34105762Y-32346538D01*
X34127298Y-32354432D01*
X34143476Y-32368277D01*
X34149855Y-32384802D01*
X34148335Y-32393471D01*
X34141370Y-32415375D01*
X34129534Y-32446846D01*
X34113678Y-32486008D01*
X34094656Y-32530984D01*
X34073319Y-32579894D01*
X34050521Y-32630861D01*
X34027114Y-32682008D01*
X34003949Y-32731457D01*
X33981881Y-32777330D01*
X33961761Y-32817749D01*
X33944443Y-32850837D01*
X33930777Y-32874715D01*
X33921618Y-32887507D01*
X33902326Y-32899351D01*
X33880158Y-32899067D01*
X33859479Y-32885483D01*
X33855056Y-32879729D01*
X33843447Y-32861609D01*
X33827728Y-32834932D01*
X33809391Y-32802257D01*
X33789928Y-32766143D01*
X33777281Y-32742331D01*
X33759790Y-32709869D01*
X33745147Y-32683252D01*
X33734602Y-32664742D01*
X33729403Y-32656601D01*
X33728037Y-32656290D01*
X33720724Y-32663118D01*
X33709813Y-32679433D01*
X33697094Y-32702682D01*
X33696914Y-32703040D01*
X33673138Y-32749318D01*
X33650208Y-32792244D01*
X33629205Y-32829927D01*
X33611209Y-32860476D01*
X33597301Y-32882000D01*
X33588562Y-32892608D01*
X33587817Y-32893172D01*
X33567831Y-32900693D01*
X33545644Y-32899182D01*
X33528179Y-32889046D01*
X33526793Y-32887321D01*
X33517547Y-32872487D01*
X33503634Y-32847039D01*
X33485981Y-32812919D01*
X33465516Y-32772070D01*
X33443166Y-32726434D01*
X33419860Y-32677953D01*
X33396525Y-32628572D01*
X33374089Y-32580232D01*
X33353480Y-32534876D01*
X33335625Y-32494447D01*
X33321453Y-32460887D01*
X33311890Y-32436140D01*
X33307802Y-32423592D01*
X33302285Y-32393257D01*
X33306529Y-32370608D01*
X33320773Y-32353420D01*
X33334730Y-32344085D01*
X33352746Y-32339849D01*
X33369649Y-32347922D01*
G37*
G36*
X33026641Y-32341044D02*
G01*
X33044237Y-32349570D01*
X33070444Y-32363613D01*
X33074186Y-32873115D01*
X33050940Y-32887288D01*
X33043166Y-32891882D01*
X33024632Y-32899893D01*
X33008467Y-32899364D01*
X32988154Y-32890644D01*
X32967134Y-32879774D01*
X32967134Y-32359797D01*
X32992582Y-32347662D01*
X32999331Y-32344502D01*
X33014090Y-32339445D01*
X33026641Y-32341044D01*
G37*
G36*
X32513017Y-32338657D02*
G01*
X32574528Y-32338715D01*
X32624052Y-32338902D01*
X32663003Y-32339294D01*
X32692793Y-32339966D01*
X32714835Y-32340996D01*
X32730542Y-32342457D01*
X32741327Y-32344427D01*
X32748602Y-32346981D01*
X32753780Y-32350195D01*
X32758273Y-32354145D01*
X32770074Y-32370427D01*
X32774763Y-32396490D01*
X32774762Y-32397217D01*
X32773035Y-32415327D01*
X32766749Y-32428342D01*
X32753972Y-32437071D01*
X32732775Y-32442323D01*
X32701228Y-32444904D01*
X32657400Y-32445623D01*
X32649671Y-32445604D01*
X32617185Y-32445099D01*
X32591892Y-32445034D01*
X32572871Y-32446940D01*
X32559200Y-32452345D01*
X32549958Y-32462780D01*
X32544222Y-32479774D01*
X32541073Y-32504857D01*
X32539587Y-32539558D01*
X32538843Y-32585407D01*
X32537921Y-32643933D01*
X32537360Y-32670272D01*
X32535737Y-32729795D01*
X32533697Y-32777201D01*
X32531001Y-32814029D01*
X32527411Y-32841821D01*
X32522688Y-32862118D01*
X32516595Y-32876460D01*
X32508893Y-32886389D01*
X32499344Y-32893445D01*
X32483613Y-32900080D01*
X32466854Y-32898595D01*
X32446340Y-32886779D01*
X32425647Y-32872045D01*
X32425647Y-32663110D01*
X32425645Y-32651953D01*
X32425543Y-32593513D01*
X32425227Y-32547563D01*
X32424617Y-32512598D01*
X32423634Y-32487113D01*
X32422198Y-32469601D01*
X32420229Y-32458557D01*
X32417649Y-32452475D01*
X32414377Y-32449850D01*
X32412558Y-32449379D01*
X32398045Y-32447866D01*
X32373083Y-32446643D01*
X32340623Y-32445824D01*
X32303618Y-32445526D01*
X32293336Y-32445522D01*
X32256647Y-32445335D01*
X32230999Y-32444578D01*
X32213782Y-32442859D01*
X32202390Y-32439789D01*
X32194212Y-32434979D01*
X32186641Y-32428037D01*
X32182224Y-32423377D01*
X32171251Y-32405330D01*
X32171683Y-32386121D01*
X32183325Y-32361809D01*
X32197443Y-32338653D01*
X32469613Y-32338653D01*
X32513017Y-32338657D01*
G37*
G36*
X31460581Y-32354957D02*
G01*
X31468483Y-32362297D01*
X31474154Y-32370323D01*
X31477910Y-32381557D01*
X31480343Y-32398756D01*
X31482047Y-32424680D01*
X31483615Y-32462088D01*
X31487094Y-32552398D01*
X31867923Y-32552398D01*
X31871567Y-32469821D01*
X31872627Y-32448247D01*
X31874978Y-32416545D01*
X31878198Y-32394611D01*
X31882801Y-32379506D01*
X31889300Y-32368292D01*
X31896318Y-32360806D01*
X31918482Y-32349185D01*
X31943654Y-32347121D01*
X31966096Y-32355566D01*
X31969935Y-32358883D01*
X31973251Y-32363932D01*
X31975831Y-32372065D01*
X31977797Y-32384879D01*
X31979269Y-32403968D01*
X31980365Y-32430927D01*
X31981206Y-32467351D01*
X31981912Y-32514834D01*
X31982604Y-32574971D01*
X31983170Y-32638847D01*
X31983330Y-32702106D01*
X31982859Y-32753555D01*
X31981670Y-32794508D01*
X31979675Y-32826283D01*
X31976787Y-32850194D01*
X31972920Y-32867556D01*
X31967986Y-32879686D01*
X31961898Y-32887900D01*
X31945642Y-32898899D01*
X31924899Y-32899215D01*
X31902345Y-32885483D01*
X31899427Y-32882685D01*
X31886200Y-32861640D01*
X31877011Y-32829771D01*
X31871651Y-32786074D01*
X31869911Y-32729546D01*
X31869911Y-32666395D01*
X31486965Y-32666395D01*
X31483851Y-32769885D01*
X31482977Y-32796409D01*
X31481098Y-32833164D01*
X31478172Y-32859086D01*
X31473481Y-32876352D01*
X31466308Y-32887141D01*
X31455934Y-32893632D01*
X31441643Y-32898004D01*
X31438378Y-32898689D01*
X31421127Y-32897112D01*
X31402456Y-32884847D01*
X31381860Y-32867138D01*
X31379818Y-32622195D01*
X31377775Y-32377252D01*
X31394067Y-32362334D01*
X31398345Y-32358548D01*
X31420635Y-32344449D01*
X31440589Y-32343340D01*
X31460581Y-32354957D01*
G37*
G36*
X41110944Y-31796695D02*
G01*
X41109747Y-31853162D01*
X41108418Y-31901208D01*
X41106950Y-31941286D01*
X41105340Y-31973848D01*
X41103581Y-31999345D01*
X41101669Y-32018230D01*
X41099598Y-32030954D01*
X41097364Y-32037970D01*
X41086840Y-32050798D01*
X41069407Y-32062706D01*
X41066108Y-32063603D01*
X41053124Y-32065196D01*
X41030840Y-32066671D01*
X40998705Y-32068040D01*
X40956170Y-32069314D01*
X40902686Y-32070505D01*
X40837701Y-32071624D01*
X40760666Y-32072682D01*
X40671031Y-32073692D01*
X40568246Y-32074664D01*
X40451762Y-32075610D01*
X40444012Y-32075668D01*
X40361031Y-32076207D01*
X40269267Y-32076666D01*
X40169573Y-32077049D01*
X40062802Y-32077357D01*
X39949806Y-32077593D01*
X39831440Y-32077759D01*
X39708556Y-32077858D01*
X39582007Y-32077890D01*
X39452646Y-32077859D01*
X39321327Y-32077767D01*
X39188902Y-32077616D01*
X39056224Y-32077409D01*
X38924147Y-32077147D01*
X38793523Y-32076832D01*
X38665206Y-32076468D01*
X38540049Y-32076055D01*
X38418905Y-32075597D01*
X38302627Y-32075096D01*
X38192067Y-32074553D01*
X38088080Y-32073972D01*
X37991517Y-32073353D01*
X37903233Y-32072700D01*
X37824080Y-32072015D01*
X37754911Y-32071300D01*
X37696580Y-32070556D01*
X37649939Y-32069787D01*
X37615841Y-32068995D01*
X37595140Y-32068181D01*
X37590363Y-32067896D01*
X37550870Y-32065355D01*
X37521399Y-32061817D01*
X37500388Y-32055393D01*
X37486276Y-32044194D01*
X37477502Y-32026330D01*
X37472505Y-31999914D01*
X37469722Y-31963054D01*
X37467593Y-31913863D01*
X37467436Y-31909180D01*
X37466996Y-31886547D01*
X37466565Y-31850603D01*
X37466146Y-31802044D01*
X37465741Y-31741563D01*
X37465423Y-31683169D01*
X38608451Y-31683169D01*
X39054524Y-31683169D01*
X39095302Y-31683160D01*
X39184036Y-31683057D01*
X39259750Y-31682825D01*
X39323313Y-31682448D01*
X39375595Y-31681907D01*
X39417464Y-31681186D01*
X39449790Y-31680266D01*
X39473442Y-31679132D01*
X39489289Y-31677765D01*
X39498201Y-31676148D01*
X39501046Y-31674263D01*
X39501155Y-31672558D01*
X39502320Y-31658522D01*
X39504407Y-31635414D01*
X39507054Y-31607264D01*
X39507515Y-31602700D01*
X39511298Y-31576387D01*
X39517381Y-31550068D01*
X39526411Y-31522620D01*
X39539030Y-31492918D01*
X39555884Y-31459838D01*
X39577616Y-31422254D01*
X39604872Y-31379044D01*
X39638296Y-31329080D01*
X39678532Y-31271241D01*
X39726224Y-31204400D01*
X39782018Y-31127433D01*
X39793947Y-31111072D01*
X39849581Y-31034952D01*
X39902135Y-30963342D01*
X39951025Y-30897025D01*
X39995665Y-30836783D01*
X40035470Y-30783398D01*
X40069856Y-30737652D01*
X40098237Y-30700329D01*
X40120028Y-30672209D01*
X40134645Y-30654076D01*
X40141503Y-30646711D01*
X40143105Y-30647886D01*
X40144692Y-30655472D01*
X40145970Y-30670566D01*
X40146950Y-30694010D01*
X40147645Y-30726646D01*
X40148067Y-30769317D01*
X40148226Y-30822865D01*
X40148136Y-30888134D01*
X40147807Y-30965966D01*
X40147252Y-31057203D01*
X40146807Y-31121813D01*
X40146223Y-31199955D01*
X40145632Y-31265966D01*
X40144988Y-31321075D01*
X40144242Y-31366513D01*
X40143346Y-31403510D01*
X40142252Y-31433295D01*
X40140913Y-31457100D01*
X40139280Y-31476154D01*
X40137306Y-31491687D01*
X40134942Y-31504929D01*
X40132141Y-31517112D01*
X40128855Y-31529464D01*
X40128378Y-31531174D01*
X40117623Y-31564369D01*
X40104567Y-31597545D01*
X40091928Y-31623760D01*
X40082396Y-31641415D01*
X40073869Y-31659147D01*
X40070584Y-31668812D01*
X40072646Y-31669805D01*
X40087417Y-31671457D01*
X40116388Y-31672856D01*
X40159527Y-31674003D01*
X40216803Y-31674895D01*
X40288184Y-31675533D01*
X40373639Y-31675917D01*
X40473136Y-31676044D01*
X40527991Y-31676013D01*
X40599119Y-31675872D01*
X40664880Y-31675628D01*
X40724007Y-31675293D01*
X40775228Y-31674877D01*
X40817276Y-31674391D01*
X40848882Y-31673846D01*
X40868776Y-31673252D01*
X40875689Y-31672620D01*
X40872986Y-31666705D01*
X40864496Y-31651792D01*
X40852230Y-31631653D01*
X40835957Y-31604630D01*
X40823318Y-31579620D01*
X40814916Y-31555286D01*
X40809079Y-31526660D01*
X40804134Y-31488775D01*
X40804071Y-31488197D01*
X40803050Y-31471137D01*
X40802101Y-31440867D01*
X40801224Y-31398367D01*
X40800421Y-31344619D01*
X40799690Y-31280603D01*
X40799032Y-31207299D01*
X40798447Y-31125688D01*
X40797934Y-31036752D01*
X40797495Y-30941470D01*
X40797128Y-30840823D01*
X40796834Y-30735793D01*
X40796614Y-30627359D01*
X40796466Y-30516503D01*
X40796391Y-30404205D01*
X40796389Y-30291446D01*
X40796461Y-30179207D01*
X40796605Y-30068468D01*
X40796823Y-29960210D01*
X40797114Y-29855414D01*
X40797478Y-29755060D01*
X40797916Y-29660130D01*
X40798426Y-29571603D01*
X40799010Y-29490461D01*
X40799668Y-29417684D01*
X40800399Y-29354252D01*
X40801203Y-29301148D01*
X40802081Y-29259351D01*
X40803032Y-29229842D01*
X40804057Y-29213602D01*
X40806072Y-29197096D01*
X40812538Y-29158558D01*
X40821541Y-29127555D01*
X40834782Y-29099138D01*
X40853960Y-29068359D01*
X40862433Y-29055397D01*
X40871945Y-29039399D01*
X40875659Y-29030953D01*
X40871911Y-29030225D01*
X40855357Y-29029281D01*
X40826752Y-29028408D01*
X40787367Y-29027623D01*
X40738469Y-29026943D01*
X40681328Y-29026385D01*
X40617213Y-29025966D01*
X40547393Y-29025701D01*
X40473136Y-29025610D01*
X40391358Y-29025705D01*
X40309226Y-29026034D01*
X40238372Y-29026593D01*
X40179289Y-29027371D01*
X40132473Y-29028360D01*
X40098421Y-29029552D01*
X40077626Y-29030938D01*
X40070584Y-29032510D01*
X40071078Y-29034775D01*
X40076294Y-29047947D01*
X40085989Y-29069089D01*
X40098654Y-29094852D01*
X40101372Y-29100325D01*
X40115629Y-29132234D01*
X40127633Y-29164000D01*
X40135024Y-29189481D01*
X40135174Y-29190228D01*
X40137015Y-29206437D01*
X40138763Y-29234147D01*
X40140404Y-29271843D01*
X40141924Y-29318010D01*
X40143309Y-29371135D01*
X40144544Y-29429702D01*
X40145616Y-29492197D01*
X40146511Y-29557105D01*
X40147214Y-29622913D01*
X40147712Y-29688106D01*
X40147990Y-29751168D01*
X40148035Y-29810586D01*
X40147832Y-29864845D01*
X40147367Y-29912431D01*
X40146626Y-29951829D01*
X40145595Y-29981525D01*
X40144260Y-30000004D01*
X40142607Y-30005752D01*
X40140529Y-30003956D01*
X40129607Y-29991903D01*
X40110692Y-29969407D01*
X40084271Y-29937073D01*
X40050829Y-29895508D01*
X40010852Y-29845315D01*
X39964825Y-29787101D01*
X39913233Y-29721472D01*
X39856562Y-29649032D01*
X39827970Y-29612365D01*
X39765154Y-29531429D01*
X39710516Y-29460314D01*
X39663489Y-29398142D01*
X39623509Y-29344034D01*
X39590010Y-29297108D01*
X39562428Y-29256487D01*
X39540196Y-29221289D01*
X39522749Y-29190637D01*
X39509523Y-29163649D01*
X39499952Y-29139447D01*
X39493471Y-29117151D01*
X39489515Y-29095881D01*
X39487517Y-29074758D01*
X39484740Y-29025610D01*
X38616423Y-29025610D01*
X38703325Y-29109326D01*
X38718568Y-29124177D01*
X38741598Y-29147301D01*
X38765530Y-29172259D01*
X38791085Y-29199901D01*
X38818985Y-29231076D01*
X38849952Y-29266634D01*
X38884706Y-29307423D01*
X38923970Y-29354293D01*
X38968464Y-29408094D01*
X39018911Y-29469675D01*
X39076031Y-29539886D01*
X39140547Y-29619575D01*
X39213179Y-29709593D01*
X39231206Y-29731973D01*
X39261211Y-29769222D01*
X39330805Y-29855738D01*
X39392119Y-29932131D01*
X39445596Y-29998968D01*
X39491681Y-30056818D01*
X39530819Y-30106246D01*
X39563452Y-30147821D01*
X39590026Y-30182109D01*
X39610985Y-30209677D01*
X39626773Y-30231093D01*
X39637834Y-30246923D01*
X39644613Y-30257736D01*
X39647554Y-30264097D01*
X39649015Y-30270153D01*
X39649375Y-30276256D01*
X39647819Y-30283607D01*
X39643558Y-30293503D01*
X39635803Y-30307244D01*
X39623767Y-30326129D01*
X39606661Y-30351455D01*
X39583696Y-30384522D01*
X39554084Y-30426629D01*
X39517036Y-30479074D01*
X39436167Y-30593301D01*
X39342915Y-30724461D01*
X39256777Y-30844926D01*
X39177284Y-30955318D01*
X39103971Y-31056259D01*
X39036370Y-31148373D01*
X38974015Y-31232282D01*
X38916440Y-31308608D01*
X38863177Y-31377974D01*
X38813761Y-31441004D01*
X38767723Y-31498318D01*
X38724598Y-31550541D01*
X38683919Y-31598295D01*
X38645219Y-31642202D01*
X38608451Y-31683169D01*
X37465423Y-31683169D01*
X37465351Y-31669863D01*
X37690892Y-31669863D01*
X37694521Y-31670780D01*
X37710689Y-31671926D01*
X37738343Y-31672930D01*
X37775881Y-31673792D01*
X37821700Y-31674510D01*
X37874198Y-31675083D01*
X37931772Y-31675511D01*
X37992818Y-31675792D01*
X38055734Y-31675926D01*
X38118919Y-31675911D01*
X38180767Y-31675747D01*
X38239678Y-31675432D01*
X38294048Y-31674965D01*
X38342275Y-31674346D01*
X38382756Y-31673573D01*
X38413887Y-31672646D01*
X38434067Y-31671564D01*
X38441693Y-31670325D01*
X38441348Y-31665363D01*
X38435204Y-31651077D01*
X38424085Y-31632101D01*
X38419847Y-31625085D01*
X38405149Y-31592351D01*
X38395683Y-31557666D01*
X38395179Y-31553333D01*
X38394100Y-31533746D01*
X38393113Y-31501525D01*
X38392216Y-31457790D01*
X38391410Y-31403662D01*
X38390696Y-31340260D01*
X38390072Y-31268704D01*
X38389540Y-31190115D01*
X38389098Y-31105613D01*
X38388748Y-31016318D01*
X38388490Y-30923350D01*
X38388322Y-30827830D01*
X38388247Y-30730877D01*
X38388262Y-30633611D01*
X38388369Y-30537153D01*
X38388568Y-30442623D01*
X38388858Y-30351141D01*
X38389240Y-30263827D01*
X38389713Y-30181801D01*
X38390279Y-30106184D01*
X38390936Y-30038095D01*
X38391685Y-29978655D01*
X38392526Y-29928983D01*
X38393459Y-29890201D01*
X38394484Y-29863427D01*
X38395601Y-29849783D01*
X38398264Y-29837535D01*
X38409764Y-29803114D01*
X38424873Y-29772415D01*
X38434196Y-29756010D01*
X38441400Y-29739956D01*
X38442385Y-29731973D01*
X38442363Y-29731953D01*
X38434252Y-29730990D01*
X38413326Y-29730000D01*
X38380988Y-29729013D01*
X38338643Y-29728055D01*
X38287696Y-29727155D01*
X38229551Y-29726341D01*
X38165612Y-29725642D01*
X38097284Y-29725084D01*
X37756744Y-29722762D01*
X37753878Y-30641302D01*
X37751011Y-31559842D01*
X37720952Y-31611761D01*
X37716032Y-31620343D01*
X37703197Y-31643630D01*
X37694251Y-31661230D01*
X37690892Y-31669863D01*
X37465351Y-31669863D01*
X37465351Y-31669854D01*
X37464978Y-31587612D01*
X37464625Y-31495531D01*
X37464293Y-31394305D01*
X37463984Y-31284629D01*
X37463702Y-31167197D01*
X37463446Y-31042702D01*
X37463220Y-30911840D01*
X37463025Y-30775304D01*
X37462864Y-30633790D01*
X37462739Y-30487990D01*
X37462650Y-30338599D01*
X37462602Y-30186311D01*
X37462587Y-30101620D01*
X37462569Y-29927893D01*
X37462570Y-29767599D01*
X37462595Y-29620182D01*
X37462648Y-29485081D01*
X37462731Y-29361738D01*
X37462850Y-29249595D01*
X37463008Y-29148094D01*
X37463208Y-29056675D01*
X37463455Y-28974781D01*
X37463751Y-28901852D01*
X37464102Y-28837331D01*
X37464510Y-28780658D01*
X37464980Y-28731276D01*
X37465515Y-28688625D01*
X37466119Y-28652148D01*
X37466796Y-28621285D01*
X37466899Y-28617742D01*
X37749280Y-28617742D01*
X37751779Y-28680133D01*
X37766499Y-28739758D01*
X37792630Y-28795113D01*
X37829363Y-28844692D01*
X37875888Y-28886992D01*
X37931395Y-28920507D01*
X37995075Y-28943734D01*
X38025229Y-28950062D01*
X38089705Y-28953747D01*
X38152277Y-28944723D01*
X38211332Y-28924038D01*
X38265258Y-28892740D01*
X38312443Y-28851876D01*
X38351274Y-28802493D01*
X38380139Y-28745639D01*
X38397425Y-28682361D01*
X38401102Y-28644198D01*
X38396260Y-28583093D01*
X38379038Y-28524532D01*
X38350591Y-28470158D01*
X38312076Y-28421616D01*
X38264650Y-28380549D01*
X38209470Y-28348601D01*
X38147691Y-28327415D01*
X38136642Y-28325189D01*
X38092366Y-28321336D01*
X38043094Y-28323060D01*
X37994920Y-28329919D01*
X37953935Y-28341469D01*
X37928910Y-28352701D01*
X37878008Y-28384966D01*
X37832485Y-28426295D01*
X37795296Y-28473757D01*
X37769398Y-28524423D01*
X37759812Y-28554091D01*
X37749280Y-28617742D01*
X37466899Y-28617742D01*
X37467549Y-28595478D01*
X37468383Y-28574169D01*
X37469300Y-28556799D01*
X37470306Y-28542809D01*
X37471403Y-28531642D01*
X37472596Y-28522739D01*
X37473888Y-28515540D01*
X37495638Y-28437580D01*
X37531676Y-28356208D01*
X37579155Y-28281490D01*
X37637010Y-28214481D01*
X37704172Y-28156234D01*
X37779574Y-28107802D01*
X37862149Y-28070239D01*
X37950831Y-28044600D01*
X37965488Y-28042041D01*
X38006091Y-28038158D01*
X38054274Y-28036659D01*
X38105693Y-28037428D01*
X38156006Y-28040349D01*
X38200870Y-28045307D01*
X38235941Y-28052186D01*
X38250601Y-28056783D01*
X38280907Y-28068176D01*
X38315681Y-28082861D01*
X38349939Y-28098802D01*
X38414571Y-28135534D01*
X38486689Y-28190492D01*
X38549240Y-28254855D01*
X38601242Y-28327413D01*
X38641712Y-28406955D01*
X38669667Y-28492272D01*
X38684805Y-28554475D01*
X39867526Y-28556779D01*
X39928093Y-28556900D01*
X40083047Y-28557243D01*
X40224455Y-28557608D01*
X40352833Y-28558001D01*
X40468693Y-28558426D01*
X40572551Y-28558889D01*
X40664921Y-28559394D01*
X40746317Y-28559946D01*
X40817255Y-28560549D01*
X40878248Y-28561208D01*
X40929811Y-28561927D01*
X40972458Y-28562713D01*
X41006705Y-28563568D01*
X41033064Y-28564499D01*
X41052052Y-28565509D01*
X41064182Y-28566603D01*
X41069968Y-28567787D01*
X41085208Y-28578652D01*
X41097820Y-28596211D01*
X41098890Y-28599534D01*
X41100966Y-28610761D01*
X41102887Y-28628294D01*
X41104049Y-28644198D01*
X41104661Y-28652574D01*
X41106290Y-28684043D01*
X41107781Y-28723141D01*
X41109138Y-28770309D01*
X41110366Y-28825991D01*
X41111470Y-28890625D01*
X41112455Y-28964655D01*
X41113325Y-29048521D01*
X41114085Y-29142665D01*
X41114741Y-29247527D01*
X41115297Y-29363550D01*
X41115758Y-29491174D01*
X41116129Y-29630841D01*
X41116415Y-29782993D01*
X41116620Y-29948070D01*
X41116750Y-30126513D01*
X41116809Y-30318765D01*
X41116804Y-30490516D01*
X41116731Y-30669444D01*
X41116581Y-30834979D01*
X41116350Y-30987574D01*
X41116032Y-31127679D01*
X41115622Y-31255747D01*
X41115115Y-31372230D01*
X41114505Y-31477581D01*
X41113789Y-31572250D01*
X41112960Y-31656691D01*
X41112758Y-31672620D01*
X41112013Y-31731355D01*
X41110944Y-31796695D01*
G37*
G36*
X36112091Y-28987471D02*
G01*
X36153718Y-28988347D01*
X36188101Y-28990308D01*
X36219233Y-28993706D01*
X36251108Y-28998895D01*
X36287718Y-29006226D01*
X36321345Y-29013745D01*
X36440643Y-29047854D01*
X36551541Y-29092177D01*
X36655381Y-29147501D01*
X36753506Y-29214613D01*
X36847259Y-29294300D01*
X36937983Y-29387350D01*
X36970968Y-29425632D01*
X37046330Y-29526885D01*
X37110415Y-29635039D01*
X37163409Y-29750611D01*
X37205499Y-29874117D01*
X37236873Y-30006071D01*
X37257717Y-30146991D01*
X37268220Y-30297391D01*
X37268312Y-30300116D01*
X37267473Y-30456338D01*
X37254231Y-30605617D01*
X37228530Y-30748127D01*
X37190309Y-30884043D01*
X37139511Y-31013540D01*
X37076078Y-31136794D01*
X36999949Y-31253979D01*
X36911068Y-31365270D01*
X36903513Y-31373743D01*
X36829800Y-31446047D01*
X36745631Y-31512482D01*
X36653456Y-31571758D01*
X36555722Y-31622588D01*
X36454879Y-31663679D01*
X36353375Y-31693745D01*
X36253657Y-31711494D01*
X36251763Y-31711699D01*
X36225993Y-31713493D01*
X36189551Y-31714831D01*
X36145679Y-31715649D01*
X36097621Y-31715885D01*
X36048620Y-31715476D01*
X36010268Y-31714647D01*
X35928768Y-31710871D01*
X35856770Y-31704169D01*
X35791074Y-31694095D01*
X35728479Y-31680202D01*
X35665785Y-31662043D01*
X35640789Y-31652948D01*
X35607170Y-31639059D01*
X35567464Y-31621549D01*
X35523798Y-31601459D01*
X35478295Y-31579828D01*
X35433082Y-31557698D01*
X35390284Y-31536109D01*
X35352025Y-31516101D01*
X35320432Y-31498715D01*
X35297629Y-31484992D01*
X35285741Y-31475972D01*
X35284964Y-31475111D01*
X35278037Y-31466283D01*
X35276543Y-31457930D01*
X35281011Y-31445762D01*
X35291972Y-31425486D01*
X35294973Y-31420222D01*
X35306550Y-31400499D01*
X35323982Y-31371230D01*
X35346183Y-31334222D01*
X35372067Y-31291283D01*
X35400549Y-31244218D01*
X35430544Y-31194834D01*
X35549306Y-30999663D01*
X35570969Y-31017242D01*
X35643576Y-31073552D01*
X35713269Y-31121416D01*
X35778429Y-31158888D01*
X35840764Y-31186725D01*
X35901981Y-31205686D01*
X35963786Y-31216527D01*
X36027887Y-31220006D01*
X36041438Y-31219860D01*
X36119921Y-31212188D01*
X36193013Y-31192461D01*
X36261921Y-31160133D01*
X36327856Y-31114659D01*
X36392025Y-31055492D01*
X36416908Y-31028452D01*
X36456286Y-30978587D01*
X36489004Y-30925619D01*
X36517222Y-30865834D01*
X36543099Y-30795517D01*
X36555653Y-30756468D01*
X36567688Y-30715115D01*
X36577175Y-30676073D01*
X36584405Y-30636979D01*
X36589670Y-30595467D01*
X36593258Y-30549172D01*
X36595461Y-30495732D01*
X36596570Y-30432780D01*
X36596875Y-30357952D01*
X36596868Y-30341484D01*
X36596645Y-30279357D01*
X36596037Y-30228857D01*
X36594946Y-30187864D01*
X36593273Y-30154256D01*
X36590919Y-30125911D01*
X36587786Y-30100706D01*
X36583775Y-30076521D01*
X36582053Y-30067315D01*
X36556251Y-29956492D01*
X36523206Y-29856788D01*
X36483092Y-29768485D01*
X36436081Y-29691871D01*
X36382346Y-29627229D01*
X36322060Y-29574845D01*
X36255396Y-29535003D01*
X36223389Y-29520349D01*
X36188420Y-29506933D01*
X36154583Y-29497828D01*
X36118046Y-29492276D01*
X36074979Y-29489522D01*
X36021552Y-29488808D01*
X35960838Y-29490634D01*
X35907755Y-29496732D01*
X35859532Y-29508195D01*
X35813346Y-29526118D01*
X35766377Y-29551598D01*
X35715804Y-29585729D01*
X35658804Y-29629606D01*
X35650320Y-29636250D01*
X35628597Y-29651627D01*
X35611836Y-29661138D01*
X35602938Y-29663046D01*
X35600750Y-29660776D01*
X35591237Y-29648188D01*
X35575692Y-29626177D01*
X35555193Y-29596377D01*
X35530820Y-29560420D01*
X35503650Y-29519939D01*
X35474762Y-29476566D01*
X35445234Y-29431934D01*
X35416144Y-29387675D01*
X35388571Y-29345422D01*
X35363594Y-29306807D01*
X35342289Y-29273463D01*
X35325737Y-29247023D01*
X35315015Y-29229118D01*
X35311201Y-29221381D01*
X35312575Y-29218982D01*
X35323821Y-29210733D01*
X35343946Y-29199686D01*
X35369981Y-29187551D01*
X35399225Y-29174762D01*
X35437170Y-29157957D01*
X35478323Y-29139573D01*
X35517752Y-29121804D01*
X35609484Y-29082891D01*
X35736987Y-29038078D01*
X35859660Y-29006173D01*
X35887504Y-29000503D01*
X35920164Y-28994817D01*
X35951111Y-28991006D01*
X35984333Y-28988720D01*
X36023818Y-28987606D01*
X36073557Y-28987313D01*
X36112091Y-28987471D01*
G37*
G36*
X35256536Y-31134444D02*
G01*
X35255386Y-31165851D01*
X35253249Y-31190737D01*
X35249796Y-31212243D01*
X35244702Y-31233513D01*
X35237639Y-31257688D01*
X35228841Y-31284144D01*
X35210024Y-31332019D01*
X35188240Y-31379463D01*
X35165605Y-31422005D01*
X35144234Y-31455175D01*
X35133973Y-31468278D01*
X35102126Y-31503883D01*
X35064558Y-31540793D01*
X35025851Y-31574657D01*
X34990584Y-31601123D01*
X34960855Y-31619596D01*
X34885165Y-31657422D01*
X34802561Y-31687549D01*
X34717460Y-31708244D01*
X34689468Y-31712582D01*
X34655407Y-31716398D01*
X34627218Y-31718089D01*
X34593149Y-31717523D01*
X34549820Y-31714991D01*
X34503421Y-31710902D01*
X34458283Y-31705701D01*
X34418735Y-31699830D01*
X34389106Y-31693732D01*
X34388552Y-31693587D01*
X34338406Y-31676740D01*
X34283152Y-31651976D01*
X34227495Y-31621629D01*
X34176140Y-31588033D01*
X34161581Y-31577645D01*
X34139226Y-31562290D01*
X34122722Y-31551727D01*
X34114872Y-31547798D01*
X34113194Y-31550341D01*
X34110173Y-31564138D01*
X34107204Y-31587230D01*
X34104739Y-31616550D01*
X34103452Y-31634789D01*
X34101212Y-31661366D01*
X34099144Y-31680161D01*
X34097573Y-31687952D01*
X34097451Y-31688026D01*
X34088621Y-31688731D01*
X34067455Y-31689078D01*
X34035721Y-31689103D01*
X33995186Y-31688840D01*
X33947616Y-31688322D01*
X33894777Y-31687584D01*
X33838436Y-31686660D01*
X33780360Y-31685586D01*
X33722315Y-31684394D01*
X33666067Y-31683120D01*
X33613383Y-31681797D01*
X33566030Y-31680461D01*
X33525774Y-31679145D01*
X33494382Y-31677884D01*
X33473619Y-31676711D01*
X33465254Y-31675663D01*
X33462631Y-31669588D01*
X33466924Y-31655004D01*
X33479518Y-31630787D01*
X33483028Y-31624589D01*
X33490860Y-31609479D01*
X33496510Y-31594840D01*
X33500560Y-31577730D01*
X33503592Y-31555211D01*
X33506187Y-31524341D01*
X33508928Y-31482181D01*
X33509637Y-31468723D01*
X33510961Y-31435398D01*
X33512405Y-31390164D01*
X33513936Y-31334495D01*
X33515520Y-31269863D01*
X33517123Y-31197741D01*
X33518204Y-31144632D01*
X34142730Y-31144632D01*
X34187609Y-31188421D01*
X34200572Y-31200474D01*
X34240145Y-31231482D01*
X34279219Y-31254513D01*
X34291010Y-31259947D01*
X34319697Y-31270663D01*
X34349015Y-31276834D01*
X34385742Y-31280085D01*
X34430368Y-31281092D01*
X34487303Y-31276474D01*
X34535282Y-31264008D01*
X34576432Y-31243064D01*
X34612885Y-31213014D01*
X34615911Y-31209960D01*
X34639947Y-31182087D01*
X34655391Y-31154426D01*
X34664236Y-31122238D01*
X34668475Y-31080781D01*
X34667719Y-31034274D01*
X34657917Y-30991181D01*
X34637431Y-30953257D01*
X34604934Y-30917090D01*
X34583274Y-30898388D01*
X34545272Y-30872690D01*
X34502630Y-30852779D01*
X34453503Y-30838158D01*
X34396047Y-30828331D01*
X34328417Y-30822799D01*
X34248770Y-30821065D01*
X34235885Y-30821082D01*
X34199698Y-30821465D01*
X34174921Y-30822538D01*
X34159354Y-30824545D01*
X34150798Y-30827729D01*
X34147054Y-30832335D01*
X34146660Y-30833987D01*
X34145408Y-30848018D01*
X34144328Y-30873334D01*
X34143481Y-30907648D01*
X34142928Y-30948672D01*
X34142730Y-30994119D01*
X34142730Y-31144632D01*
X33518204Y-31144632D01*
X33518713Y-31119602D01*
X33520255Y-31036920D01*
X33521715Y-30951166D01*
X33523060Y-30863814D01*
X33523102Y-30860915D01*
X33524708Y-30753858D01*
X33526238Y-30659952D01*
X33527749Y-30578127D01*
X33529294Y-30507311D01*
X33530929Y-30446435D01*
X33532710Y-30394426D01*
X33534690Y-30350216D01*
X33536926Y-30312733D01*
X33539472Y-30280906D01*
X33542384Y-30253665D01*
X33545716Y-30229939D01*
X33549523Y-30208657D01*
X33553861Y-30188749D01*
X33558784Y-30169144D01*
X33558908Y-30168675D01*
X33589100Y-30076520D01*
X33628229Y-29995046D01*
X33676667Y-29923923D01*
X33734786Y-29862821D01*
X33802956Y-29811408D01*
X33881548Y-29769354D01*
X33970933Y-29736327D01*
X34071481Y-29711998D01*
X34079079Y-29710608D01*
X34105132Y-29706613D01*
X34133451Y-29703645D01*
X34166430Y-29701580D01*
X34206465Y-29700299D01*
X34255953Y-29699681D01*
X34317288Y-29699604D01*
X34345209Y-29699637D01*
X34381043Y-29699674D01*
X34411898Y-29699909D01*
X34439349Y-29700582D01*
X34464971Y-29701933D01*
X34490338Y-29704199D01*
X34517023Y-29707621D01*
X34546603Y-29712438D01*
X34580651Y-29718888D01*
X34620742Y-29727211D01*
X34668450Y-29737646D01*
X34725351Y-29750433D01*
X34793017Y-29765809D01*
X34873024Y-29784016D01*
X34881992Y-29786046D01*
X34925446Y-29795683D01*
X34964498Y-29804025D01*
X34996779Y-29810586D01*
X35019920Y-29814882D01*
X35031552Y-29816429D01*
X35041526Y-29817372D01*
X35047582Y-29820677D01*
X35047544Y-29820966D01*
X35044285Y-29830250D01*
X35036407Y-29850285D01*
X35024790Y-29878969D01*
X35010310Y-29914198D01*
X34993849Y-29953869D01*
X34976283Y-29995881D01*
X34958493Y-30038130D01*
X34941356Y-30078514D01*
X34925753Y-30114930D01*
X34912560Y-30145274D01*
X34902658Y-30167445D01*
X34898291Y-30176710D01*
X34885575Y-30200989D01*
X34874364Y-30218807D01*
X34866678Y-30226830D01*
X34864549Y-30227060D01*
X34850435Y-30224523D01*
X34826704Y-30217827D01*
X34796062Y-30207785D01*
X34761219Y-30195209D01*
X34729495Y-30183506D01*
X34647644Y-30156074D01*
X34574407Y-30136179D01*
X34507527Y-30123355D01*
X34444748Y-30117134D01*
X34383815Y-30117050D01*
X34362940Y-30118538D01*
X34304054Y-30129684D01*
X34254441Y-30151029D01*
X34213608Y-30183038D01*
X34181063Y-30226172D01*
X34156313Y-30280896D01*
X34138866Y-30347673D01*
X34137836Y-30353087D01*
X34133084Y-30378997D01*
X34129743Y-30398757D01*
X34128480Y-30408452D01*
X34129596Y-30409262D01*
X34141630Y-30411124D01*
X34165485Y-30412694D01*
X34199425Y-30413901D01*
X34241713Y-30414677D01*
X34290613Y-30414950D01*
X34402748Y-30416913D01*
X34522425Y-30424357D01*
X34630733Y-30437639D01*
X34728677Y-30457060D01*
X34817264Y-30482922D01*
X34897498Y-30515526D01*
X34970385Y-30555172D01*
X35036933Y-30602164D01*
X35098146Y-30656800D01*
X35128533Y-30688910D01*
X35179012Y-30754448D01*
X35217236Y-30823936D01*
X35244521Y-30899560D01*
X35245900Y-30904645D01*
X35250620Y-30926250D01*
X35253893Y-30950811D01*
X35255929Y-30981149D01*
X35256934Y-31020083D01*
X35257117Y-31070434D01*
X35257076Y-31080781D01*
X35257025Y-31093372D01*
X35256536Y-31134444D01*
G37*
G36*
X33283785Y-30816508D02*
G01*
X33283470Y-30868164D01*
X33282745Y-30909260D01*
X33281453Y-30942241D01*
X33279440Y-30969553D01*
X33276549Y-30993642D01*
X33272624Y-31016954D01*
X33267511Y-31041935D01*
X33258103Y-31082348D01*
X33224088Y-31194947D01*
X33180845Y-31297741D01*
X33128633Y-31390361D01*
X33067715Y-31472439D01*
X32998350Y-31543608D01*
X32920800Y-31603500D01*
X32835324Y-31651746D01*
X32817397Y-31659972D01*
X32730702Y-31692095D01*
X32642954Y-31711610D01*
X32608213Y-31715214D01*
X32554535Y-31716760D01*
X32495236Y-31715044D01*
X32434901Y-31710336D01*
X32378115Y-31702909D01*
X32329462Y-31693033D01*
X32298748Y-31683507D01*
X32250628Y-31664085D01*
X32198909Y-31639070D01*
X32147790Y-31610534D01*
X32101467Y-31580548D01*
X32044469Y-31540308D01*
X32039749Y-31574333D01*
X32038096Y-31588538D01*
X32035641Y-31619817D01*
X32034406Y-31650469D01*
X32033782Y-31692579D01*
X31708144Y-31687604D01*
X31651170Y-31686709D01*
X31588274Y-31685660D01*
X31531106Y-31684640D01*
X31481085Y-31683680D01*
X31439632Y-31682807D01*
X31408166Y-31682051D01*
X31388108Y-31681439D01*
X31380879Y-31681000D01*
X31380861Y-31680446D01*
X31384340Y-31671222D01*
X31392494Y-31653220D01*
X31403899Y-31629615D01*
X31417240Y-31599511D01*
X31428948Y-31567384D01*
X31436261Y-31540673D01*
X31436469Y-31539409D01*
X31437551Y-31525494D01*
X31438580Y-31499453D01*
X31439559Y-31461121D01*
X31440488Y-31410335D01*
X31441369Y-31346933D01*
X31442203Y-31270750D01*
X31442991Y-31181624D01*
X31443735Y-31079392D01*
X31444436Y-30963889D01*
X31445096Y-30834953D01*
X31445715Y-30692421D01*
X31446295Y-30536129D01*
X31446837Y-30365914D01*
X31447184Y-30239540D01*
X32069300Y-30239540D01*
X32071134Y-30688127D01*
X32072968Y-31136715D01*
X32132595Y-31170892D01*
X32142811Y-31176620D01*
X32176210Y-31194006D01*
X32209193Y-31209523D01*
X32235904Y-31220367D01*
X32237919Y-31221054D01*
X32266987Y-31228411D01*
X32302967Y-31234187D01*
X32341697Y-31238070D01*
X32379016Y-31239745D01*
X32410762Y-31238898D01*
X32432772Y-31235215D01*
X32483304Y-31212250D01*
X32529163Y-31176893D01*
X32567919Y-31129704D01*
X32599823Y-31070375D01*
X32625125Y-30998598D01*
X32631392Y-30970817D01*
X32638118Y-30922512D01*
X32642714Y-30864920D01*
X32645214Y-30800813D01*
X32645653Y-30732962D01*
X32644065Y-30664138D01*
X32640484Y-30597115D01*
X32634946Y-30534663D01*
X32627484Y-30479554D01*
X32618133Y-30434561D01*
X32611633Y-30411010D01*
X32586435Y-30337179D01*
X32557016Y-30276428D01*
X32522785Y-30228176D01*
X32483149Y-30191846D01*
X32437517Y-30166858D01*
X32385298Y-30152633D01*
X32325899Y-30148593D01*
X32281307Y-30151894D01*
X32229987Y-30163098D01*
X32176208Y-30183200D01*
X32116640Y-30213227D01*
X32069300Y-30239540D01*
X31447184Y-30239540D01*
X31447343Y-30181612D01*
X31450711Y-28861739D01*
X32147509Y-28861739D01*
X32123211Y-28906269D01*
X32111461Y-28930564D01*
X32099129Y-28962434D01*
X32091484Y-28989986D01*
X32089554Y-29002269D01*
X32086343Y-29032808D01*
X32083439Y-29073128D01*
X32080854Y-29121728D01*
X32078600Y-29177106D01*
X32076688Y-29237761D01*
X32075131Y-29302191D01*
X32073940Y-29368895D01*
X32073128Y-29436373D01*
X32072706Y-29503121D01*
X32072687Y-29567640D01*
X32073081Y-29628427D01*
X32073902Y-29683981D01*
X32075160Y-29732802D01*
X32076869Y-29773387D01*
X32079039Y-29804235D01*
X32081683Y-29823845D01*
X32084812Y-29830715D01*
X32084847Y-29830715D01*
X32093856Y-29826900D01*
X32110836Y-29817023D01*
X32132139Y-29803202D01*
X32187883Y-29768800D01*
X32244312Y-29742169D01*
X32302891Y-29723349D01*
X32320865Y-29719297D01*
X32364325Y-29712057D01*
X32415590Y-29705907D01*
X32470418Y-29701182D01*
X32524566Y-29698215D01*
X32573791Y-29697340D01*
X32613849Y-29698892D01*
X32618503Y-29699301D01*
X32711786Y-29714634D01*
X32799552Y-29742809D01*
X32881371Y-29783368D01*
X32956816Y-29835856D01*
X33025455Y-29899817D01*
X33086859Y-29974795D01*
X33140600Y-30060335D01*
X33186247Y-30155980D01*
X33223371Y-30261275D01*
X33251543Y-30375764D01*
X33254021Y-30388482D01*
X33264181Y-30446748D01*
X33271948Y-30504156D01*
X33277560Y-30563719D01*
X33281254Y-30628446D01*
X33283267Y-30701350D01*
X33283481Y-30732962D01*
X33283837Y-30785441D01*
X33283785Y-30816508D01*
G37*
D11*
%TO.C,R1*%
X31535800Y-20959800D02*
X31535800Y-21559800D01*
X33335800Y-21559800D02*
X33335800Y-20959800D01*
X33135800Y-20759800D02*
X31735800Y-20759800D01*
X31735800Y-21759800D02*
X33135800Y-21759800D01*
X31735800Y-20759800D02*
G75*
G03*
X31535800Y-20959800I1J-200001D01*
G01*
X31535800Y-21559800D02*
G75*
G03*
X31735800Y-21759800I200001J1D01*
G01*
X33135800Y-21759800D02*
G75*
G03*
X33335800Y-21559800I-1J200001D01*
G01*
X33335800Y-20959800D02*
G75*
G03*
X33135800Y-20759800I-200001J-1D01*
G01*
%TO.C,C7*%
X48170000Y-27630000D02*
X48170000Y-27030000D01*
X47970000Y-26830000D02*
X46570000Y-26830000D01*
X46370000Y-27030000D02*
X46370000Y-27630000D01*
X46570000Y-27830000D02*
X47970000Y-27830000D01*
X46570000Y-26830000D02*
G75*
G03*
X46370000Y-27030000I1J-200001D01*
G01*
X47970000Y-27830000D02*
G75*
G03*
X48170000Y-27630000I-1J200001D01*
G01*
X48170000Y-27030000D02*
G75*
G03*
X47970000Y-26830000I-200001J-1D01*
G01*
X46370000Y-27630000D02*
G75*
G03*
X46570000Y-27830000I200001J1D01*
G01*
%TO.C,C9*%
X44470600Y-27979800D02*
X43870600Y-27979800D01*
X43870600Y-29779800D02*
X44470600Y-29779800D01*
X44670600Y-29579800D02*
X44670600Y-28179800D01*
X43670600Y-28179800D02*
X43670600Y-29579800D01*
X44670600Y-28179800D02*
G75*
G03*
X44470600Y-27979800I-200001J-1D01*
G01*
X43870600Y-27979800D02*
G75*
G03*
X43670600Y-28179800I1J-200001D01*
G01*
X44470600Y-29779800D02*
G75*
G03*
X44670600Y-29579800I-1J200001D01*
G01*
X43670600Y-29579800D02*
G75*
G03*
X43870600Y-29779800I200001J1D01*
G01*
%TO.C,C5*%
X27420800Y-26373200D02*
X26020800Y-26373200D01*
X25820800Y-26573200D02*
X25820800Y-27173200D01*
X26020800Y-27373200D02*
X27420800Y-27373200D01*
X27620800Y-27173200D02*
X27620800Y-26573200D01*
X25820800Y-27173200D02*
G75*
G03*
X26020800Y-27373200I200001J1D01*
G01*
X27620800Y-26573200D02*
G75*
G03*
X27420800Y-26373200I-200001J-1D01*
G01*
X27420800Y-27373200D02*
G75*
G03*
X27620800Y-27173200I-1J200001D01*
G01*
X26020800Y-26373200D02*
G75*
G03*
X25820800Y-26573200I1J-200001D01*
G01*
%TO.C,C6*%
X52040000Y-29440000D02*
X52040000Y-28840000D01*
X50240000Y-28840000D02*
X50240000Y-29440000D01*
X51840000Y-28640000D02*
X50440000Y-28640000D01*
X50440000Y-29640000D02*
X51840000Y-29640000D01*
X52040000Y-28840000D02*
G75*
G03*
X51840000Y-28640000I-200001J-1D01*
G01*
X50440000Y-28640000D02*
G75*
G03*
X50240000Y-28840000I1J-200001D01*
G01*
X51840000Y-29640000D02*
G75*
G03*
X52040000Y-29440000I-1J200001D01*
G01*
X50240000Y-29440000D02*
G75*
G03*
X50440000Y-29640000I200001J1D01*
G01*
%TO.C,C12*%
X46580000Y-26230000D02*
X47980000Y-26230000D01*
X48180000Y-26030000D02*
X48180000Y-25430000D01*
X47980000Y-25230000D02*
X46580000Y-25230000D01*
X46380000Y-25430000D02*
X46380000Y-26030000D01*
X46580000Y-25230000D02*
G75*
G03*
X46380000Y-25430000I1J-200001D01*
G01*
X47980000Y-26230000D02*
G75*
G03*
X48180000Y-26030000I-1J200001D01*
G01*
X46380000Y-26030000D02*
G75*
G03*
X46580000Y-26230000I200001J1D01*
G01*
X48180000Y-25430000D02*
G75*
G03*
X47980000Y-25230000I-200001J-1D01*
G01*
%TO.C,R2*%
X40600200Y-25446000D02*
X40600200Y-24846000D01*
X38800200Y-24846000D02*
X38800200Y-25446000D01*
X40400200Y-24646000D02*
X39000200Y-24646000D01*
X39000200Y-25646000D02*
X40400200Y-25646000D01*
X40600200Y-24846000D02*
G75*
G03*
X40400200Y-24646000I-200001J-1D01*
G01*
X38800200Y-25446000D02*
G75*
G03*
X39000200Y-25646000I200001J1D01*
G01*
X39000200Y-24646000D02*
G75*
G03*
X38800200Y-24846000I1J-200001D01*
G01*
X40400200Y-25646000D02*
G75*
G03*
X40600200Y-25446000I-1J200001D01*
G01*
%TO.C,C1*%
X27420800Y-27567000D02*
X26020800Y-27567000D01*
X27620800Y-28367000D02*
X27620800Y-27767000D01*
X26020800Y-28567000D02*
X27420800Y-28567000D01*
X25820800Y-27767000D02*
X25820800Y-28367000D01*
X25820800Y-28367000D02*
G75*
G03*
X26020800Y-28567000I200001J1D01*
G01*
X27620800Y-27767000D02*
G75*
G03*
X27420800Y-27567000I-200001J-1D01*
G01*
X26020800Y-27567000D02*
G75*
G03*
X25820800Y-27767000I1J-200001D01*
G01*
X27420800Y-28567000D02*
G75*
G03*
X27620800Y-28367000I-1J200001D01*
G01*
%TO.C,C8*%
X60090000Y-24210000D02*
X59490000Y-24210000D01*
X59490000Y-26010000D02*
X60090000Y-26010000D01*
X59290000Y-24410000D02*
X59290000Y-25810000D01*
X60290000Y-25810000D02*
X60290000Y-24410000D01*
X60290000Y-24410000D02*
G75*
G03*
X60090000Y-24210000I-200001J-1D01*
G01*
X59490000Y-24210000D02*
G75*
G03*
X59290000Y-24410000I1J-200001D01*
G01*
X60090000Y-26010000D02*
G75*
G03*
X60290000Y-25810000I-1J200001D01*
G01*
X59290000Y-25810000D02*
G75*
G03*
X59490000Y-26010000I200001J1D01*
G01*
%TO.C,C3*%
X51950000Y-23730000D02*
X50550000Y-23730000D01*
X50550000Y-24730000D02*
X51950000Y-24730000D01*
X50350000Y-23930000D02*
X50350000Y-24530000D01*
X52150000Y-24530000D02*
X52150000Y-23930000D01*
X50550000Y-23730000D02*
G75*
G03*
X50350000Y-23930000I1J-200001D01*
G01*
X52150000Y-23930000D02*
G75*
G03*
X51950000Y-23730000I-200001J-1D01*
G01*
X50350000Y-24530000D02*
G75*
G03*
X50550000Y-24730000I200001J1D01*
G01*
X51950000Y-24730000D02*
G75*
G03*
X52150000Y-24530000I-1J200001D01*
G01*
%TO.C,C4*%
X44216600Y-23160000D02*
X43616600Y-23160000D01*
X43416600Y-23360000D02*
X43416600Y-24760000D01*
X43616600Y-24960000D02*
X44216600Y-24960000D01*
X44416600Y-24760000D02*
X44416600Y-23360000D01*
X44216600Y-24960000D02*
G75*
G03*
X44416600Y-24760000I-1J200001D01*
G01*
X44416600Y-23360000D02*
G75*
G03*
X44216600Y-23160000I-200001J-1D01*
G01*
X43416600Y-24760000D02*
G75*
G03*
X43616600Y-24960000I200001J1D01*
G01*
X43616600Y-23160000D02*
G75*
G03*
X43416600Y-23360000I1J-200001D01*
G01*
D10*
%TO.C,U1*%
X22000000Y-30224000D02*
X18900000Y-30224000D01*
X19000000Y-23624000D02*
X22000000Y-23624000D01*
X18600000Y-29924000D02*
X18700000Y-23924000D01*
X22300000Y-23924000D02*
X22300000Y-29924000D01*
X22300000Y-23924000D02*
G75*
G03*
X22000000Y-23624000I-300000J0D01*
G01*
X18600000Y-29924000D02*
G75*
G03*
X18900000Y-30224000I300000J0D01*
G01*
X19000000Y-23624000D02*
G75*
G03*
X18700000Y-23924000I0J-300000D01*
G01*
X22000000Y-30224000D02*
G75*
G03*
X22300000Y-29924000I0J300000D01*
G01*
D11*
%TO.C,C10*%
X58180000Y-24210000D02*
X57580000Y-24210000D01*
X58380000Y-25810000D02*
X58380000Y-24410000D01*
X57380000Y-24410000D02*
X57380000Y-25810000D01*
X57580000Y-26010000D02*
X58180000Y-26010000D01*
X58180000Y-26010000D02*
G75*
G03*
X58380000Y-25810000I-1J200001D01*
G01*
X57380000Y-25810000D02*
G75*
G03*
X57580000Y-26010000I200001J1D01*
G01*
X57580000Y-24210000D02*
G75*
G03*
X57380000Y-24410000I1J-200001D01*
G01*
X58380000Y-24410000D02*
G75*
G03*
X58180000Y-24210000I-200001J-1D01*
G01*
%TD*%
M02*
