M48
; DRILL file {KiCad 6.0.2+dfsg-1} date Сб 02 июл 2022 11:44:03
; FORMAT={-:-/ absolute / metric / decimal}
; #@! TF.CreationDate,2022-07-02T11:44:03+03:00
; #@! TF.GenerationSoftware,Kicad,Pcbnew,6.0.2+dfsg-1
; #@! TF.FileFunction,Plated,1,2,PTH
FMAT,2
METRIC
; #@! TA.AperFunction,Plated,PTH,ViaDrill
T1C0.200
; #@! TA.AperFunction,Plated,PTH,ComponentDrill
T2C0.500
; #@! TA.AperFunction,Plated,PTH,ComponentDrill
T3C0.600
; #@! TA.AperFunction,Plated,PTH,ComponentDrill
T4C0.800
; #@! TA.AperFunction,Plated,PTH,ComponentDrill
T5C1.000
%
G90
G05
T1
X21.692Y-26.441
X21.692Y-27.915
X25.679Y-29.21
X25.806Y-24.181
X34.011Y-31.928
X36.779Y-26.848
X37.694Y-27.711
X38.075Y-28.651
X38.075Y-31.09
X38.1Y-29.489
X38.1Y-30.302
X40.208Y-27.178
X41.224Y-32.156
X41.3Y-25.146
X41.986Y-25.883
X41.986Y-27.203
X43.002Y-30.074
X43.485Y-25.857
X43.51Y-27.203
X43.917Y-22.809
X44.323Y-35.687
X44.577Y-32.436
X44.755Y-29.972
X44.806Y-24.587
X45.161Y-28.296
X45.872Y-27.33
X47.727Y-22.53
X49.682Y-28.575
X49.835Y-26.086
X50.089Y-24.79
X50.394Y-28.143
X50.8Y-26.797
X52.07Y-35.814
X54.61Y-22.403
X56.896Y-26.873
X60.858Y-27.381
X62.789Y-21.996
X67.234Y-31.445
X67.589Y-21.184
T2
X57.887Y-22.809
X59.787Y-22.809
T4
X53.85Y-24.23
X53.85Y-29.11
T5
X17.78Y-19.05
X17.78Y-34.29
X20.32Y-19.05
X20.32Y-34.29
X22.86Y-19.05
X22.86Y-34.29
X25.4Y-19.05
X25.4Y-34.29
X27.94Y-19.05
X27.94Y-34.29
X29.38Y-26.924
X29.385Y-23.114
X30.48Y-19.05
X30.48Y-34.29
X31.92Y-26.924
X31.925Y-23.114
X33.02Y-19.05
X33.02Y-34.29
X34.46Y-26.924
X34.465Y-23.114
X35.56Y-19.05
X35.56Y-34.29
X38.1Y-19.05
X38.1Y-34.29
X40.64Y-19.05
X40.64Y-34.29
X43.18Y-19.05
X43.18Y-34.29
X45.72Y-19.05
X45.72Y-34.29
X48.26Y-19.05
X48.26Y-34.29
X50.8Y-19.05
X50.8Y-34.29
X53.34Y-19.05
X53.34Y-34.29
X55.88Y-19.05
X55.88Y-34.29
X58.42Y-19.05
X58.42Y-34.29
X60.96Y-19.05
X60.96Y-34.29
X63.5Y-19.05
X63.5Y-34.29
X64.459Y-22.87
X64.459Y-25.41
X64.459Y-27.95
X64.459Y-30.49
X66.04Y-19.05
X66.04Y-34.29
T3
G00X18.378Y-22.604
M15
G01X17.778Y-22.604
M16
G05
G00X18.378Y-31.244
M15
G01X17.778Y-31.244
M16
G05
G00X22.808Y-22.604
M15
G01X21.708Y-22.604
M16
G05
G00X22.808Y-31.244
M15
G01X21.708Y-31.244
M16
G05
T0
M30
