%TF.GenerationSoftware,KiCad,Pcbnew,6.0.2+dfsg-1*%
%TF.CreationDate,2022-07-02T11:43:59+03:00*%
%TF.ProjectId,GDBluePill,4744426c-7565-4506-996c-6c2e6b696361,rev?*%
%TF.SameCoordinates,Original*%
%TF.FileFunction,Legend,Top*%
%TF.FilePolarity,Positive*%
%FSLAX46Y46*%
G04 Gerber Fmt 4.6, Leading zero omitted, Abs format (unit mm)*
G04 Created by KiCad (PCBNEW 6.0.2+dfsg-1) date 2022-07-02 11:43:59*
%MOMM*%
%LPD*%
G01*
G04 APERTURE LIST*
%ADD10C,0.120000*%
%ADD11C,0.150000*%
%ADD12C,0.100000*%
%ADD13C,0.050000*%
G04 APERTURE END LIST*
D10*
X46609285Y-20859400D02*
X46537857Y-20823685D01*
X46430714Y-20823685D01*
X46323571Y-20859400D01*
X46252142Y-20930828D01*
X46216428Y-21002257D01*
X46180714Y-21145114D01*
X46180714Y-21252257D01*
X46216428Y-21395114D01*
X46252142Y-21466542D01*
X46323571Y-21537971D01*
X46430714Y-21573685D01*
X46502142Y-21573685D01*
X46609285Y-21537971D01*
X46645000Y-21502257D01*
X46645000Y-21252257D01*
X46502142Y-21252257D01*
X46966428Y-21573685D02*
X46966428Y-20823685D01*
X47145000Y-20823685D01*
X47252142Y-20859400D01*
X47323571Y-20930828D01*
X47359285Y-21002257D01*
X47395000Y-21145114D01*
X47395000Y-21252257D01*
X47359285Y-21395114D01*
X47323571Y-21466542D01*
X47252142Y-21537971D01*
X47145000Y-21573685D01*
X46966428Y-21573685D01*
X47645000Y-20823685D02*
X48109285Y-20823685D01*
X47859285Y-21109400D01*
X47966428Y-21109400D01*
X48037857Y-21145114D01*
X48073571Y-21180828D01*
X48109285Y-21252257D01*
X48109285Y-21430828D01*
X48073571Y-21502257D01*
X48037857Y-21537971D01*
X47966428Y-21573685D01*
X47752142Y-21573685D01*
X47680714Y-21537971D01*
X47645000Y-21502257D01*
X48395000Y-20895114D02*
X48430714Y-20859400D01*
X48502142Y-20823685D01*
X48680714Y-20823685D01*
X48752142Y-20859400D01*
X48787857Y-20895114D01*
X48823571Y-20966542D01*
X48823571Y-21037971D01*
X48787857Y-21145114D01*
X48359285Y-21573685D01*
X48823571Y-21573685D01*
X49395000Y-21180828D02*
X49145000Y-21180828D01*
X49145000Y-21573685D02*
X49145000Y-20823685D01*
X49502142Y-20823685D01*
X50180714Y-21573685D02*
X49752142Y-21573685D01*
X49966428Y-21573685D02*
X49966428Y-20823685D01*
X49895000Y-20930828D01*
X49823571Y-21002257D01*
X49752142Y-21037971D01*
X50645000Y-20823685D02*
X50716428Y-20823685D01*
X50787857Y-20859400D01*
X50823571Y-20895114D01*
X50859285Y-20966542D01*
X50895000Y-21109400D01*
X50895000Y-21287971D01*
X50859285Y-21430828D01*
X50823571Y-21502257D01*
X50787857Y-21537971D01*
X50716428Y-21573685D01*
X50645000Y-21573685D01*
X50573571Y-21537971D01*
X50537857Y-21502257D01*
X50502142Y-21430828D01*
X50466428Y-21287971D01*
X50466428Y-21109400D01*
X50502142Y-20966542D01*
X50537857Y-20895114D01*
X50573571Y-20859400D01*
X50645000Y-20823685D01*
X51145000Y-20823685D02*
X51609285Y-20823685D01*
X51359285Y-21109400D01*
X51466428Y-21109400D01*
X51537857Y-21145114D01*
X51573571Y-21180828D01*
X51609285Y-21252257D01*
X51609285Y-21430828D01*
X51573571Y-21502257D01*
X51537857Y-21537971D01*
X51466428Y-21573685D01*
X51252142Y-21573685D01*
X51180714Y-21537971D01*
X51145000Y-21502257D01*
X65111428Y-36241485D02*
X65575714Y-36241485D01*
X65325714Y-36527200D01*
X65432857Y-36527200D01*
X65504285Y-36562914D01*
X65540000Y-36598628D01*
X65575714Y-36670057D01*
X65575714Y-36848628D01*
X65540000Y-36920057D01*
X65504285Y-36955771D01*
X65432857Y-36991485D01*
X65218571Y-36991485D01*
X65147142Y-36955771D01*
X65111428Y-36920057D01*
X65790000Y-36241485D02*
X66040000Y-36991485D01*
X66290000Y-36241485D01*
X66468571Y-36241485D02*
X66932857Y-36241485D01*
X66682857Y-36527200D01*
X66790000Y-36527200D01*
X66861428Y-36562914D01*
X66897142Y-36598628D01*
X66932857Y-36670057D01*
X66932857Y-36848628D01*
X66897142Y-36920057D01*
X66861428Y-36955771D01*
X66790000Y-36991485D01*
X66575714Y-36991485D01*
X66504285Y-36955771D01*
X66468571Y-36920057D01*
X62928571Y-36353400D02*
X62857142Y-36317685D01*
X62750000Y-36317685D01*
X62642857Y-36353400D01*
X62571428Y-36424828D01*
X62535714Y-36496257D01*
X62500000Y-36639114D01*
X62500000Y-36746257D01*
X62535714Y-36889114D01*
X62571428Y-36960542D01*
X62642857Y-37031971D01*
X62750000Y-37067685D01*
X62821428Y-37067685D01*
X62928571Y-37031971D01*
X62964285Y-36996257D01*
X62964285Y-36746257D01*
X62821428Y-36746257D01*
X63285714Y-37067685D02*
X63285714Y-36317685D01*
X63714285Y-37067685D01*
X63714285Y-36317685D01*
X64071428Y-37067685D02*
X64071428Y-36317685D01*
X64250000Y-36317685D01*
X64357142Y-36353400D01*
X64428571Y-36424828D01*
X64464285Y-36496257D01*
X64500000Y-36639114D01*
X64500000Y-36746257D01*
X64464285Y-36889114D01*
X64428571Y-36960542D01*
X64357142Y-37031971D01*
X64250000Y-37067685D01*
X64071428Y-37067685D01*
X59995714Y-36705771D02*
X60567142Y-36705771D01*
X60281428Y-36991485D02*
X60281428Y-36420057D01*
X61281428Y-36241485D02*
X60924285Y-36241485D01*
X60888571Y-36598628D01*
X60924285Y-36562914D01*
X60995714Y-36527200D01*
X61174285Y-36527200D01*
X61245714Y-36562914D01*
X61281428Y-36598628D01*
X61317142Y-36670057D01*
X61317142Y-36848628D01*
X61281428Y-36920057D01*
X61245714Y-36955771D01*
X61174285Y-36991485D01*
X60995714Y-36991485D01*
X60924285Y-36955771D01*
X60888571Y-36920057D01*
X61531428Y-36241485D02*
X61781428Y-36991485D01*
X62031428Y-36241485D01*
X58116428Y-36598628D02*
X58223571Y-36634342D01*
X58259285Y-36670057D01*
X58295000Y-36741485D01*
X58295000Y-36848628D01*
X58259285Y-36920057D01*
X58223571Y-36955771D01*
X58152142Y-36991485D01*
X57866428Y-36991485D01*
X57866428Y-36241485D01*
X58116428Y-36241485D01*
X58187857Y-36277200D01*
X58223571Y-36312914D01*
X58259285Y-36384342D01*
X58259285Y-36455771D01*
X58223571Y-36527200D01*
X58187857Y-36562914D01*
X58116428Y-36598628D01*
X57866428Y-36598628D01*
X58652142Y-36991485D02*
X58795000Y-36991485D01*
X58866428Y-36955771D01*
X58902142Y-36920057D01*
X58973571Y-36812914D01*
X59009285Y-36670057D01*
X59009285Y-36384342D01*
X58973571Y-36312914D01*
X58937857Y-36277200D01*
X58866428Y-36241485D01*
X58723571Y-36241485D01*
X58652142Y-36277200D01*
X58616428Y-36312914D01*
X58580714Y-36384342D01*
X58580714Y-36562914D01*
X58616428Y-36634342D01*
X58652142Y-36670057D01*
X58723571Y-36705771D01*
X58866428Y-36705771D01*
X58937857Y-36670057D01*
X58973571Y-36634342D01*
X59009285Y-36562914D01*
X55576428Y-36598628D02*
X55683571Y-36634342D01*
X55719285Y-36670057D01*
X55755000Y-36741485D01*
X55755000Y-36848628D01*
X55719285Y-36920057D01*
X55683571Y-36955771D01*
X55612142Y-36991485D01*
X55326428Y-36991485D01*
X55326428Y-36241485D01*
X55576428Y-36241485D01*
X55647857Y-36277200D01*
X55683571Y-36312914D01*
X55719285Y-36384342D01*
X55719285Y-36455771D01*
X55683571Y-36527200D01*
X55647857Y-36562914D01*
X55576428Y-36598628D01*
X55326428Y-36598628D01*
X56183571Y-36562914D02*
X56112142Y-36527200D01*
X56076428Y-36491485D01*
X56040714Y-36420057D01*
X56040714Y-36384342D01*
X56076428Y-36312914D01*
X56112142Y-36277200D01*
X56183571Y-36241485D01*
X56326428Y-36241485D01*
X56397857Y-36277200D01*
X56433571Y-36312914D01*
X56469285Y-36384342D01*
X56469285Y-36420057D01*
X56433571Y-36491485D01*
X56397857Y-36527200D01*
X56326428Y-36562914D01*
X56183571Y-36562914D01*
X56112142Y-36598628D01*
X56076428Y-36634342D01*
X56040714Y-36705771D01*
X56040714Y-36848628D01*
X56076428Y-36920057D01*
X56112142Y-36955771D01*
X56183571Y-36991485D01*
X56326428Y-36991485D01*
X56397857Y-36955771D01*
X56433571Y-36920057D01*
X56469285Y-36848628D01*
X56469285Y-36705771D01*
X56433571Y-36634342D01*
X56397857Y-36598628D01*
X56326428Y-36562914D01*
X53036428Y-36598628D02*
X53143571Y-36634342D01*
X53179285Y-36670057D01*
X53215000Y-36741485D01*
X53215000Y-36848628D01*
X53179285Y-36920057D01*
X53143571Y-36955771D01*
X53072142Y-36991485D01*
X52786428Y-36991485D01*
X52786428Y-36241485D01*
X53036428Y-36241485D01*
X53107857Y-36277200D01*
X53143571Y-36312914D01*
X53179285Y-36384342D01*
X53179285Y-36455771D01*
X53143571Y-36527200D01*
X53107857Y-36562914D01*
X53036428Y-36598628D01*
X52786428Y-36598628D01*
X53465000Y-36241485D02*
X53965000Y-36241485D01*
X53643571Y-36991485D01*
X50496428Y-36598628D02*
X50603571Y-36634342D01*
X50639285Y-36670057D01*
X50675000Y-36741485D01*
X50675000Y-36848628D01*
X50639285Y-36920057D01*
X50603571Y-36955771D01*
X50532142Y-36991485D01*
X50246428Y-36991485D01*
X50246428Y-36241485D01*
X50496428Y-36241485D01*
X50567857Y-36277200D01*
X50603571Y-36312914D01*
X50639285Y-36384342D01*
X50639285Y-36455771D01*
X50603571Y-36527200D01*
X50567857Y-36562914D01*
X50496428Y-36598628D01*
X50246428Y-36598628D01*
X51317857Y-36241485D02*
X51175000Y-36241485D01*
X51103571Y-36277200D01*
X51067857Y-36312914D01*
X50996428Y-36420057D01*
X50960714Y-36562914D01*
X50960714Y-36848628D01*
X50996428Y-36920057D01*
X51032142Y-36955771D01*
X51103571Y-36991485D01*
X51246428Y-36991485D01*
X51317857Y-36955771D01*
X51353571Y-36920057D01*
X51389285Y-36848628D01*
X51389285Y-36670057D01*
X51353571Y-36598628D01*
X51317857Y-36562914D01*
X51246428Y-36527200D01*
X51103571Y-36527200D01*
X51032142Y-36562914D01*
X50996428Y-36598628D01*
X50960714Y-36670057D01*
X47956428Y-36598628D02*
X48063571Y-36634342D01*
X48099285Y-36670057D01*
X48135000Y-36741485D01*
X48135000Y-36848628D01*
X48099285Y-36920057D01*
X48063571Y-36955771D01*
X47992142Y-36991485D01*
X47706428Y-36991485D01*
X47706428Y-36241485D01*
X47956428Y-36241485D01*
X48027857Y-36277200D01*
X48063571Y-36312914D01*
X48099285Y-36384342D01*
X48099285Y-36455771D01*
X48063571Y-36527200D01*
X48027857Y-36562914D01*
X47956428Y-36598628D01*
X47706428Y-36598628D01*
X48813571Y-36241485D02*
X48456428Y-36241485D01*
X48420714Y-36598628D01*
X48456428Y-36562914D01*
X48527857Y-36527200D01*
X48706428Y-36527200D01*
X48777857Y-36562914D01*
X48813571Y-36598628D01*
X48849285Y-36670057D01*
X48849285Y-36848628D01*
X48813571Y-36920057D01*
X48777857Y-36955771D01*
X48706428Y-36991485D01*
X48527857Y-36991485D01*
X48456428Y-36955771D01*
X48420714Y-36920057D01*
X45416428Y-36598628D02*
X45523571Y-36634342D01*
X45559285Y-36670057D01*
X45595000Y-36741485D01*
X45595000Y-36848628D01*
X45559285Y-36920057D01*
X45523571Y-36955771D01*
X45452142Y-36991485D01*
X45166428Y-36991485D01*
X45166428Y-36241485D01*
X45416428Y-36241485D01*
X45487857Y-36277200D01*
X45523571Y-36312914D01*
X45559285Y-36384342D01*
X45559285Y-36455771D01*
X45523571Y-36527200D01*
X45487857Y-36562914D01*
X45416428Y-36598628D01*
X45166428Y-36598628D01*
X46237857Y-36491485D02*
X46237857Y-36991485D01*
X46059285Y-36205771D02*
X45880714Y-36741485D01*
X46345000Y-36741485D01*
X42876428Y-36598628D02*
X42983571Y-36634342D01*
X43019285Y-36670057D01*
X43055000Y-36741485D01*
X43055000Y-36848628D01*
X43019285Y-36920057D01*
X42983571Y-36955771D01*
X42912142Y-36991485D01*
X42626428Y-36991485D01*
X42626428Y-36241485D01*
X42876428Y-36241485D01*
X42947857Y-36277200D01*
X42983571Y-36312914D01*
X43019285Y-36384342D01*
X43019285Y-36455771D01*
X42983571Y-36527200D01*
X42947857Y-36562914D01*
X42876428Y-36598628D01*
X42626428Y-36598628D01*
X43305000Y-36241485D02*
X43769285Y-36241485D01*
X43519285Y-36527200D01*
X43626428Y-36527200D01*
X43697857Y-36562914D01*
X43733571Y-36598628D01*
X43769285Y-36670057D01*
X43769285Y-36848628D01*
X43733571Y-36920057D01*
X43697857Y-36955771D01*
X43626428Y-36991485D01*
X43412142Y-36991485D01*
X43340714Y-36955771D01*
X43305000Y-36920057D01*
X39747142Y-36777200D02*
X40104285Y-36777200D01*
X39675714Y-36991485D02*
X39925714Y-36241485D01*
X40175714Y-36991485D01*
X40818571Y-36991485D02*
X40390000Y-36991485D01*
X40604285Y-36991485D02*
X40604285Y-36241485D01*
X40532857Y-36348628D01*
X40461428Y-36420057D01*
X40390000Y-36455771D01*
X41497142Y-36241485D02*
X41140000Y-36241485D01*
X41104285Y-36598628D01*
X41140000Y-36562914D01*
X41211428Y-36527200D01*
X41390000Y-36527200D01*
X41461428Y-36562914D01*
X41497142Y-36598628D01*
X41532857Y-36670057D01*
X41532857Y-36848628D01*
X41497142Y-36920057D01*
X41461428Y-36955771D01*
X41390000Y-36991485D01*
X41211428Y-36991485D01*
X41140000Y-36955771D01*
X41104285Y-36920057D01*
X37207142Y-36777200D02*
X37564285Y-36777200D01*
X37135714Y-36991485D02*
X37385714Y-36241485D01*
X37635714Y-36991485D01*
X38278571Y-36991485D02*
X37850000Y-36991485D01*
X38064285Y-36991485D02*
X38064285Y-36241485D01*
X37992857Y-36348628D01*
X37921428Y-36420057D01*
X37850000Y-36455771D01*
X38564285Y-36312914D02*
X38600000Y-36277200D01*
X38671428Y-36241485D01*
X38850000Y-36241485D01*
X38921428Y-36277200D01*
X38957142Y-36312914D01*
X38992857Y-36384342D01*
X38992857Y-36455771D01*
X38957142Y-36562914D01*
X38528571Y-36991485D01*
X38992857Y-36991485D01*
X34667142Y-36777200D02*
X35024285Y-36777200D01*
X34595714Y-36991485D02*
X34845714Y-36241485D01*
X35095714Y-36991485D01*
X35738571Y-36991485D02*
X35310000Y-36991485D01*
X35524285Y-36991485D02*
X35524285Y-36241485D01*
X35452857Y-36348628D01*
X35381428Y-36420057D01*
X35310000Y-36455771D01*
X36452857Y-36991485D02*
X36024285Y-36991485D01*
X36238571Y-36991485D02*
X36238571Y-36241485D01*
X36167142Y-36348628D01*
X36095714Y-36420057D01*
X36024285Y-36455771D01*
X32127142Y-36777200D02*
X32484285Y-36777200D01*
X32055714Y-36991485D02*
X32305714Y-36241485D01*
X32555714Y-36991485D01*
X33198571Y-36991485D02*
X32770000Y-36991485D01*
X32984285Y-36991485D02*
X32984285Y-36241485D01*
X32912857Y-36348628D01*
X32841428Y-36420057D01*
X32770000Y-36455771D01*
X33662857Y-36241485D02*
X33734285Y-36241485D01*
X33805714Y-36277200D01*
X33841428Y-36312914D01*
X33877142Y-36384342D01*
X33912857Y-36527200D01*
X33912857Y-36705771D01*
X33877142Y-36848628D01*
X33841428Y-36920057D01*
X33805714Y-36955771D01*
X33734285Y-36991485D01*
X33662857Y-36991485D01*
X33591428Y-36955771D01*
X33555714Y-36920057D01*
X33520000Y-36848628D01*
X33484285Y-36705771D01*
X33484285Y-36527200D01*
X33520000Y-36384342D01*
X33555714Y-36312914D01*
X33591428Y-36277200D01*
X33662857Y-36241485D01*
X29944285Y-36777200D02*
X30301428Y-36777200D01*
X29872857Y-36991485D02*
X30122857Y-36241485D01*
X30372857Y-36991485D01*
X30658571Y-36991485D02*
X30801428Y-36991485D01*
X30872857Y-36955771D01*
X30908571Y-36920057D01*
X30980000Y-36812914D01*
X31015714Y-36670057D01*
X31015714Y-36384342D01*
X30980000Y-36312914D01*
X30944285Y-36277200D01*
X30872857Y-36241485D01*
X30730000Y-36241485D01*
X30658571Y-36277200D01*
X30622857Y-36312914D01*
X30587142Y-36384342D01*
X30587142Y-36562914D01*
X30622857Y-36634342D01*
X30658571Y-36670057D01*
X30730000Y-36705771D01*
X30872857Y-36705771D01*
X30944285Y-36670057D01*
X30980000Y-36634342D01*
X31015714Y-36562914D01*
X27404285Y-36777200D02*
X27761428Y-36777200D01*
X27332857Y-36991485D02*
X27582857Y-36241485D01*
X27832857Y-36991485D01*
X28190000Y-36562914D02*
X28118571Y-36527200D01*
X28082857Y-36491485D01*
X28047142Y-36420057D01*
X28047142Y-36384342D01*
X28082857Y-36312914D01*
X28118571Y-36277200D01*
X28190000Y-36241485D01*
X28332857Y-36241485D01*
X28404285Y-36277200D01*
X28440000Y-36312914D01*
X28475714Y-36384342D01*
X28475714Y-36420057D01*
X28440000Y-36491485D01*
X28404285Y-36527200D01*
X28332857Y-36562914D01*
X28190000Y-36562914D01*
X28118571Y-36598628D01*
X28082857Y-36634342D01*
X28047142Y-36705771D01*
X28047142Y-36848628D01*
X28082857Y-36920057D01*
X28118571Y-36955771D01*
X28190000Y-36991485D01*
X28332857Y-36991485D01*
X28404285Y-36955771D01*
X28440000Y-36920057D01*
X28475714Y-36848628D01*
X28475714Y-36705771D01*
X28440000Y-36634342D01*
X28404285Y-36598628D01*
X28332857Y-36562914D01*
X24739285Y-36598628D02*
X24846428Y-36634342D01*
X24882142Y-36670057D01*
X24917857Y-36741485D01*
X24917857Y-36848628D01*
X24882142Y-36920057D01*
X24846428Y-36955771D01*
X24775000Y-36991485D01*
X24489285Y-36991485D01*
X24489285Y-36241485D01*
X24739285Y-36241485D01*
X24810714Y-36277200D01*
X24846428Y-36312914D01*
X24882142Y-36384342D01*
X24882142Y-36455771D01*
X24846428Y-36527200D01*
X24810714Y-36562914D01*
X24739285Y-36598628D01*
X24489285Y-36598628D01*
X25632142Y-36991485D02*
X25203571Y-36991485D01*
X25417857Y-36991485D02*
X25417857Y-36241485D01*
X25346428Y-36348628D01*
X25275000Y-36420057D01*
X25203571Y-36455771D01*
X26310714Y-36241485D02*
X25953571Y-36241485D01*
X25917857Y-36598628D01*
X25953571Y-36562914D01*
X26025000Y-36527200D01*
X26203571Y-36527200D01*
X26275000Y-36562914D01*
X26310714Y-36598628D01*
X26346428Y-36670057D01*
X26346428Y-36848628D01*
X26310714Y-36920057D01*
X26275000Y-36955771D01*
X26203571Y-36991485D01*
X26025000Y-36991485D01*
X25953571Y-36955771D01*
X25917857Y-36920057D01*
X22199285Y-36598628D02*
X22306428Y-36634342D01*
X22342142Y-36670057D01*
X22377857Y-36741485D01*
X22377857Y-36848628D01*
X22342142Y-36920057D01*
X22306428Y-36955771D01*
X22235000Y-36991485D01*
X21949285Y-36991485D01*
X21949285Y-36241485D01*
X22199285Y-36241485D01*
X22270714Y-36277200D01*
X22306428Y-36312914D01*
X22342142Y-36384342D01*
X22342142Y-36455771D01*
X22306428Y-36527200D01*
X22270714Y-36562914D01*
X22199285Y-36598628D01*
X21949285Y-36598628D01*
X23092142Y-36991485D02*
X22663571Y-36991485D01*
X22877857Y-36991485D02*
X22877857Y-36241485D01*
X22806428Y-36348628D01*
X22735000Y-36420057D01*
X22663571Y-36455771D01*
X23735000Y-36491485D02*
X23735000Y-36991485D01*
X23556428Y-36205771D02*
X23377857Y-36741485D01*
X23842142Y-36741485D01*
X19659285Y-36598628D02*
X19766428Y-36634342D01*
X19802142Y-36670057D01*
X19837857Y-36741485D01*
X19837857Y-36848628D01*
X19802142Y-36920057D01*
X19766428Y-36955771D01*
X19695000Y-36991485D01*
X19409285Y-36991485D01*
X19409285Y-36241485D01*
X19659285Y-36241485D01*
X19730714Y-36277200D01*
X19766428Y-36312914D01*
X19802142Y-36384342D01*
X19802142Y-36455771D01*
X19766428Y-36527200D01*
X19730714Y-36562914D01*
X19659285Y-36598628D01*
X19409285Y-36598628D01*
X20552142Y-36991485D02*
X20123571Y-36991485D01*
X20337857Y-36991485D02*
X20337857Y-36241485D01*
X20266428Y-36348628D01*
X20195000Y-36420057D01*
X20123571Y-36455771D01*
X20802142Y-36241485D02*
X21266428Y-36241485D01*
X21016428Y-36527200D01*
X21123571Y-36527200D01*
X21195000Y-36562914D01*
X21230714Y-36598628D01*
X21266428Y-36670057D01*
X21266428Y-36848628D01*
X21230714Y-36920057D01*
X21195000Y-36955771D01*
X21123571Y-36991485D01*
X20909285Y-36991485D01*
X20837857Y-36955771D01*
X20802142Y-36920057D01*
X17119285Y-36598628D02*
X17226428Y-36634342D01*
X17262142Y-36670057D01*
X17297857Y-36741485D01*
X17297857Y-36848628D01*
X17262142Y-36920057D01*
X17226428Y-36955771D01*
X17155000Y-36991485D01*
X16869285Y-36991485D01*
X16869285Y-36241485D01*
X17119285Y-36241485D01*
X17190714Y-36277200D01*
X17226428Y-36312914D01*
X17262142Y-36384342D01*
X17262142Y-36455771D01*
X17226428Y-36527200D01*
X17190714Y-36562914D01*
X17119285Y-36598628D01*
X16869285Y-36598628D01*
X18012142Y-36991485D02*
X17583571Y-36991485D01*
X17797857Y-36991485D02*
X17797857Y-36241485D01*
X17726428Y-36348628D01*
X17655000Y-36420057D01*
X17583571Y-36455771D01*
X18297857Y-36312914D02*
X18333571Y-36277200D01*
X18405000Y-36241485D01*
X18583571Y-36241485D01*
X18655000Y-36277200D01*
X18690714Y-36312914D01*
X18726428Y-36384342D01*
X18726428Y-36455771D01*
X18690714Y-36562914D01*
X18262142Y-36991485D01*
X18726428Y-36991485D01*
D11*
X50318807Y-24790400D02*
G75*
G03*
X50318807Y-24790400I-230007J0D01*
G01*
D10*
X43715715Y-16486600D02*
X43358572Y-16486600D01*
X43787143Y-16272314D02*
X43537143Y-17022314D01*
X43287143Y-16272314D01*
X42680001Y-17022314D02*
X43037143Y-17022314D01*
X43072858Y-16665171D01*
X43037143Y-16700885D01*
X42965715Y-16736600D01*
X42787143Y-16736600D01*
X42715715Y-16700885D01*
X42680001Y-16665171D01*
X42644286Y-16593742D01*
X42644286Y-16415171D01*
X42680001Y-16343742D01*
X42715715Y-16308028D01*
X42787143Y-16272314D01*
X42965715Y-16272314D01*
X43037143Y-16308028D01*
X43072858Y-16343742D01*
X38635715Y-16486600D02*
X38278572Y-16486600D01*
X38707143Y-16272314D02*
X38457143Y-17022314D01*
X38207143Y-16272314D01*
X38028572Y-17022314D02*
X37528572Y-17022314D01*
X37850001Y-16272314D01*
X56415715Y-16486600D02*
X56058572Y-16486600D01*
X56487143Y-16272314D02*
X56237143Y-17022314D01*
X55987143Y-16272314D01*
X55594286Y-17022314D02*
X55522858Y-17022314D01*
X55451429Y-16986600D01*
X55415715Y-16950885D01*
X55380001Y-16879457D01*
X55344286Y-16736600D01*
X55344286Y-16558028D01*
X55380001Y-16415171D01*
X55415715Y-16343742D01*
X55451429Y-16308028D01*
X55522858Y-16272314D01*
X55594286Y-16272314D01*
X55665715Y-16308028D01*
X55701429Y-16343742D01*
X55737143Y-16415171D01*
X55772858Y-16558028D01*
X55772858Y-16736600D01*
X55737143Y-16879457D01*
X55701429Y-16950885D01*
X55665715Y-16986600D01*
X55594286Y-17022314D01*
X48795715Y-16486600D02*
X48438572Y-16486600D01*
X48867143Y-16272314D02*
X48617143Y-17022314D01*
X48367143Y-16272314D01*
X48188572Y-17022314D02*
X47724286Y-17022314D01*
X47974286Y-16736600D01*
X47867143Y-16736600D01*
X47795715Y-16700885D01*
X47760001Y-16665171D01*
X47724286Y-16593742D01*
X47724286Y-16415171D01*
X47760001Y-16343742D01*
X47795715Y-16308028D01*
X47867143Y-16272314D01*
X48081429Y-16272314D01*
X48152858Y-16308028D01*
X48188572Y-16343742D01*
X31140715Y-16665171D02*
X31033572Y-16629457D01*
X30997858Y-16593742D01*
X30962143Y-16522314D01*
X30962143Y-16415171D01*
X30997858Y-16343742D01*
X31033572Y-16308028D01*
X31105001Y-16272314D01*
X31390715Y-16272314D01*
X31390715Y-17022314D01*
X31140715Y-17022314D01*
X31069286Y-16986600D01*
X31033572Y-16950885D01*
X30997858Y-16879457D01*
X30997858Y-16808028D01*
X31033572Y-16736600D01*
X31069286Y-16700885D01*
X31140715Y-16665171D01*
X31390715Y-16665171D01*
X30247858Y-16272314D02*
X30676429Y-16272314D01*
X30462143Y-16272314D02*
X30462143Y-17022314D01*
X30533572Y-16915171D01*
X30605001Y-16843742D01*
X30676429Y-16808028D01*
X29783572Y-17022314D02*
X29712143Y-17022314D01*
X29640715Y-16986600D01*
X29605001Y-16950885D01*
X29569286Y-16879457D01*
X29533572Y-16736600D01*
X29533572Y-16558028D01*
X29569286Y-16415171D01*
X29605001Y-16343742D01*
X29640715Y-16308028D01*
X29712143Y-16272314D01*
X29783572Y-16272314D01*
X29855001Y-16308028D01*
X29890715Y-16343742D01*
X29926429Y-16415171D01*
X29962143Y-16558028D01*
X29962143Y-16736600D01*
X29926429Y-16879457D01*
X29890715Y-16950885D01*
X29855001Y-16986600D01*
X29783572Y-17022314D01*
X53875715Y-16486600D02*
X53518572Y-16486600D01*
X53947143Y-16272314D02*
X53697143Y-17022314D01*
X53447143Y-16272314D01*
X52804286Y-16272314D02*
X53232858Y-16272314D01*
X53018572Y-16272314D02*
X53018572Y-17022314D01*
X53090001Y-16915171D01*
X53161429Y-16843742D01*
X53232858Y-16808028D01*
X20891428Y-16986600D02*
X20962857Y-17022314D01*
X21070000Y-17022314D01*
X21177142Y-16986600D01*
X21248571Y-16915171D01*
X21284285Y-16843742D01*
X21320000Y-16700885D01*
X21320000Y-16593742D01*
X21284285Y-16450885D01*
X21248571Y-16379457D01*
X21177142Y-16308028D01*
X21070000Y-16272314D01*
X20998571Y-16272314D01*
X20891428Y-16308028D01*
X20855714Y-16343742D01*
X20855714Y-16593742D01*
X20998571Y-16593742D01*
X20534285Y-16272314D02*
X20534285Y-17022314D01*
X20105714Y-16272314D01*
X20105714Y-17022314D01*
X19748571Y-16272314D02*
X19748571Y-17022314D01*
X19570000Y-17022314D01*
X19462857Y-16986600D01*
X19391428Y-16915171D01*
X19355714Y-16843742D01*
X19320000Y-16700885D01*
X19320000Y-16593742D01*
X19355714Y-16450885D01*
X19391428Y-16379457D01*
X19462857Y-16308028D01*
X19570000Y-16272314D01*
X19748571Y-16272314D01*
X46255715Y-16486600D02*
X45898572Y-16486600D01*
X46327143Y-16272314D02*
X46077143Y-17022314D01*
X45827143Y-16272314D01*
X45255715Y-16772314D02*
X45255715Y-16272314D01*
X45434286Y-17058028D02*
X45612858Y-16522314D01*
X45148572Y-16522314D01*
X18351428Y-16986600D02*
X18422857Y-17022314D01*
X18530000Y-17022314D01*
X18637142Y-16986600D01*
X18708571Y-16915171D01*
X18744285Y-16843742D01*
X18780000Y-16700885D01*
X18780000Y-16593742D01*
X18744285Y-16450885D01*
X18708571Y-16379457D01*
X18637142Y-16308028D01*
X18530000Y-16272314D01*
X18458571Y-16272314D01*
X18351428Y-16308028D01*
X18315714Y-16343742D01*
X18315714Y-16593742D01*
X18458571Y-16593742D01*
X17994285Y-16272314D02*
X17994285Y-17022314D01*
X17565714Y-16272314D01*
X17565714Y-17022314D01*
X17208571Y-16272314D02*
X17208571Y-17022314D01*
X17030000Y-17022314D01*
X16922857Y-16986600D01*
X16851428Y-16915171D01*
X16815714Y-16843742D01*
X16780000Y-16700885D01*
X16780000Y-16593742D01*
X16815714Y-16450885D01*
X16851428Y-16379457D01*
X16922857Y-16308028D01*
X17030000Y-16272314D01*
X17208571Y-16272314D01*
X28600715Y-16665171D02*
X28493572Y-16629457D01*
X28457858Y-16593742D01*
X28422143Y-16522314D01*
X28422143Y-16415171D01*
X28457858Y-16343742D01*
X28493572Y-16308028D01*
X28565001Y-16272314D01*
X28850715Y-16272314D01*
X28850715Y-17022314D01*
X28600715Y-17022314D01*
X28529286Y-16986600D01*
X28493572Y-16950885D01*
X28457858Y-16879457D01*
X28457858Y-16808028D01*
X28493572Y-16736600D01*
X28529286Y-16700885D01*
X28600715Y-16665171D01*
X28850715Y-16665171D01*
X27707858Y-16272314D02*
X28136429Y-16272314D01*
X27922143Y-16272314D02*
X27922143Y-17022314D01*
X27993572Y-16915171D01*
X28065001Y-16843742D01*
X28136429Y-16808028D01*
X26993572Y-16272314D02*
X27422143Y-16272314D01*
X27207858Y-16272314D02*
X27207858Y-17022314D01*
X27279286Y-16915171D01*
X27350715Y-16843742D01*
X27422143Y-16808028D01*
X33323571Y-16665171D02*
X33216428Y-16629457D01*
X33180714Y-16593742D01*
X33145000Y-16522314D01*
X33145000Y-16415171D01*
X33180714Y-16343742D01*
X33216428Y-16308028D01*
X33287857Y-16272314D01*
X33573571Y-16272314D01*
X33573571Y-17022314D01*
X33323571Y-17022314D01*
X33252142Y-16986600D01*
X33216428Y-16950885D01*
X33180714Y-16879457D01*
X33180714Y-16808028D01*
X33216428Y-16736600D01*
X33252142Y-16700885D01*
X33323571Y-16665171D01*
X33573571Y-16665171D01*
X32430714Y-16272314D02*
X32859285Y-16272314D01*
X32645000Y-16272314D02*
X32645000Y-17022314D01*
X32716428Y-16915171D01*
X32787857Y-16843742D01*
X32859285Y-16808028D01*
X67182858Y-17022314D02*
X66932858Y-16272314D01*
X66682858Y-17022314D01*
X66432858Y-16272314D02*
X66432858Y-17022314D01*
X66432858Y-16736600D02*
X66361429Y-16772314D01*
X66218572Y-16772314D01*
X66147143Y-16736600D01*
X66111429Y-16700885D01*
X66075715Y-16629457D01*
X66075715Y-16415171D01*
X66111429Y-16343742D01*
X66147143Y-16308028D01*
X66218572Y-16272314D01*
X66361429Y-16272314D01*
X66432858Y-16308028D01*
X65432858Y-16272314D02*
X65432858Y-16665171D01*
X65468572Y-16736600D01*
X65540001Y-16772314D01*
X65682858Y-16772314D01*
X65754286Y-16736600D01*
X65432858Y-16308028D02*
X65504286Y-16272314D01*
X65682858Y-16272314D01*
X65754286Y-16308028D01*
X65790001Y-16379457D01*
X65790001Y-16450885D01*
X65754286Y-16522314D01*
X65682858Y-16558028D01*
X65504286Y-16558028D01*
X65432858Y-16593742D01*
X65182858Y-16772314D02*
X64897143Y-16772314D01*
X65075715Y-17022314D02*
X65075715Y-16379457D01*
X65040001Y-16308028D01*
X64968572Y-16272314D01*
X64897143Y-16272314D01*
X23788572Y-17022314D02*
X23324286Y-17022314D01*
X23574286Y-16736600D01*
X23467143Y-16736600D01*
X23395715Y-16700885D01*
X23360001Y-16665171D01*
X23324286Y-16593742D01*
X23324286Y-16415171D01*
X23360001Y-16343742D01*
X23395715Y-16308028D01*
X23467143Y-16272314D01*
X23681429Y-16272314D01*
X23752858Y-16308028D01*
X23788572Y-16343742D01*
X23110001Y-17022314D02*
X22860001Y-16272314D01*
X22610001Y-17022314D01*
X22431429Y-17022314D02*
X21967143Y-17022314D01*
X22217143Y-16736600D01*
X22110001Y-16736600D01*
X22038572Y-16700885D01*
X22002858Y-16665171D01*
X21967143Y-16593742D01*
X21967143Y-16415171D01*
X22002858Y-16343742D01*
X22038572Y-16308028D01*
X22110001Y-16272314D01*
X22324286Y-16272314D01*
X22395715Y-16308028D01*
X22431429Y-16343742D01*
X51335715Y-16486600D02*
X50978572Y-16486600D01*
X51407143Y-16272314D02*
X51157143Y-17022314D01*
X50907143Y-16272314D01*
X50692858Y-16950885D02*
X50657143Y-16986600D01*
X50585715Y-17022314D01*
X50407143Y-17022314D01*
X50335715Y-16986600D01*
X50300001Y-16950885D01*
X50264286Y-16879457D01*
X50264286Y-16808028D01*
X50300001Y-16700885D01*
X50728572Y-16272314D01*
X50264286Y-16272314D01*
X25810714Y-16272314D02*
X26060714Y-16629457D01*
X26239285Y-16272314D02*
X26239285Y-17022314D01*
X25953571Y-17022314D01*
X25882142Y-16986600D01*
X25846428Y-16950885D01*
X25810714Y-16879457D01*
X25810714Y-16772314D01*
X25846428Y-16700885D01*
X25882142Y-16665171D01*
X25953571Y-16629457D01*
X26239285Y-16629457D01*
X25525000Y-16308028D02*
X25417857Y-16272314D01*
X25239285Y-16272314D01*
X25167857Y-16308028D01*
X25132142Y-16343742D01*
X25096428Y-16415171D01*
X25096428Y-16486600D01*
X25132142Y-16558028D01*
X25167857Y-16593742D01*
X25239285Y-16629457D01*
X25382142Y-16665171D01*
X25453571Y-16700885D01*
X25489285Y-16736600D01*
X25525000Y-16808028D01*
X25525000Y-16879457D01*
X25489285Y-16950885D01*
X25453571Y-16986600D01*
X25382142Y-17022314D01*
X25203571Y-17022314D01*
X25096428Y-16986600D01*
X24882142Y-17022314D02*
X24453571Y-17022314D01*
X24667857Y-16272314D02*
X24667857Y-17022314D01*
X63982143Y-16343742D02*
X64017858Y-16308028D01*
X64125001Y-16272314D01*
X64196429Y-16272314D01*
X64303572Y-16308028D01*
X64375001Y-16379457D01*
X64410715Y-16450885D01*
X64446429Y-16593742D01*
X64446429Y-16700885D01*
X64410715Y-16843742D01*
X64375001Y-16915171D01*
X64303572Y-16986600D01*
X64196429Y-17022314D01*
X64125001Y-17022314D01*
X64017858Y-16986600D01*
X63982143Y-16950885D01*
X63267858Y-16272314D02*
X63696429Y-16272314D01*
X63482143Y-16272314D02*
X63482143Y-17022314D01*
X63553572Y-16915171D01*
X63625001Y-16843742D01*
X63696429Y-16808028D01*
X63017858Y-17022314D02*
X62553572Y-17022314D01*
X62803572Y-16736600D01*
X62696429Y-16736600D01*
X62625001Y-16700885D01*
X62589286Y-16665171D01*
X62553572Y-16593742D01*
X62553572Y-16415171D01*
X62589286Y-16343742D01*
X62625001Y-16308028D01*
X62696429Y-16272314D01*
X62910715Y-16272314D01*
X62982143Y-16308028D01*
X63017858Y-16343742D01*
X61442143Y-16343742D02*
X61477858Y-16308028D01*
X61585001Y-16272314D01*
X61656429Y-16272314D01*
X61763572Y-16308028D01*
X61835001Y-16379457D01*
X61870715Y-16450885D01*
X61906429Y-16593742D01*
X61906429Y-16700885D01*
X61870715Y-16843742D01*
X61835001Y-16915171D01*
X61763572Y-16986600D01*
X61656429Y-17022314D01*
X61585001Y-17022314D01*
X61477858Y-16986600D01*
X61442143Y-16950885D01*
X60727858Y-16272314D02*
X61156429Y-16272314D01*
X60942143Y-16272314D02*
X60942143Y-17022314D01*
X61013572Y-16915171D01*
X61085001Y-16843742D01*
X61156429Y-16808028D01*
X60085001Y-16772314D02*
X60085001Y-16272314D01*
X60263572Y-17058028D02*
X60442143Y-16522314D01*
X59977858Y-16522314D01*
X58902143Y-16343742D02*
X58937858Y-16308028D01*
X59045001Y-16272314D01*
X59116429Y-16272314D01*
X59223572Y-16308028D01*
X59295001Y-16379457D01*
X59330715Y-16450885D01*
X59366429Y-16593742D01*
X59366429Y-16700885D01*
X59330715Y-16843742D01*
X59295001Y-16915171D01*
X59223572Y-16986600D01*
X59116429Y-17022314D01*
X59045001Y-17022314D01*
X58937858Y-16986600D01*
X58902143Y-16950885D01*
X58187858Y-16272314D02*
X58616429Y-16272314D01*
X58402143Y-16272314D02*
X58402143Y-17022314D01*
X58473572Y-16915171D01*
X58545001Y-16843742D01*
X58616429Y-16808028D01*
X57509286Y-17022314D02*
X57866429Y-17022314D01*
X57902143Y-16665171D01*
X57866429Y-16700885D01*
X57795001Y-16736600D01*
X57616429Y-16736600D01*
X57545001Y-16700885D01*
X57509286Y-16665171D01*
X57473572Y-16593742D01*
X57473572Y-16415171D01*
X57509286Y-16343742D01*
X57545001Y-16308028D01*
X57616429Y-16272314D01*
X57795001Y-16272314D01*
X57866429Y-16308028D01*
X57902143Y-16343742D01*
X41175715Y-16486600D02*
X40818572Y-16486600D01*
X41247143Y-16272314D02*
X40997143Y-17022314D01*
X40747143Y-16272314D01*
X40175715Y-17022314D02*
X40318572Y-17022314D01*
X40390001Y-16986600D01*
X40425715Y-16950885D01*
X40497143Y-16843742D01*
X40532858Y-16700885D01*
X40532858Y-16415171D01*
X40497143Y-16343742D01*
X40461429Y-16308028D01*
X40390001Y-16272314D01*
X40247143Y-16272314D01*
X40175715Y-16308028D01*
X40140001Y-16343742D01*
X40104286Y-16415171D01*
X40104286Y-16593742D01*
X40140001Y-16665171D01*
X40175715Y-16700885D01*
X40247143Y-16736600D01*
X40390001Y-16736600D01*
X40461429Y-16700885D01*
X40497143Y-16665171D01*
X40532858Y-16593742D01*
X35863571Y-16665171D02*
X35756428Y-16629457D01*
X35720714Y-16593742D01*
X35685000Y-16522314D01*
X35685000Y-16415171D01*
X35720714Y-16343742D01*
X35756428Y-16308028D01*
X35827857Y-16272314D01*
X36113571Y-16272314D01*
X36113571Y-17022314D01*
X35863571Y-17022314D01*
X35792142Y-16986600D01*
X35756428Y-16950885D01*
X35720714Y-16879457D01*
X35720714Y-16808028D01*
X35756428Y-16736600D01*
X35792142Y-16700885D01*
X35863571Y-16665171D01*
X36113571Y-16665171D01*
X35220714Y-17022314D02*
X35149285Y-17022314D01*
X35077857Y-16986600D01*
X35042142Y-16950885D01*
X35006428Y-16879457D01*
X34970714Y-16736600D01*
X34970714Y-16558028D01*
X35006428Y-16415171D01*
X35042142Y-16343742D01*
X35077857Y-16308028D01*
X35149285Y-16272314D01*
X35220714Y-16272314D01*
X35292142Y-16308028D01*
X35327857Y-16343742D01*
X35363571Y-16415171D01*
X35399285Y-16558028D01*
X35399285Y-16736600D01*
X35363571Y-16879457D01*
X35327857Y-16950885D01*
X35292142Y-16986600D01*
X35220714Y-17022314D01*
%TO.C,SW1*%
X28095314Y-30692285D02*
X27845314Y-30335142D01*
X27666742Y-30692285D02*
X27666742Y-29942285D01*
X27952457Y-29942285D01*
X28023885Y-29978000D01*
X28059600Y-30013714D01*
X28095314Y-30085142D01*
X28095314Y-30192285D01*
X28059600Y-30263714D01*
X28023885Y-30299428D01*
X27952457Y-30335142D01*
X27666742Y-30335142D01*
X28416742Y-30299428D02*
X28666742Y-30299428D01*
X28773885Y-30692285D02*
X28416742Y-30692285D01*
X28416742Y-29942285D01*
X28773885Y-29942285D01*
X29059600Y-30656571D02*
X29166742Y-30692285D01*
X29345314Y-30692285D01*
X29416742Y-30656571D01*
X29452457Y-30620857D01*
X29488171Y-30549428D01*
X29488171Y-30478000D01*
X29452457Y-30406571D01*
X29416742Y-30370857D01*
X29345314Y-30335142D01*
X29202457Y-30299428D01*
X29131028Y-30263714D01*
X29095314Y-30228000D01*
X29059600Y-30156571D01*
X29059600Y-30085142D01*
X29095314Y-30013714D01*
X29131028Y-29978000D01*
X29202457Y-29942285D01*
X29381028Y-29942285D01*
X29488171Y-29978000D01*
X29809600Y-30299428D02*
X30059600Y-30299428D01*
X30166742Y-30692285D02*
X29809600Y-30692285D01*
X29809600Y-29942285D01*
X30166742Y-29942285D01*
X30381028Y-29942285D02*
X30809600Y-29942285D01*
X30595314Y-30692285D02*
X30595314Y-29942285D01*
%TO.C,P1*%
X19537828Y-21802285D02*
X19537828Y-21052285D01*
X19823542Y-21052285D01*
X19894971Y-21088000D01*
X19930685Y-21123714D01*
X19966400Y-21195142D01*
X19966400Y-21302285D01*
X19930685Y-21373714D01*
X19894971Y-21409428D01*
X19823542Y-21445142D01*
X19537828Y-21445142D01*
X20680685Y-21802285D02*
X20252114Y-21802285D01*
X20466400Y-21802285D02*
X20466400Y-21052285D01*
X20394971Y-21159428D01*
X20323542Y-21230857D01*
X20252114Y-21266571D01*
%TO.C,R5*%
X25129685Y-26617200D02*
X24772542Y-26867200D01*
X25129685Y-27045771D02*
X24379685Y-27045771D01*
X24379685Y-26760057D01*
X24415400Y-26688628D01*
X24451114Y-26652914D01*
X24522542Y-26617200D01*
X24629685Y-26617200D01*
X24701114Y-26652914D01*
X24736828Y-26688628D01*
X24772542Y-26760057D01*
X24772542Y-27045771D01*
X24379685Y-25938628D02*
X24379685Y-26295771D01*
X24736828Y-26331485D01*
X24701114Y-26295771D01*
X24665400Y-26224342D01*
X24665400Y-26045771D01*
X24701114Y-25974342D01*
X24736828Y-25938628D01*
X24808257Y-25902914D01*
X24986828Y-25902914D01*
X25058257Y-25938628D01*
X25093971Y-25974342D01*
X25129685Y-26045771D01*
X25129685Y-26224342D01*
X25093971Y-26295771D01*
X25058257Y-26331485D01*
%TO.C,D2*%
X62641628Y-21446685D02*
X62641628Y-20696685D01*
X62820200Y-20696685D01*
X62927342Y-20732400D01*
X62998771Y-20803828D01*
X63034485Y-20875257D01*
X63070200Y-21018114D01*
X63070200Y-21125257D01*
X63034485Y-21268114D01*
X62998771Y-21339542D01*
X62927342Y-21410971D01*
X62820200Y-21446685D01*
X62641628Y-21446685D01*
X63355914Y-20768114D02*
X63391628Y-20732400D01*
X63463057Y-20696685D01*
X63641628Y-20696685D01*
X63713057Y-20732400D01*
X63748771Y-20768114D01*
X63784485Y-20839542D01*
X63784485Y-20910971D01*
X63748771Y-21018114D01*
X63320200Y-21446685D01*
X63784485Y-21446685D01*
%TO.C,R6*%
X61495000Y-26194285D02*
X61245000Y-25837142D01*
X61066428Y-26194285D02*
X61066428Y-25444285D01*
X61352142Y-25444285D01*
X61423571Y-25480000D01*
X61459285Y-25515714D01*
X61495000Y-25587142D01*
X61495000Y-25694285D01*
X61459285Y-25765714D01*
X61423571Y-25801428D01*
X61352142Y-25837142D01*
X61066428Y-25837142D01*
X62137857Y-25444285D02*
X61995000Y-25444285D01*
X61923571Y-25480000D01*
X61887857Y-25515714D01*
X61816428Y-25622857D01*
X61780714Y-25765714D01*
X61780714Y-26051428D01*
X61816428Y-26122857D01*
X61852142Y-26158571D01*
X61923571Y-26194285D01*
X62066428Y-26194285D01*
X62137857Y-26158571D01*
X62173571Y-26122857D01*
X62209285Y-26051428D01*
X62209285Y-25872857D01*
X62173571Y-25801428D01*
X62137857Y-25765714D01*
X62066428Y-25730000D01*
X61923571Y-25730000D01*
X61852142Y-25765714D01*
X61816428Y-25801428D01*
X61780714Y-25872857D01*
%TO.C,J2*%
X36300600Y-26614885D02*
X36300600Y-27150600D01*
X36264885Y-27257742D01*
X36193457Y-27329171D01*
X36086314Y-27364885D01*
X36014885Y-27364885D01*
X36622028Y-26686314D02*
X36657742Y-26650600D01*
X36729171Y-26614885D01*
X36907742Y-26614885D01*
X36979171Y-26650600D01*
X37014885Y-26686314D01*
X37050600Y-26757742D01*
X37050600Y-26829171D01*
X37014885Y-26936314D01*
X36586314Y-27364885D01*
X37050600Y-27364885D01*
%TO.C,Y2*%
X58672457Y-21470542D02*
X58672457Y-21827685D01*
X58422457Y-21077685D02*
X58672457Y-21470542D01*
X58922457Y-21077685D01*
X59136742Y-21149114D02*
X59172457Y-21113400D01*
X59243885Y-21077685D01*
X59422457Y-21077685D01*
X59493885Y-21113400D01*
X59529600Y-21149114D01*
X59565314Y-21220542D01*
X59565314Y-21291971D01*
X59529600Y-21399114D01*
X59101028Y-21827685D01*
X59565314Y-21827685D01*
%TO.C,D1*%
X23652628Y-32673485D02*
X23652628Y-31923485D01*
X23831200Y-31923485D01*
X23938342Y-31959200D01*
X24009771Y-32030628D01*
X24045485Y-32102057D01*
X24081200Y-32244914D01*
X24081200Y-32352057D01*
X24045485Y-32494914D01*
X24009771Y-32566342D01*
X23938342Y-32637771D01*
X23831200Y-32673485D01*
X23652628Y-32673485D01*
X24795485Y-32673485D02*
X24366914Y-32673485D01*
X24581200Y-32673485D02*
X24581200Y-31923485D01*
X24509771Y-32030628D01*
X24438342Y-32102057D01*
X24366914Y-32137771D01*
%TO.C,R3*%
X25910000Y-21421285D02*
X25660000Y-21064142D01*
X25481428Y-21421285D02*
X25481428Y-20671285D01*
X25767142Y-20671285D01*
X25838571Y-20707000D01*
X25874285Y-20742714D01*
X25910000Y-20814142D01*
X25910000Y-20921285D01*
X25874285Y-20992714D01*
X25838571Y-21028428D01*
X25767142Y-21064142D01*
X25481428Y-21064142D01*
X26160000Y-20671285D02*
X26624285Y-20671285D01*
X26374285Y-20957000D01*
X26481428Y-20957000D01*
X26552857Y-20992714D01*
X26588571Y-21028428D01*
X26624285Y-21099857D01*
X26624285Y-21278428D01*
X26588571Y-21349857D01*
X26552857Y-21385571D01*
X26481428Y-21421285D01*
X26267142Y-21421285D01*
X26195714Y-21385571D01*
X26160000Y-21349857D01*
%TO.C,J1*%
X36326000Y-22677885D02*
X36326000Y-23213600D01*
X36290285Y-23320742D01*
X36218857Y-23392171D01*
X36111714Y-23427885D01*
X36040285Y-23427885D01*
X37076000Y-23427885D02*
X36647428Y-23427885D01*
X36861714Y-23427885D02*
X36861714Y-22677885D01*
X36790285Y-22785028D01*
X36718857Y-22856457D01*
X36647428Y-22892171D01*
%TO.C,R8*%
X61978000Y-27847485D02*
X61728000Y-27490342D01*
X61549428Y-27847485D02*
X61549428Y-27097485D01*
X61835142Y-27097485D01*
X61906571Y-27133200D01*
X61942285Y-27168914D01*
X61978000Y-27240342D01*
X61978000Y-27347485D01*
X61942285Y-27418914D01*
X61906571Y-27454628D01*
X61835142Y-27490342D01*
X61549428Y-27490342D01*
X62406571Y-27418914D02*
X62335142Y-27383200D01*
X62299428Y-27347485D01*
X62263714Y-27276057D01*
X62263714Y-27240342D01*
X62299428Y-27168914D01*
X62335142Y-27133200D01*
X62406571Y-27097485D01*
X62549428Y-27097485D01*
X62620857Y-27133200D01*
X62656571Y-27168914D01*
X62692285Y-27240342D01*
X62692285Y-27276057D01*
X62656571Y-27347485D01*
X62620857Y-27383200D01*
X62549428Y-27418914D01*
X62406571Y-27418914D01*
X62335142Y-27454628D01*
X62299428Y-27490342D01*
X62263714Y-27561771D01*
X62263714Y-27704628D01*
X62299428Y-27776057D01*
X62335142Y-27811771D01*
X62406571Y-27847485D01*
X62549428Y-27847485D01*
X62620857Y-27811771D01*
X62656571Y-27776057D01*
X62692285Y-27704628D01*
X62692285Y-27561771D01*
X62656571Y-27490342D01*
X62620857Y-27454628D01*
X62549428Y-27418914D01*
%TO.C,R4*%
X26443400Y-29777885D02*
X26193400Y-29420742D01*
X26014828Y-29777885D02*
X26014828Y-29027885D01*
X26300542Y-29027885D01*
X26371971Y-29063600D01*
X26407685Y-29099314D01*
X26443400Y-29170742D01*
X26443400Y-29277885D01*
X26407685Y-29349314D01*
X26371971Y-29385028D01*
X26300542Y-29420742D01*
X26014828Y-29420742D01*
X27086257Y-29277885D02*
X27086257Y-29777885D01*
X26907685Y-28992171D02*
X26729114Y-29527885D01*
X27193400Y-29527885D01*
%TO.C,U2*%
X38519171Y-21941285D02*
X38519171Y-22548428D01*
X38554885Y-22619857D01*
X38590600Y-22655571D01*
X38662028Y-22691285D01*
X38804885Y-22691285D01*
X38876314Y-22655571D01*
X38912028Y-22619857D01*
X38947742Y-22548428D01*
X38947742Y-21941285D01*
X39269171Y-22012714D02*
X39304885Y-21977000D01*
X39376314Y-21941285D01*
X39554885Y-21941285D01*
X39626314Y-21977000D01*
X39662028Y-22012714D01*
X39697742Y-22084142D01*
X39697742Y-22155571D01*
X39662028Y-22262714D01*
X39233457Y-22691285D01*
X39697742Y-22691285D01*
D11*
%TO.C,J4*%
X66722666Y-22261580D02*
X66722666Y-22975866D01*
X66675047Y-23118723D01*
X66579809Y-23213961D01*
X66436952Y-23261580D01*
X66341714Y-23261580D01*
X67627428Y-22594914D02*
X67627428Y-23261580D01*
X67389333Y-22213961D02*
X67151238Y-22928247D01*
X67770285Y-22928247D01*
D10*
%TO.C,C11*%
X34341257Y-25312257D02*
X34305542Y-25347971D01*
X34198400Y-25383685D01*
X34126971Y-25383685D01*
X34019828Y-25347971D01*
X33948400Y-25276542D01*
X33912685Y-25205114D01*
X33876971Y-25062257D01*
X33876971Y-24955114D01*
X33912685Y-24812257D01*
X33948400Y-24740828D01*
X34019828Y-24669400D01*
X34126971Y-24633685D01*
X34198400Y-24633685D01*
X34305542Y-24669400D01*
X34341257Y-24705114D01*
X35055542Y-25383685D02*
X34626971Y-25383685D01*
X34841257Y-25383685D02*
X34841257Y-24633685D01*
X34769828Y-24740828D01*
X34698400Y-24812257D01*
X34626971Y-24847971D01*
X35769828Y-25383685D02*
X35341257Y-25383685D01*
X35555542Y-25383685D02*
X35555542Y-24633685D01*
X35484114Y-24740828D01*
X35412685Y-24812257D01*
X35341257Y-24847971D01*
%TO.C,Y1*%
X50138057Y-22867542D02*
X50138057Y-23224685D01*
X49888057Y-22474685D02*
X50138057Y-22867542D01*
X50388057Y-22474685D01*
X51030914Y-23224685D02*
X50602342Y-23224685D01*
X50816628Y-23224685D02*
X50816628Y-22474685D01*
X50745200Y-22581828D01*
X50673771Y-22653257D01*
X50602342Y-22688971D01*
%TO.C,C2*%
X36908200Y-32348057D02*
X36872485Y-32383771D01*
X36765342Y-32419485D01*
X36693914Y-32419485D01*
X36586771Y-32383771D01*
X36515342Y-32312342D01*
X36479628Y-32240914D01*
X36443914Y-32098057D01*
X36443914Y-31990914D01*
X36479628Y-31848057D01*
X36515342Y-31776628D01*
X36586771Y-31705200D01*
X36693914Y-31669485D01*
X36765342Y-31669485D01*
X36872485Y-31705200D01*
X36908200Y-31740914D01*
X37193914Y-31740914D02*
X37229628Y-31705200D01*
X37301057Y-31669485D01*
X37479628Y-31669485D01*
X37551057Y-31705200D01*
X37586771Y-31740914D01*
X37622485Y-31812342D01*
X37622485Y-31883771D01*
X37586771Y-31990914D01*
X37158200Y-32419485D01*
X37622485Y-32419485D01*
%TO.C,D3*%
X62819428Y-32470285D02*
X62819428Y-31720285D01*
X62998000Y-31720285D01*
X63105142Y-31756000D01*
X63176571Y-31827428D01*
X63212285Y-31898857D01*
X63248000Y-32041714D01*
X63248000Y-32148857D01*
X63212285Y-32291714D01*
X63176571Y-32363142D01*
X63105142Y-32434571D01*
X62998000Y-32470285D01*
X62819428Y-32470285D01*
X63498000Y-31720285D02*
X63962285Y-31720285D01*
X63712285Y-32006000D01*
X63819428Y-32006000D01*
X63890857Y-32041714D01*
X63926571Y-32077428D01*
X63962285Y-32148857D01*
X63962285Y-32327428D01*
X63926571Y-32398857D01*
X63890857Y-32434571D01*
X63819428Y-32470285D01*
X63605142Y-32470285D01*
X63533714Y-32434571D01*
X63498000Y-32398857D01*
%TO.C,R7*%
X26697400Y-24697885D02*
X26447400Y-24340742D01*
X26268828Y-24697885D02*
X26268828Y-23947885D01*
X26554542Y-23947885D01*
X26625971Y-23983600D01*
X26661685Y-24019314D01*
X26697400Y-24090742D01*
X26697400Y-24197885D01*
X26661685Y-24269314D01*
X26625971Y-24305028D01*
X26554542Y-24340742D01*
X26268828Y-24340742D01*
X26947400Y-23947885D02*
X27447400Y-23947885D01*
X27125971Y-24697885D01*
%TO.C,SW1*%
X31629600Y-31653000D02*
X31629600Y-31553000D01*
X31629600Y-29153000D02*
X31629600Y-29053000D01*
X35329600Y-31953000D02*
X31929600Y-31953000D01*
X35629600Y-29053000D02*
X35629600Y-29153000D01*
X35629600Y-31553000D02*
X35629600Y-31653000D01*
X31929600Y-28753000D02*
X35329600Y-28753000D01*
X35329600Y-31953000D02*
G75*
G03*
X35629600Y-31653000I0J300000D01*
G01*
X31629600Y-31653000D02*
G75*
G03*
X31929600Y-31953000I300000J0D01*
G01*
X31929600Y-28753000D02*
G75*
G03*
X31629600Y-29053000I0J-300000D01*
G01*
X35629600Y-29053000D02*
G75*
G03*
X35329600Y-28753000I-300000J0D01*
G01*
D12*
X34629600Y-30353000D02*
G75*
G03*
X34629600Y-30353000I-1000000J0D01*
G01*
D10*
%TO.C,P1*%
X17127600Y-22224000D02*
X15227600Y-22224000D01*
X17127600Y-31624000D02*
X15227600Y-31624000D01*
X21027600Y-31624000D02*
X19027600Y-31624000D01*
X21027600Y-22224000D02*
X19027600Y-22224000D01*
X15227600Y-22224000D02*
X15227600Y-31624000D01*
D13*
%TO.C,R5*%
X25610000Y-26180000D02*
X27010000Y-26180000D01*
X25410000Y-26980000D02*
X25410000Y-26380000D01*
X27210000Y-26380000D02*
X27210000Y-26980000D01*
X27010000Y-27180000D02*
X25610000Y-27180000D01*
X25610000Y-26180000D02*
G75*
G03*
X25410000Y-26380000I1J-200001D01*
G01*
X27010000Y-27180000D02*
G75*
G03*
X27210000Y-26980000I-1J200001D01*
G01*
X25410000Y-26980000D02*
G75*
G03*
X25610000Y-27180000I200001J1D01*
G01*
X27210000Y-26380000D02*
G75*
G03*
X27010000Y-26180000I-200001J-1D01*
G01*
%TO.C,D2*%
X60920000Y-24270000D02*
X60920000Y-21310000D01*
X62380000Y-24270000D02*
X60920000Y-24270000D01*
D12*
X62385000Y-21105000D02*
X60915000Y-21105000D01*
D13*
X60920000Y-21310000D02*
X62380000Y-21310000D01*
X62380000Y-21310000D02*
X62380000Y-24270000D01*
%TO.C,R6*%
X60690000Y-25300000D02*
X60690000Y-24360000D01*
X62550000Y-25300000D02*
X60690000Y-25300000D01*
X60690000Y-24360000D02*
X62550000Y-24360000D01*
X62550000Y-24360000D02*
X62550000Y-25300000D01*
D10*
%TO.C,J2*%
X35730000Y-25654000D02*
X35730000Y-28194000D01*
X35730000Y-28194000D02*
X28110000Y-28194000D01*
X28110000Y-25654000D02*
X35730000Y-25654000D01*
X28110000Y-28194000D02*
X28110000Y-25654000D01*
%TO.C,Y2*%
X60286600Y-24909200D02*
X60286600Y-25109200D01*
X59186600Y-24609200D02*
X59786600Y-23709200D01*
X57686600Y-24609200D02*
X59986600Y-24609200D01*
X58486600Y-24609200D02*
X57886600Y-23709200D01*
X57386600Y-25109200D02*
X57386600Y-24909200D01*
X59786600Y-23709200D02*
X59786600Y-23509200D01*
X57886600Y-23709200D02*
X57886600Y-23509200D01*
X57686600Y-24609200D02*
G75*
G03*
X57386600Y-24909200I0J-300000D01*
G01*
X60286600Y-24909200D02*
G75*
G03*
X59986600Y-24609200I-300000J0D01*
G01*
%TO.C,D1*%
X25490600Y-30897600D02*
X27290600Y-30897600D01*
D12*
X26690600Y-31597600D02*
X26890600Y-31597600D01*
X26190600Y-31247600D02*
X26690600Y-31597600D01*
X26190600Y-31597600D02*
X25940600Y-31597600D01*
D10*
X25490600Y-31197600D02*
X25490600Y-30897600D01*
X27590600Y-30897600D02*
X27590600Y-31197600D01*
D12*
X26690600Y-31947600D02*
X26690600Y-31247600D01*
D10*
X27590600Y-31997600D02*
X27590600Y-32297600D01*
X27290600Y-30897600D02*
X27290600Y-31197600D01*
D12*
X26190600Y-31947600D02*
X26190600Y-31247600D01*
D10*
X27290600Y-32297600D02*
X25490600Y-32297600D01*
D12*
X26690600Y-31597600D02*
X26190600Y-31947600D01*
D10*
X27290600Y-31997600D02*
X27290600Y-32297600D01*
X25490600Y-32297600D02*
X25490600Y-31997600D01*
D13*
%TO.C,R3*%
X25131600Y-20782000D02*
X25131600Y-21382000D01*
X24931600Y-21582000D02*
X23531600Y-21582000D01*
X23331600Y-21382000D02*
X23331600Y-20782000D01*
X23531600Y-20582000D02*
X24931600Y-20582000D01*
X24931600Y-21582000D02*
G75*
G03*
X25131600Y-21382000I-1J200001D01*
G01*
X23331600Y-21382000D02*
G75*
G03*
X23531600Y-21582000I200001J1D01*
G01*
X25131600Y-20782000D02*
G75*
G03*
X24931600Y-20582000I-200001J-1D01*
G01*
X23531600Y-20582000D02*
G75*
G03*
X23331600Y-20782000I1J-200001D01*
G01*
D10*
%TO.C,J1*%
X35735000Y-24384000D02*
X28115000Y-24384000D01*
X28115000Y-21844000D02*
X35735000Y-21844000D01*
X35735000Y-21844000D02*
X35735000Y-24384000D01*
X28115000Y-24384000D02*
X28115000Y-21844000D01*
D13*
%TO.C,R8*%
X62550000Y-28030000D02*
X62550000Y-28970000D01*
X60690000Y-28970000D02*
X60690000Y-28030000D01*
X62550000Y-28970000D02*
X60690000Y-28970000D01*
X60690000Y-28030000D02*
X62550000Y-28030000D01*
%TO.C,R4*%
X25139800Y-27290800D02*
X27539800Y-27290800D01*
X27539800Y-28690800D02*
X25139800Y-28690800D01*
X24939800Y-28490800D02*
X24939800Y-27490800D01*
X27739800Y-27490800D02*
X27739800Y-28490800D01*
X25139800Y-27290800D02*
G75*
G03*
X24939800Y-27490800I1J-200001D01*
G01*
X27539800Y-28690800D02*
G75*
G03*
X27739800Y-28490800I-1J200001D01*
G01*
X27739800Y-27490800D02*
G75*
G03*
X27539800Y-27290800I-200001J-1D01*
G01*
X24939800Y-28490800D02*
G75*
G03*
X25139800Y-28690800I200001J1D01*
G01*
D10*
%TO.C,U2*%
X39020963Y-26912132D02*
X39162385Y-27053553D01*
X43546447Y-21962385D02*
X43687868Y-21820963D01*
X44253553Y-31437615D02*
X44112132Y-31579037D01*
X43687868Y-31579037D02*
X43546447Y-31437615D01*
X48779037Y-26487868D02*
X48637615Y-26346447D01*
X48637615Y-27053553D02*
X48779037Y-26912132D01*
X39162385Y-26346447D02*
X39020963Y-26487868D01*
X44112132Y-21820963D02*
X44253553Y-21962385D01*
X43687868Y-31579037D02*
G75*
G03*
X44112132Y-31579037I212132J212132D01*
G01*
X44112132Y-21820963D02*
G75*
G03*
X43687868Y-21820963I-212132J-212132D01*
G01*
X39020963Y-26487868D02*
G75*
G03*
X39020963Y-26912132I212132J-212132D01*
G01*
X48779037Y-26912132D02*
G75*
G03*
X48779037Y-26487868I-212132J212132D01*
G01*
%TO.C,J4*%
X65899000Y-21540000D02*
X65899000Y-31820000D01*
X65899000Y-26680000D02*
X68559000Y-26680000D01*
X65899000Y-31820000D02*
X68559000Y-31820000D01*
X65569000Y-23250000D02*
X65899000Y-23250000D01*
X65899000Y-29220000D02*
X68559000Y-29220000D01*
X65501929Y-27570000D02*
X65899000Y-27570000D01*
X65501929Y-28330000D02*
X65899000Y-28330000D01*
X65501929Y-25030000D02*
X65899000Y-25030000D01*
X65501929Y-30870000D02*
X65899000Y-30870000D01*
X65501929Y-25790000D02*
X65899000Y-25790000D01*
X65899000Y-24140000D02*
X68559000Y-24140000D01*
X65569000Y-22490000D02*
X65899000Y-22490000D01*
X68559000Y-21540000D02*
X65899000Y-21540000D01*
X65501929Y-30110000D02*
X65899000Y-30110000D01*
X68559000Y-31820000D02*
X68559000Y-21540000D01*
%TO.C,J3*%
X67340000Y-18050000D02*
X67340000Y-20050000D01*
X16540000Y-18050000D02*
X16540000Y-20050000D01*
X67040000Y-20350000D02*
X16840000Y-20350000D01*
X67040000Y-17750000D02*
X16840000Y-17750000D01*
X16540000Y-20050000D02*
G75*
G03*
X16840000Y-20350000I300000J0D01*
G01*
X67040000Y-20350000D02*
G75*
G03*
X67340000Y-20050000I0J300000D01*
G01*
X67340000Y-18050000D02*
G75*
G03*
X67040000Y-17750000I-300000J0D01*
G01*
X16840000Y-17750000D02*
G75*
G03*
X16540000Y-18050000I0J-300000D01*
G01*
D13*
%TO.C,C11*%
X37079200Y-26376200D02*
X36479200Y-26376200D01*
X36279200Y-26176200D02*
X36279200Y-24776200D01*
X36479200Y-24576200D02*
X37079200Y-24576200D01*
X37279200Y-24776200D02*
X37279200Y-26176200D01*
X36279200Y-26176200D02*
G75*
G03*
X36479200Y-26376200I200001J1D01*
G01*
X36479200Y-24576200D02*
G75*
G03*
X36279200Y-24776200I1J-200001D01*
G01*
X37279200Y-24776200D02*
G75*
G03*
X37079200Y-24576200I-200001J-1D01*
G01*
X37079200Y-26376200D02*
G75*
G03*
X37279200Y-26176200I-1J200001D01*
G01*
D10*
%TO.C,Y1*%
X51325000Y-23470000D02*
X51325000Y-29870000D01*
X56375000Y-23470000D02*
X56375000Y-29870000D01*
X56375000Y-23470000D02*
G75*
G03*
X51325000Y-23470000I-2525000J0D01*
G01*
X51325000Y-29870000D02*
G75*
G03*
X56375000Y-29870000I2525000J0D01*
G01*
D13*
%TO.C,C2*%
X37358600Y-31253000D02*
X36758600Y-31253000D01*
X37558600Y-29653000D02*
X37558600Y-31053000D01*
X36758600Y-29453000D02*
X37358600Y-29453000D01*
X36558600Y-31053000D02*
X36558600Y-29653000D01*
X36758600Y-29453000D02*
G75*
G03*
X36558600Y-29653000I1J-200001D01*
G01*
X37358600Y-31253000D02*
G75*
G03*
X37558600Y-31053000I-1J200001D01*
G01*
X36558600Y-31053000D02*
G75*
G03*
X36758600Y-31253000I200001J1D01*
G01*
X37558600Y-29653000D02*
G75*
G03*
X37358600Y-29453000I-200001J-1D01*
G01*
D10*
%TO.C,J5*%
X67040000Y-35590000D02*
G75*
G03*
X67340000Y-35290000I0J300000D01*
G01*
X67340000Y-33290000D02*
G75*
G03*
X67040000Y-32990000I-300000J0D01*
G01*
X16540000Y-35290000D02*
G75*
G03*
X16840000Y-35590000I300000J0D01*
G01*
X16840000Y-32990000D02*
G75*
G03*
X16540000Y-33290000I0J-300000D01*
G01*
X67040000Y-32990000D02*
X16840000Y-32990000D01*
X67040000Y-35590000D02*
X16840000Y-35590000D01*
X16540000Y-33290000D02*
X16540000Y-35290000D01*
X67340000Y-33290000D02*
X67340000Y-35290000D01*
D12*
%TO.C,D3*%
X60915000Y-32235000D02*
X62385000Y-32235000D01*
D13*
X62380000Y-29070000D02*
X62380000Y-32030000D01*
X62380000Y-32030000D02*
X60920000Y-32030000D01*
X60920000Y-29070000D02*
X62380000Y-29070000D01*
X60920000Y-32030000D02*
X60920000Y-29070000D01*
%TO.C,R7*%
X27214400Y-25303200D02*
X27214400Y-25903200D01*
X27014400Y-26103200D02*
X25614400Y-26103200D01*
X25614400Y-25103200D02*
X27014400Y-25103200D01*
X25414400Y-25903200D02*
X25414400Y-25303200D01*
X27014400Y-26103200D02*
G75*
G03*
X27214400Y-25903200I-1J200001D01*
G01*
X25414400Y-25903200D02*
G75*
G03*
X25614400Y-26103200I200001J1D01*
G01*
X27214400Y-25303200D02*
G75*
G03*
X27014400Y-25103200I-200001J-1D01*
G01*
X25614400Y-25103200D02*
G75*
G03*
X25414400Y-25303200I1J-200001D01*
G01*
%TD*%
M02*
