%TF.GenerationSoftware,KiCad,Pcbnew,6.0.2+dfsg-1*%
%TF.CreationDate,2022-07-02T11:43:58+03:00*%
%TF.ProjectId,GDBluePill,4744426c-7565-4506-996c-6c2e6b696361,rev?*%
%TF.SameCoordinates,Original*%
%TF.FileFunction,Paste,Top*%
%TF.FilePolarity,Positive*%
%FSLAX46Y46*%
G04 Gerber Fmt 4.6, Leading zero omitted, Abs format (unit mm)*
G04 Created by KiCad (PCBNEW 6.0.2+dfsg-1) date 2022-07-02 11:43:58*
%MOMM*%
%LPD*%
G01*
G04 APERTURE LIST*
G04 Aperture macros list*
%AMRoundRect*
0 Rectangle with rounded corners*
0 $1 Rounding radius*
0 $2 $3 $4 $5 $6 $7 $8 $9 X,Y pos of 4 corners*
0 Add a 4 corners polygon primitive as box body*
4,1,4,$2,$3,$4,$5,$6,$7,$8,$9,$2,$3,0*
0 Add four circle primitives for the rounded corners*
1,1,$1+$1,$2,$3*
1,1,$1+$1,$4,$5*
1,1,$1+$1,$6,$7*
1,1,$1+$1,$8,$9*
0 Add four rect primitives between the rounded corners*
20,1,$1+$1,$2,$3,$4,$5,0*
20,1,$1+$1,$4,$5,$6,$7,0*
20,1,$1+$1,$6,$7,$8,$9,0*
20,1,$1+$1,$8,$9,$2,$3,0*%
G04 Aperture macros list end*
%ADD10RoundRect,0.200000X-0.200000X-0.800000X0.200000X-0.800000X0.200000X0.800000X-0.200000X0.800000X0*%
%ADD11RoundRect,0.150000X-0.575000X0.150000X-0.575000X-0.150000X0.575000X-0.150000X0.575000X0.150000X0*%
%ADD12RoundRect,0.075000X-0.650000X0.075000X-0.650000X-0.075000X0.650000X-0.075000X0.650000X0.075000X0*%
%ADD13RoundRect,0.135000X-0.135000X-0.185000X0.135000X-0.185000X0.135000X0.185000X-0.135000X0.185000X0*%
%ADD14RoundRect,0.218750X-0.256250X0.218750X-0.256250X-0.218750X0.256250X-0.218750X0.256250X0.218750X0*%
%ADD15RoundRect,0.135000X0.135000X0.185000X-0.135000X0.185000X-0.135000X-0.185000X0.135000X-0.185000X0*%
%ADD16RoundRect,0.625000X-0.625000X-2.375000X0.625000X-2.375000X0.625000X2.375000X-0.625000X2.375000X0*%
%ADD17RoundRect,0.112500X0.187500X0.112500X-0.187500X0.112500X-0.187500X-0.112500X0.187500X-0.112500X0*%
%ADD18RoundRect,0.200000X-0.200000X-0.275000X0.200000X-0.275000X0.200000X0.275000X-0.200000X0.275000X0*%
%ADD19RoundRect,0.075000X0.415425X0.521491X-0.521491X-0.415425X-0.415425X-0.521491X0.521491X0.415425X0*%
%ADD20RoundRect,0.075000X-0.415425X0.521491X-0.521491X0.415425X0.415425X-0.521491X0.521491X-0.415425X0*%
%ADD21RoundRect,0.140000X-0.170000X0.140000X-0.170000X-0.140000X0.170000X-0.140000X0.170000X0.140000X0*%
%ADD22RoundRect,0.140000X0.170000X-0.140000X0.170000X0.140000X-0.170000X0.140000X-0.170000X-0.140000X0*%
%ADD23RoundRect,0.218750X0.256250X-0.218750X0.256250X0.218750X-0.256250X0.218750X-0.256250X-0.218750X0*%
G04 APERTURE END LIST*
D10*
%TO.C,SW1*%
X31529600Y-30353000D03*
X35729600Y-30353000D03*
%TD*%
D11*
%TO.C,P1*%
X23172600Y-23674000D03*
X23172600Y-24474000D03*
D12*
X23172600Y-25674000D03*
X23172600Y-26674000D03*
X23172600Y-27174000D03*
X23172600Y-28174000D03*
D11*
X23172600Y-29374000D03*
X23172600Y-30174000D03*
D12*
X23172600Y-28674000D03*
X23172600Y-27674000D03*
X23172600Y-26174000D03*
X23172600Y-25174000D03*
%TD*%
D13*
%TO.C,R5*%
X25800000Y-26680000D03*
X26820000Y-26680000D03*
%TD*%
D14*
%TO.C,D2*%
X61650000Y-22002500D03*
X61650000Y-23577500D03*
%TD*%
D15*
%TO.C,R6*%
X62130000Y-24830000D03*
X61110000Y-24830000D03*
%TD*%
D16*
%TO.C,Y2*%
X58836600Y-28309200D03*
%TD*%
D17*
%TO.C,D1*%
X27440600Y-31597600D03*
X25340600Y-31597600D03*
%TD*%
D13*
%TO.C,R3*%
X23721600Y-21082000D03*
X24741600Y-21082000D03*
%TD*%
D15*
%TO.C,R8*%
X62130000Y-28500000D03*
X61110000Y-28500000D03*
%TD*%
D18*
%TO.C,R4*%
X25514800Y-27990800D03*
X27164800Y-27990800D03*
%TD*%
D19*
%TO.C,U2*%
X48787876Y-25701212D03*
X48434322Y-25347658D03*
X48080769Y-24994105D03*
X47727215Y-24640551D03*
X47373662Y-24286998D03*
X47020109Y-23933445D03*
X46666555Y-23579891D03*
X46313002Y-23226338D03*
X45959449Y-22872785D03*
X45605895Y-22519231D03*
X45252342Y-22165678D03*
X44898788Y-21812124D03*
D20*
X42901212Y-21812124D03*
X42547658Y-22165678D03*
X42194105Y-22519231D03*
X41840551Y-22872785D03*
X41486998Y-23226338D03*
X41133445Y-23579891D03*
X40779891Y-23933445D03*
X40426338Y-24286998D03*
X40072785Y-24640551D03*
X39719231Y-24994105D03*
X39365678Y-25347658D03*
X39012124Y-25701212D03*
D19*
X39012124Y-27698788D03*
X39365678Y-28052342D03*
X39719231Y-28405895D03*
X40072785Y-28759449D03*
X40426338Y-29113002D03*
X40779891Y-29466555D03*
X41133445Y-29820109D03*
X41486998Y-30173662D03*
X41840551Y-30527215D03*
X42194105Y-30880769D03*
X42547658Y-31234322D03*
X42901212Y-31587876D03*
D20*
X44898788Y-31587876D03*
X45252342Y-31234322D03*
X45605895Y-30880769D03*
X45959449Y-30527215D03*
X46313002Y-30173662D03*
X46666555Y-29820109D03*
X47020109Y-29466555D03*
X47373662Y-29113002D03*
X47727215Y-28759449D03*
X48080769Y-28405895D03*
X48434322Y-28052342D03*
X48787876Y-27698788D03*
%TD*%
D21*
%TO.C,C11*%
X36779200Y-24996200D03*
X36779200Y-25956200D03*
%TD*%
D22*
%TO.C,C2*%
X37058600Y-30833000D03*
X37058600Y-29873000D03*
%TD*%
D23*
%TO.C,D3*%
X61650000Y-31337500D03*
X61650000Y-29762500D03*
%TD*%
D15*
%TO.C,R7*%
X26824400Y-25603200D03*
X25804400Y-25603200D03*
%TD*%
M02*
